SplineFontDB: 3.0
FontName: Vaigai-Italic
FullName: Vaigai Italic
FamilyName: Vaigai
Weight: Book
Copyright: Copyright (c) 1995-2015, NLCI (http://www.nlci.in/fonts/) Derived from SAU Vaigai Italic by ttfbuilder v0.33
Version: 1.0 Thu Aug 08 15:05:36 1996
ItalicAngle: 12
UnderlinePosition: -260
UnderlineWidth: 20
Ascent: 800
Descent: 200
InvalidEm: 0
sfntRevision: 0x00010000
LayerCount: 2
Layer: 0 0 "Back" 1
Layer: 1 0 "Fore" 0
XUID: [1021 370 1182968595 448199]
StyleMap: 0x0041
FSType: 0
OS2Version: 1
OS2_WeightWidthSlopeOnly: 0
OS2_UseTypoMetrics: 0
CreationTime: 1547921071
ModificationTime: 1547921084
PfmFamily: 17
TTFWeight: 400
TTFWidth: 5
LineGap: 0
VLineGap: 0
Panose: 2 0 0 3 0 0 0 0 0 0
OS2TypoAscent: 1068
OS2TypoAOffset: 0
OS2TypoDescent: -359
OS2TypoDOffset: 0
OS2TypoLinegap: 0
OS2WinAscent: 1068
OS2WinAOffset: 0
OS2WinDescent: 359
OS2WinDOffset: 0
HheadAscent: 1068
HheadAOffset: 0
HheadDescent: -359
HheadDOffset: 0
OS2SubXSize: 700
OS2SubYSize: 650
OS2SubXOff: 0
OS2SubYOff: 143
OS2SupXSize: 700
OS2SupYSize: 650
OS2SupXOff: 0
OS2SupYOff: 453
OS2StrikeYSize: 50
OS2StrikeYPos: 259
OS2Vendor: 'Alts'
OS2CodePages: 20000001.00000000
OS2UnicodeRanges: a01080ff.520021cb.08000028.00000000
Lookup: 260 0 0 "_holdAnchorsbase" { "_someAnchorsbase"  } []
DEI: 91125
ShortTable: maxp 16
  1
  0
  243
  199
  12
  303
  16
  1
  0
  0
  0
  0
  3
  0
  3
  2
EndShort

StartChar: .notdef
Encoding: 0 -1 0
Width: 500
Flags: HW
LayerCount: 2
Fore
SplineSet
31 0 m 1
 31 750 l 1
 469 750 l 1
 469 0 l 1
 31 0 l 1
438 31 m 1
 438 719 l 1
 62 719 l 1
 62 31 l 1
 438 31 l 1
EndSplineSet
EndChar

StartChar: exclam.taml
Encoding: 4 -1 4
Width: 320
Flags: HW
LayerCount: 2
Fore
SplineSet
274 450 m 0
 295.333333333 450 306 437.333333333 306 412 c 0
 306 402.666666667 305.333333333 395.166666667 304 389.5 c 128
 302.666666667 383.833333333 301.666666667 379.666666667 301 377 c 0
 278.333333333 312.333333333 255 244.333333333 231 173 c 0
 222.333333333 147 211 112.666666667 197 70 c 1
 190 70 l 1
 196 112 200.333333333 146 203 172 c 0
 211.666666667 251.333333333 216 319.666666667 216 377 c 0
 216 397 221.5 414.166666667 232.5 428.5 c 128
 243.5 442.833333333 257.333333333 450 274 450 c 0
179 8 m 0
 191 8 200 4.33333333333 206 -3 c 128
 212 -10.3333333333 213.666666667 -20 211 -32 c 256
 208.333333333 -44 202.5 -54.1666666667 193.5 -62.5 c 128
 184.5 -70.8333333333 174 -75 162 -75 c 0
 150.666666667 -75 141.833333333 -70.8333333333 135.5 -62.5 c 128
 129.166666667 -54.1666666667 127.333333333 -44 130 -32 c 0
 132.666666667 -21.3333333333 138.666666667 -12 148 -4 c 128
 157.333333333 4 167.666666667 8 179 8 c 0
EndSplineSet
EndChar

StartChar: quoteleft.taml
Encoding: 5 -1 5
Width: 250
Flags: HW
LayerCount: 2
Fore
SplineSet
315 648 m 1
 275 635.333333333 241.666666667 613 215 581 c 0
 191 552.333333333 183 534.666666667 191 528 c 0
 194.333333333 525.333333333 198 524 202 524 c 0
 204 524 213.333333333 528.333333333 230 537 c 0
 237.333333333 541 244.333333333 543 251 543 c 0
 258.333333333 543 264.333333333 541 269 537 c 0
 281.666666667 527 288 512.666666667 288 494 c 0
 288 476.666666667 282 461 270 447 c 0
 256 429.666666667 236.666666667 421 212 421 c 0
 204.666666667 421 195.833333333 421.666666667 185.5 423 c 128
 175.166666667 424.333333333 166.166666667 431.333333333 158.5 444 c 128
 150.833333333 456.666666667 147 472.333333333 147 491 c 0
 147 507 150.333333333 522.666666667 157 538 c 0
 177 585.333333333 210.333333333 622.666666667 257 650 c 0
 272.333333333 658.666666667 293.666666667 667.666666667 321 677 c 1
 315 648 l 1
EndSplineSet
EndChar

StartChar: u20A8
Encoding: 6 8360 6
Width: 800
Flags: HW
LayerCount: 2
Fore
SplineSet
714 86 m 0
 708.666666667 60 694.333333333 38.1666666667 671 20.5 c 128
 647.666666667 2.83333333333 623 -6 597 -6 c 0
 585 -6 569.666666667 -4 551 0 c 128
 532.333333333 4 520.666666667 6 516 6 c 0
 509.333333333 6 504 3.66666666667 500 -1 c 1
 521 100 l 1
 521.666666667 64.6666666667 529.333333333 39.6666666667 544 25 c 0
 556.666666667 12.3333333333 575.333333333 6 600 6 c 0
 614.666666667 6 629.166666667 11.5 643.5 22.5 c 128
 657.833333333 33.5 666.333333333 45.3333333333 669 58 c 0
 669.666666667 60 670 62.1666666667 670 64.5 c 128
 670 68 670 68 670 69 c 0
 670 82.3333333333 663.333333333 95 650 107 c 0
 640.666666667 115.666666667 625.333333333 125.666666667 604 137 c 0
 584.666666667 149 573.666666667 156 571 158 c 0
 553.666666667 171.333333333 545 187 545 205 c 0
 545 213 545.666666667 219.333333333 547 224 c 0
 551.666666667 248.666666667 563.666666667 268.666666667 583 284 c 128
 602.333333333 299.333333333 624.333333333 307 649 307 c 0
 661 307 671.833333333 306 681.5 304 c 128
 691.166666667 302 702 300 714 298 c 0
 722 298 727.666666667 301 731 307 c 1
 741 307 l 1
 721 213 l 1
 712 213 l 1
 712 244.333333333 706.666666667 266.333333333 696 279 c 128
 685.333333333 291.666666667 668.333333333 298 645 298 c 0
 631 298 617.666666667 293.833333333 605 285.5 c 128
 592.333333333 277.166666667 585.166666667 269 583.5 261 c 128
 581.833333333 253 581 246.333333333 581 241 c 0
 581 223.666666667 592 208.333333333 614 195 c 0
 621.333333333 190.333333333 634.666666667 183 654 173 c 0
 675.333333333 160.333333333 689.333333333 150.666666667 696 144 c 0
 709.333333333 131.333333333 716 116.666666667 716 100 c 0
 716 97.3333333333 715.333333333 92.6666666667 714 86 c 0
448 4 m 1
 333 4 l 1
 226 216 l 1
 174 214 l 1
 144 80 l 2
 142.666666667 72.6666666667 141.5 66.3333333333 140.5 61 c 128
 139.5 55.6666666667 139 49.6666666667 139 43 c 0
 139 29.6666666667 141.833333333 21.6666666667 147.5 19 c 128
 153.166666667 16.3333333333 164 15 180 15 c 2
 195 15 l 1
 193 4 l 1
 10 4 l 1
 12 15 l 1
 22 15 l 2
 41.3333333333 15 54.6666666667 17.6666666667 62 23 c 0
 74 31.6666666667 83.3333333333 50.6666666667 90 80 c 2
 152 374 l 2
 154.666666667 384.666666667 156 394.666666667 156 404 c 0
 156 417.333333333 152.666666667 425.666666667 146 429 c 128
 139.333333333 432.333333333 127.666666667 434 111 434 c 2
 99 433 l 1
 102 446 l 1
 260 446 l 2
 316 446 357.5 440 384.5 428 c 128
 411.5 416 425 394.666666667 425 364 c 0
 425 356 424 347 422 337 c 0
 416 310.333333333 402.666666667 287.666666667 382 269 c 0
 358 247 325.333333333 231.333333333 284 222 c 1
 305.333333333 180 321.666666667 148.666666667 333 128 c 0
 367 64 387.333333333 30.3333333333 394 27 c 0
 399.333333333 23 407.666666667 19.8333333333 419 17.5 c 128
 430.333333333 15.1666666667 440.666666667 13.3333333333 450 12 c 1
 448 4 l 1
354 326 m 0
 356 334 357 342.333333333 357 351 c 0
 357 373.666666667 350.666666667 391.333333333 338 404 c 0
 322.666666667 419.333333333 298.666666667 427 266 427 c 0
 254.666666667 427 239 425.333333333 219 422 c 1
 178 232 l 1
 182 231.333333333 186 231 190 231 c 128
 196 231 196 231 203 231 c 0
 241.666666667 231 275.166666667 240.333333333 303.5 259 c 128
 331.833333333 277.666666667 348.666666667 300 354 326 c 0
EndSplineSet
EndChar

StartChar: percent.taml
Encoding: 7 -1 7
Width: 581
Flags: HW
LayerCount: 2
Fore
SplineSet
532 157 m 0
 522 108.333333333 503 71.3333333333 475 46 c 0
 451.666666667 24.6666666667 427 14 401 14 c 0
 389.666666667 14 380.666666667 15.3333333333 374 18 c 0
 350.666666667 27.3333333333 339 50 339 86 c 0
 339 99.3333333333 341 115.666666667 345 135 c 0
 353.666666667 175 368 207.666666667 388 233 c 0
 414.666666667 266.333333333 443.333333333 283 474 283 c 0
 490.666666667 283 504.333333333 278.333333333 515 269 c 0
 530.333333333 255.666666667 538 235 538 207 c 0
 538 193 536 176.333333333 532 157 c 0
533 504 m 1
 141 12 l 1
 101 12 l 1
 492 504 l 1
 533 504 l 1
293 383 m 0
 284.333333333 343 270 310.333333333 250 285 c 0
 223.333333333 251.666666667 194.666666667 235 164 235 c 0
 147.333333333 235 133.666666667 239.666666667 123 249 c 0
 107.666666667 262.333333333 100 283 100 311 c 0
 100 325 102 341.666666667 106 361 c 0
 116 409.666666667 135 446.666666667 163 472 c 0
 186.333333333 493.333333333 211 504 237 504 c 0
 248.333333333 504 257.333333333 502.666666667 264 500 c 0
 287.333333333 490.666666667 299 468 299 432 c 0
 299 418.666666667 297 402.333333333 293 383 c 0
484 119 m 0
 488 138.333333333 490 155 490 169 c 0
 490 190.333333333 485.166666667 206.333333333 475.5 217 c 128
 465.833333333 227.666666667 454 233 440 233 c 0
 417.333333333 233 402.333333333 216.333333333 395 183 c 0
 391 163 389 145.666666667 389 131 c 0
 389 86.3333333333 406.333333333 64 441 64 c 0
 461.666666667 64 476 82.3333333333 484 119 c 0
243 335 m 0
 247 355 249 372.333333333 249 387 c 0
 249 431.666666667 231.666666667 454 197 454 c 0
 176.333333333 454 162 435.666666667 154 399 c 0
 150 379.666666667 148 363.333333333 148 350 c 0
 148 328 152.833333333 311.666666667 162.5 301 c 128
 172.166666667 290.333333333 184.333333333 285 199 285 c 0
 221.666666667 285 236.333333333 301.666666667 243 335 c 0
EndSplineSet
EndChar

StartChar: ampersand.taml
Encoding: 8 -1 8
Width: 505
Flags: HW
LayerCount: 2
Fore
SplineSet
392 286 m 1
 524 286 l 1
 521 274 l 1
 505 274 490.666666667 270 478 262 c 0
 470 256 460.666666667 247 450 235 c 0
 446.666666667 231 438.333333333 220 425 202 c 0
 403 172 375.333333333 140.333333333 342 107 c 1
 348.666666667 96.3333333333 355.166666667 87.5 361.5 80.5 c 128
 367.833333333 73.5 375 67 383 61 c 0
 396.333333333 52.3333333333 410 48 424 48 c 0
 454 48 476.666666667 63.6666666667 492 95 c 1
 503 86 l 1
 489 57.3333333333 472.333333333 35.6666666667 453 21 c 128
 433.666666667 6.33333333333 412.333333333 -1 389 -1 c 0
 373 -1 355.666666667 3.66666666667 337 13 c 0
 329 17.6666666667 321.166666667 23.8333333333 313.5 31.5 c 128
 305.833333333 39.1666666667 297.333333333 49 288 61 c 1
 260 40.3333333333 232.666666667 24.6666666667 206 14 c 128
 179.333333333 3.33333333333 155.666666667 -2 135 -2 c 0
 103 -2 78 8 60 28 c 0
 48 42 42 58.3333333333 42 77 c 0
 42 105.666666667 57 136.666666667 87 170 c 0
 110.333333333 195.333333333 150.666666667 221.666666667 208 249 c 1
 202 276.333333333 199 297.666666667 199 313 c 0
 199 322.333333333 200 332.666666667 202 344 c 0
 208.666666667 375.333333333 224.666666667 400.5 250 419.5 c 128
 275.333333333 438.5 303.666666667 448 335 448 c 0
 355.666666667 448 372.666666667 442.333333333 386 431 c 128
 399.333333333 419.666666667 406 405 406 387 c 0
 406 383.666666667 405.333333333 378.666666667 404 372 c 0
 399.333333333 350 387.666666667 330.5 369 313.5 c 128
 350.333333333 296.5 319 277.666666667 275 257 c 1
 285 229 294.166666667 205.166666667 302.5 185.5 c 128
 310.833333333 165.833333333 320.666666667 146 332 126 c 1
 376 169.333333333 402.333333333 206.666666667 411 238 c 0
 415 259.333333333 407.666666667 271.333333333 389 274 c 1
 392 286 l 1
269 278 m 1
 299 291.333333333 321.833333333 305.333333333 337.5 320 c 128
 353.166666667 334.666666667 363 352.333333333 367 373 c 0
 367.666666667 375.666666667 368 379.666666667 368 385 c 0
 368 397 364.5 406.833333333 357.5 414.5 c 128
 350.5 422.166666667 341.333333333 426 330 426 c 0
 312.666666667 426 297.333333333 419.666666667 284 407 c 0
 273.333333333 396.333333333 266.5 385 263.5 373 c 128
 260.5 361 259 350.333333333 259 341 c 0
 259 326.333333333 262.333333333 305.333333333 269 278 c 1
275 79 m 1
 258.333333333 112.333333333 245.666666667 139.5 237 160.5 c 128
 228.333333333 181.5 220.333333333 204 213 228 c 1
 197 219.333333333 184.166666667 211.666666667 174.5 205 c 128
 164.833333333 198.333333333 155.333333333 190 146 180 c 0
 124.666666667 156.666666667 114 131.333333333 114 104 c 0
 114 89.3333333333 117.333333333 75.6666666667 124 63 c 0
 130 54.3333333333 137.166666667 47.5 145.5 42.5 c 128
 153.833333333 37.5 163.333333333 35 174 35 c 0
 186 35 200.666666667 38.6666666667 218 46 c 128
 235.333333333 53.3333333333 254.333333333 64.3333333333 275 79 c 1
EndSplineSet
EndChar

StartChar: quoteright.taml
Encoding: 9 -1 9
Width: 250
Flags: HW
LayerCount: 2
Fore
SplineSet
267 550 m 0
 247 502.666666667 213.666666667 465.333333333 167 438 c 0
 151.666666667 429.333333333 130.333333333 420.333333333 103 411 c 1
 110 440 l 1
 150 452.666666667 183.333333333 475 210 507 c 0
 233.333333333 535.666666667 241 553.333333333 233 560 c 0
 229.666666667 562.666666667 226 564 222 564 c 0
 220 564 210.666666667 559.666666667 194 551 c 0
 186.666666667 547 179.666666667 545 173 545 c 0
 165.666666667 545 159.666666667 547 155 551 c 0
 142.333333333 561 136 575.333333333 136 594 c 0
 136 611.333333333 142 627 154 641 c 0
 162 650.333333333 171 657 181 661 c 128
 191 665 201.666666667 667 213 667 c 0
 220.333333333 667 229 666.333333333 239 665 c 128
 249 663.666666667 257.833333333 656.666666667 265.5 644 c 128
 273.166666667 631.333333333 277 615.666666667 277 597 c 0
 277 581 273.666666667 565.333333333 267 550 c 0
EndSplineSet
EndChar

StartChar: parenleft.taml
Encoding: 10 -1 10
Width: 280
Flags: HW
LayerCount: 2
Fore
SplineSet
249 -246 m 1
 241 -253 l 1
 185.666666667 -218.333333333 144.5 -173.5 117.5 -118.5 c 128
 90.5 -63.5 77 -1.33333333333 77 68 c 0
 77 109.333333333 81.3333333333 149.666666667 90 189 c 0
 110 283 147.666666667 367.666666667 203 443 c 0
 262.333333333 523 337.666666667 586 429 632 c 1
 434 626 l 1
 350 569.333333333 281.833333333 485.166666667 229.5 373.5 c 128
 177.166666667 261.833333333 151 150.666666667 151 40 c 0
 151 -20 159 -74.1666666667 175 -122.5 c 128
 191 -170.833333333 215.666666667 -212 249 -246 c 1
EndSplineSet
EndChar

StartChar: parenright.taml
Encoding: 11 -1 11
Width: 280
Flags: HW
LayerCount: 2
Fore
SplineSet
230 189 m 0
 210 95 172.333333333 10.6666666667 117 -64 c 0
 57.6666666667 -144 -17.6666666667 -207 -109 -253 c 1
 -113 -246 l 1
 -26.3333333333 -184.666666667 43 -96.6666666667 95 18 c 0
 144.333333333 126 169 234.666666667 169 344 c 0
 169 404.666666667 161 458.833333333 145 506.5 c 128
 129 554.166666667 104.666666667 594 72 626 c 1
 79 632 l 1
 133.666666667 596.666666667 174.666666667 551 202 495 c 128
 229.333333333 439 243 377.333333333 243 310 c 0
 243 268.666666667 238.666666667 228.333333333 230 189 c 0
EndSplineSet
EndChar

StartChar: asterisk.taml
Encoding: 12 -1 12
Width: 600
Flags: HW
LayerCount: 2
Fore
SplineSet
378 401 m 1
 362 392.333333333 346.333333333 381.666666667 331 369 c 0
 311.666666667 353 292.666666667 337 274 321 c 0
 266.666666667 315.666666667 259 313 251 313 c 0
 239 313 231.333333333 318 228 328 c 0
 224.666666667 336 225.666666667 344.666666667 231 354 c 128
 236.333333333 363.333333333 242.833333333 369.333333333 250.5 372 c 128
 258.166666667 374.666666667 281.666666667 381 321 391 c 0
 342.333333333 396.333333333 360 402.666666667 374 410 c 1
 364.666666667 415.333333333 353.666666667 420 341 424 c 0
 317 430.666666667 293.333333333 437.666666667 270 445 c 0
 260 448.333333333 255 456.333333333 255 469 c 0
 255 475.666666667 257.333333333 483 262 491 c 0
 271.333333333 501 282.333333333 506 295 506 c 0
 302.333333333 506 308 503.666666667 312 499 c 0
 330.666666667 474.333333333 343 458 349 450 c 0
 359 436.666666667 370 425.666666667 382 417 c 1
 383.333333333 423.666666667 384 430.5 384 437.5 c 128
 384 448 384 448 384 454 c 0
 384 462 383.666666667 476.166666667 383 496.5 c 128
 382.333333333 516.833333333 382 529.666666667 382 535 c 0
 386.666666667 559 399.333333333 571 420 571 c 0
 435.333333333 571 443 561.666666667 443 543 c 0
 443 539 442.666666667 536 442 534 c 0
 432 512.666666667 423.666666667 495.333333333 417 482 c 0
 404.333333333 456 396 435 392 419 c 1
 409.333333333 428.333333333 429.333333333 442.333333333 452 461 c 0
 475 480 475 480 498 499 c 0
 503.333333333 502.333333333 509.333333333 504 516 504 c 0
 528.666666667 504 537.333333333 499.333333333 542 490 c 0
 544.666666667 480.666666667 543.166666667 471.333333333 537.5 462 c 128
 531.833333333 452.666666667 526.333333333 447.333333333 521 446 c 128
 515.666666667 444.666666667 491 438.666666667 447 428 c 0
 428.333333333 423.333333333 411 417.333333333 395 410 c 1
 407 402.666666667 422.333333333 396.166666667 441 390.5 c 128
 459.666666667 384.833333333 479.333333333 379 500 373 c 0
 510 369.666666667 515 362 515 350 c 0
 515 343.333333333 512.666666667 336.666666667 508 330 c 0
 499.333333333 319.333333333 488.333333333 314 475 314 c 0
 469 314 464 316.333333333 460 321 c 0
 453.333333333 328.333333333 440.666666667 343.333333333 422 366 c 0
 410 380.666666667 398.666666667 391.666666667 388 399 c 1
 386 385.666666667 385 374 385 364 c 0
 385 354.666666667 385.5 340.5 386.5 321.5 c 128
 387.5 302.5 388 290 388 284 c 0
 386 274 381.666666667 265.333333333 375 258 c 128
 368.333333333 250.666666667 360.666666667 247 352 247 c 0
 335.333333333 247 327 256.333333333 327 275 c 0
 327 279 327.333333333 282 328 284 c 0
 335.333333333 300.666666667 345 322 357 348 c 0
 367 368.666666667 374 386.333333333 378 401 c 1
EndSplineSet
EndChar

StartChar: plus.taml
Encoding: 13 -1 13
Width: 420
Flags: HW
LayerCount: 2
Fore
SplineSet
231 259 m 1
 247 334 l 1
 315 334 l 1
 299 259 l 1
 374 259 l 1
 360 191 l 1
 285 191 l 1
 269 116 l 1
 201 116 l 1
 217 191 l 1
 142 191 l 1
 156 259 l 1
 231 259 l 1
EndSplineSet
EndChar

StartChar: comma.taml
Encoding: 14 -1 14
Width: 220
Flags: HW
LayerCount: 2
Fore
SplineSet
161 34 m 0
 153 -4 132.666666667 -37 100 -65 c 0
 57.3333333333 -101.666666667 23 -120 -3 -120 c 1
 3 -93 l 1
 15 -93 35 -82.6666666667 63 -62 c 0
 97 -37.3333333333 116.666666667 -12 122 14 c 0
 123.333333333 22 120.333333333 26 113 26 c 0
 108.333333333 26 100.333333333 22.8333333333 89 16.5 c 128
 77.6666666667 10.1666666667 69.3333333333 7 64 7 c 0
 54.6666666667 7 46.3333333333 12 39 22 c 128
 31.6666666667 32 28 43.6666666667 28 57 c 0
 28 61.6666666667 28.3333333333 65 29 67 c 0
 32.3333333333 82.3333333333 41.3333333333 96 56 108 c 128
 70.6666666667 120 85.3333333333 126 100 126 c 0
 120 126 135.5 119 146.5 105 c 128
 157.5 91 163 74 163 54 c 0
 163 50 162.333333333 43.3333333333 161 34 c 0
EndSplineSet
EndChar

StartChar: hyphen.taml
Encoding: 15 -1 15
Width: 400
Flags: HW
LayerCount: 2
Fore
SplineSet
351 191 m 1
 71 191 l 1
 85 261 l 1
 365 261 l 1
 351 191 l 1
EndSplineSet
EndChar

StartChar: period.taml
Encoding: 16 -1 16
Width: 220
Flags: HW
LayerCount: 2
Fore
SplineSet
166 62 m 0
 162.666666667 44.6666666667 153.333333333 30 138 18 c 128
 122.666666667 6 106.333333333 0 89 0 c 0
 74.3333333333 0 62.3333333333 4.66666666667 53 14 c 128
 43.6666666667 23.3333333333 39 35.3333333333 39 50 c 0
 39 55.3333333333 39.3333333333 59.3333333333 40 62 c 0
 43.3333333333 79.3333333333 52.3333333333 94 67 106 c 128
 81.6666666667 118 97.6666666667 124 115 124 c 0
 130.333333333 124 142.833333333 119.166666667 152.5 109.5 c 128
 162.166666667 99.8333333333 167 87.6666666667 167 73 c 0
 167 68.3333333333 166.666666667 64.6666666667 166 62 c 0
EndSplineSet
EndChar

StartChar: slash.taml
Encoding: 18 -1 18
Width: 260
Flags: HW
LayerCount: 2
Fore
SplineSet
391 614 m 1
 1 -94 l 1
 -39 -94 l 1
 352 614 l 1
 391 614 l 1
EndSplineSet
EndChar

StartChar: zero.taml
Encoding: 19 -1 19
Width: 332
Flags: HW
LayerCount: 2
Fore
SplineSet
364 220 m 0
 352.666666667 165.333333333 332.666666667 117.333333333 304 76 c 0
 264.666666667 19.3333333333 218 -9 164 -9 c 0
 124.666666667 -9 95.6666666667 6.66666666667 77 38 c 0
 61.6666666667 64 54 98 54 140 c 0
 54 157.333333333 54.6666666667 170.833333333 56 180.5 c 128
 57.3333333333 190.166666667 59.6666666667 203.333333333 63 220 c 0
 75 274 95 322 123 364 c 0
 161.666666667 421.333333333 208 450 262 450 c 0
 302 450 331.333333333 434.333333333 350 403 c 0
 365.333333333 377 373 342.666666667 373 300 c 0
 373 282 372.333333333 268.166666667 371 258.5 c 128
 369.666666667 248.833333333 367.333333333 236 364 220 c 0
300 220 m 0
 304.666666667 243.333333333 308.166666667 265.666666667 310.5 287 c 128
 312.833333333 308.333333333 314 324.333333333 314 335 c 0
 314 364.333333333 310 387.833333333 302 405.5 c 128
 294 423.166666667 279.333333333 432 258 432 c 0
 230 432 204.5 413.333333333 181.5 376 c 128
 158.5 338.666666667 140.333333333 286.666666667 127 220 c 0
 123 202 119.333333333 182.166666667 116 160.5 c 128
 112.666666667 138.833333333 111 119 111 101 c 0
 111 72.3333333333 115.166666667 49.6666666667 123.5 33 c 128
 131.833333333 16.3333333333 146.666666667 8 168 8 c 0
 204.666666667 8 236 36.6666666667 262 94 c 0
 276 125.333333333 288.666666667 167.333333333 300 220 c 0
EndSplineSet
EndChar

StartChar: one.taml
Encoding: 20 -1 20
Width: 332
Flags: HW
LayerCount: 2
Fore
SplineSet
78 0 m 1
 80 10 l 1
 103.333333333 10 119.333333333 12.3333333333 128 17 c 0
 141.333333333 24.3333333333 150.333333333 39.3333333333 155 62 c 2
 219 363 l 2
 220.333333333 369.666666667 221 375 221 379 c 0
 221 389 215 394 203 394 c 0
 197.666666667 394 193.666666667 393.666666667 191 393 c 0
 180.333333333 389 168.333333333 384.666666667 155 380 c 1
 157 389 l 1
 290 450 l 1
 294 448 l 1
 209 49 l 2
 208.333333333 46.3333333333 208 43.6666666667 208 41 c 128
 208 37 208 37 208 35 c 0
 208 25 211.833333333 18.3333333333 219.5 15 c 128
 227.166666667 11.6666666667 242 10 264 10 c 1
 262 0 l 1
 78 0 l 1
EndSplineSet
EndChar

StartChar: two.taml
Encoding: 21 -1 21
Width: 332
Flags: HW
LayerCount: 2
Fore
SplineSet
335 91 m 1
 279 0 l 1
 20 0 l 1
 22 8 l 1
 166 134 l 2
 237.333333333 195.333333333 278.666666667 252.333333333 290 305 c 0
 291.333333333 314.333333333 292 322 292 328 c 0
 292 348.666666667 287.333333333 364.666666667 278 376 c 0
 265.333333333 392 244.333333333 400 215 400 c 0
 188.333333333 400 164.666666667 390.333333333 144 371 c 0
 131.333333333 359 117.333333333 340 102 314 c 1
 88 317 l 1
 107.333333333 363.666666667 133.333333333 398.333333333 166 421 c 0
 194 440.333333333 224.666666667 450 258 450 c 0
 285.333333333 450 308.333333333 441.666666667 327 425 c 128
 345.666666667 408.333333333 355 385.666666667 355 357 c 0
 355 348.333333333 354 339.333333333 352 330 c 0
 345.333333333 299.333333333 328 267.333333333 300 234 c 0
 285.333333333 216.666666667 263 194.666666667 233 168 c 2
 96 51 l 1
 255 51 l 2
 271.666666667 51 284.5 54.3333333333 293.5 61 c 128
 302.5 67.6666666667 313.666666667 78.6666666667 327 94 c 1
 335 91 l 1
EndSplineSet
EndChar

StartChar: three.taml
Encoding: 22 -1 22
Width: 332
Flags: HW
LayerCount: 2
Fore
SplineSet
318 144 m 0
 308 97.3333333333 282.666666667 60.1666666667 242 32.5 c 128
 201.333333333 4.83333333333 154.333333333 -9 101 -9 c 0
 83 -9 69 -7.33333333333 59 -4 c 0
 39.6666666667 2 31.6666666667 13 35 29 c 0
 37 37 41.1666666667 42.8333333333 47.5 46.5 c 128
 53.8333333333 50.1666666667 60 52 66 52 c 0
 73.3333333333 52 90 43.6666666667 116 27 c 0
 129.333333333 18.3333333333 141.333333333 14 152 14 c 0
 181.333333333 14 206.333333333 24.6666666667 227 46 c 0
 245.666666667 64.6666666667 258 88.3333333333 264 117 c 0
 265.333333333 123.666666667 266 130 266 136 c 0
 266 158 259 176 245 190 c 0
 225 210 192.666666667 220 148 220 c 1
 150 229 l 1
 186.666666667 239 215.333333333 252 236 268 c 0
 261.333333333 287.333333333 277 311.666666667 283 341 c 0
 284.333333333 349 285 354.666666667 285 358 c 0
 285 372.666666667 280 385 270 395 c 128
 260 405 245.333333333 410 226 410 c 0
 199.333333333 410 174.333333333 400.666666667 151 382 c 0
 137 370.666666667 124 356.333333333 112 339 c 1
 103 342 l 1
 123 380.666666667 148.666666667 409.333333333 180 428 c 0
 204.666666667 442.666666667 230 450 256 450 c 0
 288.666666667 450 312.333333333 441.666666667 327 425 c 0
 337.666666667 412.333333333 343 396 343 376 c 0
 343 368.666666667 342.666666667 363.333333333 342 360 c 0
 338 341.333333333 329.666666667 324.833333333 317 310.5 c 128
 304.333333333 296.166666667 285 281.666666667 259 267 c 1
 277 258.333333333 290 250 298 242 c 0
 314 225.333333333 322 204 322 178 c 0
 322 170 322 170 322 162 c 0
 320 154 318.666666667 148 318 144 c 0
EndSplineSet
EndChar

StartChar: four.taml
Encoding: 23 -1 23
Width: 332
Flags: HW
LayerCount: 2
Fore
SplineSet
347 154 m 1
 338 111 l 1
 270 111 l 1
 246 0 l 1
 195 0 l 1
 219 111 l 1
 32 111 l 1
 41 154 l 1
 313 450 l 1
 342 450 l 1
 279 154 l 1
 347 154 l 1
227 154 m 1
 275 380 l 1
 280 380 l 2
 278 380 259 360.666666667 223 322 c 0
 190.333333333 286.666666667 156.666666667 250.333333333 122 213 c 0
 104 193 86 173.333333333 68 154 c 1
 227 154 l 1
EndSplineSet
EndChar

StartChar: five.taml
Encoding: 24 -1 24
Width: 332
Flags: HW
LayerCount: 2
Fore
SplineSet
202 388 m 1
 162 331 l 1
 198.666666667 325 225 318.666666667 241 312 c 0
 269 300.666666667 289.5 284.333333333 302.5 263 c 128
 315.5 241.666666667 322 222 322 204 c 0
 322 189.333333333 319.666666667 171.333333333 315 150 c 0
 305 104.666666667 280.333333333 66.8333333333 241 36.5 c 128
 201.666666667 6.16666666667 155.666666667 -9 103 -9 c 0
 77 -9 57.3333333333 -5.33333333333 44 2 c 128
 30.6666666667 9.33333333333 25.3333333333 19 28 31 c 0
 29.3333333333 39 32.6666666667 45.3333333333 38 50 c 128
 43.3333333333 54.6666666667 50.6666666667 57 60 57 c 0
 73.3333333333 57 91.6666666667 47.6666666667 115 29 c 0
 126.333333333 19.6666666667 137 15 147 15 c 0
 171 15 194 24.6666666667 216 44 c 0
 240.666666667 66 257 96 265 134 c 0
 267 144 268 153.333333333 268 162 c 0
 268 199.333333333 249 228.333333333 211 249 c 0
 179.666666667 265.666666667 144.333333333 274 105 274 c 0
 103 274 101.666666667 274.666666667 101 276 c 128
 100.333333333 277.333333333 101 279.666666667 103 283 c 2
 210 440 l 1
 349 440 l 1
 360 440 l 2
 366 440.666666667 373 443.333333333 381 448 c 0
 382.333333333 448.666666667 384.333333333 450.333333333 387 453 c 2
 350 394 l 2
 346.666666667 390 341 388 333 388 c 2
 202 388 l 1
EndSplineSet
EndChar

StartChar: six.taml
Encoding: 25 -1 25
Width: 332
Flags: HW
LayerCount: 2
Fore
SplineSet
394 455 m 1
 392 444 l 1
 335.333333333 435.333333333 284.333333333 411.666666667 239 373 c 0
 199.666666667 339 171.666666667 299.666666667 155 255 c 1
 177.666666667 267 194.833333333 275 206.5 279 c 128
 218.166666667 283 232.666666667 285 250 285 c 0
 279.333333333 285 302.833333333 276.166666667 320.5 258.5 c 128
 338.166666667 240.833333333 347 216.666666667 347 186 c 0
 347 175.333333333 345.333333333 161.666666667 342 145 c 0
 334 109 318.333333333 77.3333333333 295 50 c 0
 261.666666667 10.6666666667 219 -9 167 -9 c 0
 133.666666667 -9 107.333333333 1.33333333333 88 22 c 0
 66.6666666667 45.3333333333 56 78.6666666667 56 122 c 0
 56 139.333333333 56.5 151.833333333 57.5 159.5 c 128
 58.5 167.166666667 60.6666666667 178.666666667 64 194 c 0
 78.6666666667 263.333333333 117 323.666666667 179 375 c 0
 243.666666667 428.333333333 315.333333333 455 394 455 c 1
215 254 m 0
 201.666666667 254 189.5 252.5 178.5 249.5 c 128
 167.5 246.5 157.333333333 241 148 233 c 0
 142.666666667 229 137.666666667 222.166666667 133 212.5 c 128
 128.333333333 202.833333333 123.833333333 187.666666667 119.5 167 c 128
 115.166666667 146.333333333 113 125.666666667 113 105 c 0
 113 73 119.166666667 49 131.5 33 c 128
 143.833333333 17 160.333333333 9 181 9 c 0
 203 9 222.333333333 18.1666666667 239 36.5 c 128
 255.666666667 54.8333333333 268 82.3333333333 276 119 c 0
 280.666666667 141 283 159.666666667 283 175 c 0
 283 199 277.666666667 218.166666667 267 232.5 c 128
 256.333333333 246.833333333 239 254 215 254 c 0
EndSplineSet
EndChar

StartChar: seven.taml
Encoding: 26 -1 26
Width: 332
Flags: HW
LayerCount: 2
Fore
SplineSet
393 440 m 1
 390 430 l 1
 157 -5 l 1
 113 -5 l 1
 131 28.3333333333 149.333333333 62 168 96 c 0
 202.666666667 158.666666667 237.333333333 221.666666667 272 285 c 0
 310 354.333333333 329 389.666666667 329 391 c 2
 185 391 l 2
 165.666666667 391 149.333333333 386.333333333 136 377 c 0
 126.666666667 370.333333333 113.666666667 357 97 337 c 1
 86 342 l 1
 147 440 l 1
 393 440 l 1
EndSplineSet
EndChar

StartChar: eight.taml
Encoding: 27 -1 27
Width: 332
Flags: HW
LayerCount: 2
Fore
SplineSet
185 207 m 1
 166.333333333 194.333333333 152.333333333 182.666666667 143 172 c 0
 127 153.333333333 116 130.666666667 110 104 c 0
 108 94.6666666667 107 86.3333333333 107 79 c 0
 107 32.3333333333 129.333333333 9 174 9 c 0
 194.666666667 9 213.5 15.8333333333 230.5 29.5 c 128
 247.5 43.1666666667 258.333333333 61.3333333333 263 84 c 0
 264.333333333 93.3333333333 265 100 265 104 c 0
 265 124 255 144 235 164 c 0
 230.333333333 168.666666667 213.666666667 183 185 207 c 1
58 97 m 0
 63.3333333333 123.666666667 75 146 93 164 c 0
 104.333333333 175.333333333 130.333333333 194.333333333 171 221 c 1
 154.333333333 238.333333333 142.666666667 251.333333333 136 260 c 0
 120 280 112 300 112 320 c 0
 112 328 113 336.666666667 115 346 c 0
 121.666666667 377.333333333 140 402.5 170 421.5 c 128
 200 440.5 230.666666667 450 262 450 c 256
 293.333333333 450 317.333333333 443 334 429 c 128
 350.666666667 415 359 396.666666667 359 374 c 0
 359 370.666666667 358.333333333 364.333333333 357 355 c 0
 351 327.666666667 336 304.333333333 312 285 c 0
 298.666666667 274.333333333 276.666666667 261.666666667 246 247 c 1
 273.333333333 223.666666667 292.666666667 202.666666667 304 184 c 128
 315.333333333 165.333333333 321 147 321 129 c 0
 321 124.333333333 320.5 119.166666667 319.5 113.5 c 128
 318.5 107.833333333 317.666666667 103.333333333 317 100 c 0
 311.666666667 74.6666666667 299 52.3333333333 279 33 c 0
 249.666666667 5 210.666666667 -9 162 -9 c 0
 127.333333333 -9 101 -0.666666666667 83 16 c 128
 65 32.6666666667 56 53.3333333333 56 78 c 0
 56 81.3333333333 56.6666666667 87.6666666667 58 97 c 0
167 364 m 0
 165.666666667 357.333333333 165 352.333333333 165 349 c 0
 165 330.333333333 173.333333333 311.666666667 190 293 c 0
 199.333333333 283 212.333333333 271.666666667 229 259 c 1
 250.333333333 271 266 282 276 292 c 0
 294.666666667 310.666666667 306.666666667 332.666666667 312 358 c 0
 313.333333333 366 314 372.333333333 314 377 c 0
 314 393 309.166666667 406 299.5 416 c 128
 289.833333333 426 274.666666667 431 254 431 c 0
 230 431 210.5 424.5 195.5 411.5 c 128
 180.5 398.5 171 382.666666667 167 364 c 0
EndSplineSet
EndChar

StartChar: nine.taml
Encoding: 28 -1 28
Width: 332
Flags: HW
LayerCount: 2
Fore
SplineSet
36 -15 m 1
 37 -1 l 1
 91.6666666667 7.66666666667 140 29.8333333333 182 65.5 c 128
 224 101.166666667 256.666666667 143.666666667 280 193 c 1
 243.333333333 169.666666667 208 158 174 158 c 0
 140.666666667 158 115.666666667 168.666666667 99 190 c 0
 85 208 78 231 78 259 c 0
 78 269 79 279 81 289 c 0
 91 335 112 373.333333333 144 404 c 128
 176 434.666666667 213.333333333 450 256 450 c 0
 290 450 317 438 337 414 c 128
 357 390 367 357.333333333 367 316 c 0
 367 300 365 282.333333333 361 263 c 0
 345 187.666666667 308.666666667 123.666666667 252 71 c 0
 190 13.6666666667 118 -15 36 -15 c 1
291 236 m 2
 297 262 l 2
 299.666666667 276.666666667 302.166666667 291.333333333 304.5 306 c 128
 306.833333333 320.666666667 308 333.333333333 308 344 c 0
 308 370 304 390 296 404 c 0
 285.333333333 422 268 431 244 431 c 0
 218 431 196.333333333 418.666666667 179 394 c 0
 165 374 154.666666667 347.666666667 148 315 c 0
 146.666666667 307 145.333333333 298.833333333 144 290.5 c 128
 142.666666667 282.166666667 142 274 142 266 c 0
 142 242.666666667 146.833333333 223.5 156.5 208.5 c 128
 166.166666667 193.5 182.666666667 186 206 186 c 0
 216.666666667 186 228.333333333 188.166666667 241 192.5 c 128
 253.666666667 196.833333333 264.666666667 202.166666667 274 208.5 c 128
 283.333333333 214.833333333 289 224 291 236 c 2
EndSplineSet
EndChar

StartChar: colon.taml
Encoding: 29 -1 29
Width: 235
Flags: HW
LayerCount: 2
Fore
SplineSet
231 332 m 0
 227 314.666666667 217.333333333 300 202 288 c 128
 186.666666667 276 170.333333333 270 153 270 c 0
 138.333333333 270 126.333333333 274.333333333 117 283 c 128
 107.666666667 291.666666667 103 303.666666667 103 319 c 0
 103 321 104.166666667 328 106.5 340 c 128
 108.833333333 352 117.333333333 364 132 376 c 128
 146.666666667 388 162.666666667 394 180 394 c 0
 195.333333333 394 207.833333333 389.166666667 217.5 379.5 c 128
 227.166666667 369.833333333 232 357.666666667 232 343 c 0
 232 338.333333333 231.666666667 334.666666667 231 332 c 0
171 52 m 0
 167.666666667 34.6666666667 158.333333333 20 143 8 c 128
 127.666666667 -4 111.333333333 -10 94 -10 c 0
 79.3333333333 -10 67.3333333333 -5.33333333333 58 4 c 128
 48.6666666667 13.3333333333 44 25.3333333333 44 40 c 0
 44 45.3333333333 44.3333333333 49.3333333333 45 52 c 0
 48.3333333333 69.3333333333 57.3333333333 84 72 96 c 128
 86.6666666667 108 102.666666667 114 120 114 c 0
 135.333333333 114 147.833333333 109.166666667 157.5 99.5 c 128
 167.166666667 89.8333333333 172 77.6666666667 172 63 c 0
 172 58.3333333333 171.666666667 54.6666666667 171 52 c 0
EndSplineSet
EndChar

StartChar: semicolon.taml
Encoding: 30 -1 30
Width: 235
Flags: HW
LayerCount: 2
Fore
SplineSet
225 332 m 0
 221 314.666666667 211.333333333 300 196 288 c 128
 180.666666667 276 164.333333333 270 147 270 c 0
 132.333333333 270 120.333333333 274.333333333 111 283 c 128
 101.666666667 291.666666667 97 303.666666667 97 319 c 0
 97 321 98.1666666667 328 100.5 340 c 128
 102.833333333 352 111.333333333 364 126 376 c 128
 140.666666667 388 156.666666667 394 174 394 c 0
 189.333333333 394 201.833333333 389.166666667 211.5 379.5 c 128
 221.166666667 369.833333333 226 357.666666667 226 343 c 0
 226 338.333333333 225.666666667 334.666666667 225 332 c 0
161 34 m 0
 153 -4 132.666666667 -37 100 -65 c 0
 57.3333333333 -101.666666667 23 -120 -3 -120 c 1
 1 -103 l 1
 12.3333333333 -103 32.6666666667 -91 62 -67 c 0
 96.6666666667 -39 116.666666667 -12 122 14 c 0
 123.333333333 22 120.333333333 26 113 26 c 0
 108.333333333 26 100.333333333 22.8333333333 89 16.5 c 128
 77.6666666667 10.1666666667 69.3333333333 7 64 7 c 0
 54.6666666667 7 46.3333333333 12 39 22 c 128
 31.6666666667 32 28 43.6666666667 28 57 c 0
 28 61.6666666667 28.3333333333 65 29 67 c 0
 32.3333333333 82.3333333333 41.3333333333 96 56 108 c 128
 70.6666666667 120 85.3333333333 126 100 126 c 0
 120 126 135.5 119 146.5 105 c 128
 157.5 91 163 74 163 54 c 0
 163 50 162.333333333 43.3333333333 161 34 c 0
EndSplineSet
EndChar

StartChar: less.taml
Encoding: 31 -1 31
Width: 527
Flags: HW
LayerCount: 2
Fore
SplineSet
437 48 m 1
 426 -6 l 1
 61 178 l 1
 71 227 l 1
 514 410 l 1
 503 356 l 1
 132 202 l 1
 437 48 l 1
EndSplineSet
EndChar

StartChar: equal.taml
Encoding: 32 -1 32
Width: 564
Flags: HW
LayerCount: 2
Fore
SplineSet
560 359 m 1
 549 307 l 1
 145 307 l 1
 156 359 l 1
 560 359 l 1
526 199 m 1
 515 147 l 1
 111 147 l 1
 122 199 l 1
 526 199 l 1
EndSplineSet
EndChar

StartChar: greater.taml
Encoding: 33 -1 33
Width: 527
Flags: HW
LayerCount: 2
Fore
SplineSet
33 48 m 1
 404 202 l 1
 99 356 l 1
 110 410 l 1
 475 227 l 1
 465 178 l 1
 22 -6 l 1
 33 48 l 1
EndSplineSet
EndChar

StartChar: question.taml
Encoding: 34 -1 34
Width: 398
Flags: HW
LayerCount: 2
Fore
SplineSet
182 42 m 1
 168 42 l 1
 172.666666667 63.3333333333 181 86.6666666667 193 112 c 0
 195 116.666666667 202.666666667 131 216 155 c 2
 250 207 l 2
 261.333333333 225.666666667 272.333333333 246.166666667 283 268.5 c 128
 293.666666667 290.833333333 300.333333333 308.166666667 303 320.5 c 128
 305.666666667 332.833333333 307 343.666666667 307 353 c 0
 307 375 302 392.333333333 292 405 c 0
 280 419.666666667 262 427 238 427 c 0
 220.666666667 427 202.833333333 422.166666667 184.5 412.5 c 128
 166.166666667 402.833333333 155.666666667 391.333333333 153 378 c 0
 151.666666667 372 153.333333333 365.333333333 158 358 c 0
 168.666666667 341.333333333 173 328 171 318 c 0
 169 310 165 302.666666667 159 296 c 128
 153 289.333333333 144.333333333 286 133 286 c 256
 121.666666667 286 113.5 288.833333333 108.5 294.5 c 128
 103.5 300.166666667 101 308.333333333 101 319 c 0
 101 322.333333333 101.666666667 328 103 336 c 0
 111 373.333333333 132.333333333 402.666666667 167 424 c 0
 195.666666667 442 226.333333333 451 259 451 c 0
 281.666666667 451 303 446.5 323 437.5 c 128
 343 428.5 357 417.666666667 365 405 c 0
 375.666666667 387.666666667 381 370.666666667 381 354 c 0
 381 345.333333333 379.166666667 332.333333333 375.5 315 c 128
 371.833333333 297.666666667 360.333333333 276.333333333 341 251 c 0
 327 232.333333333 309.666666667 213 289 193 c 0
 261.666666667 167.666666667 240.666666667 145 226 125 c 0
 209.333333333 102.333333333 194.666666667 74.6666666667 182 42 c 1
148 -95 m 0
 138.666666667 -95 130.5 -92.6666666667 123.5 -88 c 128
 116.5 -83.3333333333 113 -75.3333333333 113 -64 c 0
 113 -60 113.833333333 -54.5 115.5 -47.5 c 128
 117.166666667 -40.5 123.166666667 -32.6666666667 133.5 -24 c 128
 143.833333333 -15.3333333333 154.666666667 -11 166 -11 c 256
 177.333333333 -11 186.333333333 -15.3333333333 193 -24 c 128
 199.666666667 -32.6666666667 202 -42.6666666667 200 -54 c 0
 196.666666667 -67.3333333333 189.833333333 -77.5 179.5 -84.5 c 128
 169.166666667 -91.5 158.666666667 -95 148 -95 c 0
EndSplineSet
EndChar

StartChar: u0952
Encoding: 38 2386 38
Width: 10
Flags: HW
LayerCount: 2
Fore
SplineSet
-176 -359 m 1
 -628 -359 l 1
 -652 -302 l 1
 -200 -302 l 1
 -176 -359 l 1
2 0 m 1
 0 2 l 1
 2 0 l 1
2 0 m 1
 0 2 l 1
 2 0 l 1
EndSplineSet
EndChar

StartChar: u0B83
Encoding: 40 2947 40
Width: 510
Flags: HW
LayerCount: 2
Fore
SplineSet
299 444 m 0
 312.333333333 444 323.333333333 439.666666667 332 431 c 128
 340.666666667 422.333333333 345 411.333333333 345 398 c 0
 345 393.333333333 344.666666667 389.666666667 344 387 c 0
 341.333333333 371.666666667 333 358.333333333 319 347 c 128
 305 335.666666667 290.333333333 330 275 330 c 0
 261 330 249.833333333 334.5 241.5 343.5 c 128
 233.166666667 352.5 229 363.666666667 229 377 c 0
 229 381.666666667 229.333333333 385 230 387 c 0
 233.333333333 402.333333333 241.666666667 415.666666667 255 427 c 128
 268.333333333 438.333333333 283 444 299 444 c 0
83 120 m 0
 96.3333333333 120 107.166666667 115.833333333 115.5 107.5 c 128
 123.833333333 99.1666666667 128 88.3333333333 128 75 c 0
 128 69.6666666667 127.666666667 65.6666666667 127 63 c 0
 124.333333333 47.6666666667 116 34.3333333333 102 23 c 128
 88 11.6666666667 73.3333333333 6 58 6 c 0
 44 6 32.8333333333 10.5 24.5 19.5 c 128
 16.1666666667 28.5 12 39.6666666667 12 53 c 0
 12 57.6666666667 12.3333333333 61 13 63 c 0
 16.3333333333 78.3333333333 25 91.6666666667 39 103 c 128
 53 114.333333333 67.6666666667 120 83 120 c 0
379 120 m 0
 392.333333333 120 403.166666667 115.833333333 411.5 107.5 c 128
 419.833333333 99.1666666667 424 88.3333333333 424 75 c 0
 424 69.6666666667 423.666666667 65.6666666667 423 63 c 0
 420.333333333 47.6666666667 412 34.3333333333 398 23 c 128
 384 11.6666666667 369.333333333 6 354 6 c 0
 340 6 328.833333333 10.5 320.5 19.5 c 128
 312.166666667 28.5 308 39.6666666667 308 53 c 0
 308 57.6666666667 308.333333333 61 309 63 c 0
 312.333333333 78.3333333333 321 91.6666666667 335 103 c 128
 349 114.333333333 363.666666667 120 379 120 c 0
EndSplineSet
EndChar

StartChar: u0B85
Encoding: 41 2949 41
Width: 820
Flags: HW
AnchorPoint: "V" 425.167 456 basechar 0
AnchorPoint: "N" 425.167 -75 basechar 0
LayerCount: 2
Fore
SplineSet
709 -75 m 1
 634 -75 l 1
 679 135 l 1
 583 135 l 1
 547.666666667 91.6666666667 502.166666667 58.3333333333 446.5 35 c 128
 390.833333333 11.6666666667 331.333333333 0 268 0 c 0
 192.666666667 0 134.666666667 14.6666666667 94 44 c 0
 64.6666666667 65.3333333333 44 93.6666666667 32 129 c 0
 29.3333333333 137.666666667 31.1666666667 146.666666667 37.5 156 c 128
 43.8333333333 165.333333333 54.3333333333 170 69 170 c 2
 530 170 l 1
 557.333333333 202.666666667 574.666666667 237.666666667 582 275 c 0
 583.333333333 279.666666667 584.333333333 285.5 585 292.5 c 128
 585.666666667 299.5 586 305.666666667 586 311 c 0
 586 337 578.333333333 358 563 374 c 128
 547.666666667 390 526.333333333 401.333333333 499 408 c 1
 517 396 526 375.666666667 526 347 c 0
 526 338 526 338 526 330 c 0
 524 322 522.666666667 316 522 312 c 0
 516 282 503.666666667 258 485 240 c 0
 463 218.666666667 434 208 398 208 c 0
 372 208 352.666666667 215.833333333 340 231.5 c 128
 327.333333333 247.166666667 321 268 321 294 c 0
 321 299.333333333 321.5 305.5 322.5 312.5 c 128
 323.5 319.5 324.333333333 325 325 329 c 0
 332.333333333 363.666666667 349.333333333 392 376 414 c 0
 405.333333333 438 441 450 483 450 c 0
 535.666666667 450 576.333333333 438 605 414 c 128
 633.666666667 390 648 355 648 309 c 0
 648 293 646.166666667 276.166666667 642.5 258.5 c 128
 638.833333333 240.833333333 634.5 225.833333333 629.5 213.5 c 128
 624.5 201.166666667 617 186.666666667 607 170 c 1
 686 170 l 1
 746 450 l 1
 821 450 l 1
 709 -75 l 1
466 320 m 0
 468 329.333333333 469 338 469 346 c 0
 469 360.666666667 466.666666667 372.666666667 462 382 c 128
 457.333333333 391.333333333 451.333333333 397.666666667 444 401 c 0
 425.333333333 403.666666667 407.833333333 397.5 391.5 382.5 c 128
 375.166666667 367.5 364.666666667 349 360 327 c 0
 358.666666667 321.666666667 358 314.666666667 358 306 c 0
 358 290.666666667 362 279.333333333 370 272 c 128
 378 264.666666667 388 261 400 261 c 0
 416.666666667 261 431 267 443 279 c 128
 455 291 462.666666667 304.666666667 466 320 c 0
501 135 m 1
 93 135 l 2
 83.6666666667 135 77 133.5 73 130.5 c 128
 69 127.5 68.3333333333 122 71 114 c 0
 82.3333333333 90.6666666667 101.666666667 72.3333333333 129 59 c 0
 161.666666667 43 204.333333333 35 257 35 c 0
 303 35 347 43.6666666667 389 61 c 128
 431 78.3333333333 468.333333333 103 501 135 c 1
EndSplineSet
EndChar

StartChar: u0B86
Encoding: 42 2950 42
Width: 1010
Flags: HW
AnchorPoint: "V" 477.667 456 basechar 0
AnchorPoint: "N" 477.667 -250 basechar 0
LayerCount: 2
Fore
SplineSet
920 46 m 0
 900 -48.6666666667 853.333333333 -122.333333333 780 -175 c 0
 710.666666667 -225 628 -250 532 -250 c 0
 452.666666667 -250 391.833333333 -240.666666667 349.5 -222 c 128
 307.166666667 -203.333333333 286 -176 286 -140 c 0
 286 -136.666666667 286.666666667 -130.333333333 288 -121 c 0
 294 -93 311 -71.6666666667 339 -57 c 128
 367 -42.3333333333 399 -35 435 -35 c 0
 461 -35 485 -39.1666666667 507 -47.5 c 128
 529 -55.8333333333 546.666666667 -67.3333333333 560 -82 c 1
 546 -100 l 1
 532.666666667 -87.3333333333 514.833333333 -77.6666666667 492.5 -71 c 128
 470.166666667 -64.3333333333 447.333333333 -61 424 -61 c 0
 396 -61 372.833333333 -66.1666666667 354.5 -76.5 c 128
 336.166666667 -86.8333333333 325.833333333 -98.1666666667 323.5 -110.5 c 128
 321.166666667 -122.833333333 320 -130.666666667 320 -134 c 0
 320 -161.333333333 340 -182.333333333 380 -197 c 0
 413.333333333 -209 456.333333333 -215 509 -215 c 0
 592.333333333 -215 665.166666667 -190.166666667 727.5 -140.5 c 128
 789.833333333 -90.8333333333 828.666666667 -30 844 42 c 0
 846 49.3333333333 847.333333333 56.6666666667 848 64 c 128
 848.666666667 71.3333333333 849 79.3333333333 849 88 c 0
 849 113.333333333 843.333333333 132.5 832 145.5 c 128
 820.666666667 158.5 807 165 791 165 c 0
 778.333333333 165 767.333333333 161 758 153 c 1
 709 -75 l 1
 634 -75 l 1
 679 135 l 1
 583 135 l 1
 547.666666667 91.6666666667 502.166666667 58.3333333333 446.5 35 c 128
 390.833333333 11.6666666667 331.333333333 0 268 0 c 0
 192.666666667 0 134.666666667 14.6666666667 94 44 c 0
 64.6666666667 65.3333333333 44 93.6666666667 32 129 c 0
 29.3333333333 137.666666667 31.1666666667 146.666666667 37.5 156 c 128
 43.8333333333 165.333333333 54.3333333333 170 69 170 c 2
 530 170 l 1
 557.333333333 202.666666667 574.666666667 237.666666667 582 275 c 0
 583.333333333 279.666666667 584.333333333 285.5 585 292.5 c 128
 585.666666667 299.5 586 305.666666667 586 311 c 0
 586 337 578.333333333 358 563 374 c 128
 547.666666667 390 526.333333333 401.333333333 499 408 c 1
 517 396 526 375.666666667 526 347 c 0
 526 338 526 338 526 330 c 0
 524 322 522.666666667 316 522 312 c 0
 516 282 503.666666667 258 485 240 c 0
 463 218.666666667 434 208 398 208 c 0
 372 208 352.666666667 215.833333333 340 231.5 c 128
 327.333333333 247.166666667 321 268 321 294 c 0
 321 299.333333333 321.5 305.5 322.5 312.5 c 128
 323.5 319.5 324.333333333 325 325 329 c 0
 332.333333333 363.666666667 349.333333333 392 376 414 c 0
 405.333333333 438 441 450 483 450 c 0
 535.666666667 450 576.333333333 438 605 414 c 128
 633.666666667 390 648 355 648 309 c 0
 648 293 646.166666667 276.166666667 642.5 258.5 c 128
 638.833333333 240.833333333 634.5 225.833333333 629.5 213.5 c 128
 624.5 201.166666667 617 186.666666667 607 170 c 1
 686 170 l 1
 746 450 l 1
 821 450 l 1
 765 187 l 1
 784.333333333 203 805.666666667 211 829 211 c 0
 857.666666667 211 881 201 899 181 c 128
 917 161 926 133 926 97 c 0
 926 81 924 64 920 46 c 0
466 320 m 0
 468 329.333333333 469 338 469 346 c 0
 469 360.666666667 466.666666667 372.666666667 462 382 c 128
 457.333333333 391.333333333 451.333333333 397.666666667 444 401 c 0
 425.333333333 403.666666667 407.833333333 397.5 391.5 382.5 c 128
 375.166666667 367.5 364.666666667 349 360 327 c 0
 358.666666667 321.666666667 358 314.666666667 358 306 c 0
 358 290.666666667 362 279.333333333 370 272 c 128
 378 264.666666667 388 261 400 261 c 0
 416.666666667 261 431 267 443 279 c 128
 455 291 462.666666667 304.666666667 466 320 c 0
501 135 m 1
 93 135 l 2
 83.6666666667 135 77 133.5 73 130.5 c 128
 69 127.5 68.3333333333 122 71 114 c 0
 82.3333333333 90.6666666667 101.666666667 72.3333333333 129 59 c 0
 161.666666667 43 204.333333333 35 257 35 c 0
 303 35 347 43.6666666667 389 61 c 128
 431 78.3333333333 468.333333333 103 501 135 c 1
EndSplineSet
EndChar

StartChar: u0B87
Encoding: 43 2951 43
Width: 770
Flags: HW
AnchorPoint: "V" 372.5 634.659 basechar 0
AnchorPoint: "N" 372.5 -90 basechar 0
LayerCount: 2
Fore
SplineSet
336 320 m 0
 338 329.333333333 339 338 339 346 c 0
 339 360.666666667 336.666666667 372.666666667 332 382 c 128
 327.333333333 391.333333333 321.333333333 397.666666667 314 401 c 0
 295.333333333 403.666666667 277.833333333 397.5 261.5 382.5 c 128
 245.166666667 367.5 234.666666667 349 230 327 c 0
 228.666666667 321.666666667 228 314.666666667 228 306 c 0
 228 290.666666667 232 279.333333333 240 272 c 128
 248 264.666666667 258 261 270 261 c 0
 286.666666667 261 301 267 313 279 c 128
 325 291 332.666666667 304.666666667 336 320 c 0
289 -43 m 1
 313 -51 339.333333333 -55 368 -55 c 0
 402.666666667 -55 431.333333333 -45.8333333333 454 -27.5 c 128
 476.666666667 -9.16666666667 491 13.3333333333 497 40 c 0
 497.666666667 42 498 44.1666666667 498 46.5 c 128
 498 50 498 50 498 51 c 0
 498 63 494.333333333 74.5 487 85.5 c 128
 479.666666667 96.5 469.333333333 106.666666667 456 116 c 1
 412 47.3333333333 356.333333333 -5.66666666667 289 -43 c 1
99 79 m 1
 63 57 42 33 36 7 c 0
 35.3333333333 4.33333333333 35 0.666666666667 35 -4 c 0
 35 -19.3333333333 42.3333333333 -31.6666666667 57 -41 c 128
 71.6666666667 -50.3333333333 91.3333333333 -55 116 -55 c 0
 141.333333333 -55 167.666666667 -49.6666666667 195 -39 c 1
 167.666666667 -19.6666666667 144.666666667 3.66666666667 126 31 c 0
 117.333333333 43.6666666667 112.333333333 51.3333333333 111 54 c 0
 107 60.6666666667 103 69 99 79 c 1
134 99 m 1
 142 82.3333333333 151.666666667 65.6666666667 163 49 c 0
 184.333333333 21.6666666667 209 -1 237 -19 c 1
 303.666666667 19 358.333333333 72 401 140 c 1
 379 146 355.333333333 149 330 149 c 0
 298.666666667 149 266.166666667 144.666666667 232.5 136 c 128
 198.833333333 127.333333333 166 115 134 99 c 1
419 174 m 1
 431.666666667 198 441.333333333 225 448 255 c 0
 452 274.333333333 454 291.333333333 454 306 c 0
 454 336 446.833333333 358.833333333 432.5 374.5 c 128
 418.166666667 390.166666667 397 401.333333333 369 408 c 1
 387 396 396 375.666666667 396 347 c 0
 396 338 396 338 396 330 c 0
 394 322 392.666666667 316 392 312 c 0
 386 282 373.666666667 258 355 240 c 0
 333 218.666666667 304 208 268 208 c 0
 242 208 222.666666667 215.833333333 210 231.5 c 128
 197.333333333 247.166666667 191 268 191 294 c 0
 191 299.333333333 191.5 305.5 192.5 312.5 c 128
 193.5 319.5 194.333333333 325 195 329 c 0
 202.333333333 363.666666667 219.333333333 392 246 414 c 0
 275.333333333 438 311 450 353 450 c 0
 405.666666667 450 446.333333333 438 475 414 c 128
 503.666666667 390 518 355 518 309 c 0
 518 293 516 275.333333333 512 256 c 0
 505.333333333 222.666666667 494 189.666666667 478 157 c 1
 505.333333333 146.333333333 527.166666667 132.5 543.5 115.5 c 128
 559.833333333 98.5 568 79 568 57 c 0
 568 52.3333333333 567.333333333 46 566 38 c 0
 556.666666667 -4.66666666667 533.666666667 -36.6666666667 497 -58 c 128
 460.333333333 -79.3333333333 414.666666667 -90 360 -90 c 0
 318 -90 278.333333333 -81.6666666667 241 -65 c 1
 221.666666667 -72.3333333333 200.833333333 -78.3333333333 178.5 -83 c 128
 156.166666667 -87.6666666667 134.666666667 -90 114 -90 c 0
 79.3333333333 -90 51.5 -83.6666666667 30.5 -71 c 128
 9.5 -58.3333333333 -1 -38.6666666667 -1 -12 c 0
 -1 -4.66666666667 0.5 5.5 3.5 18.5 c 128
 6.5 31.5 15.3333333333 46.5 30 63.5 c 128
 44.6666666667 80.5 63.3333333333 96.3333333333 86 111 c 1
 70 156.333333333 62 203.333333333 62 252 c 0
 62 277.333333333 64.6666666667 303.333333333 70 330 c 0
 91.3333333333 429.333333333 141 507.666666667 219 565 c 0
 291.666666667 618.333333333 375 645 469 645 c 0
 556.333333333 645 624.333333333 621 673 573 c 128
 721.666666667 525 746 456.333333333 746 367 c 0
 746 328.333333333 741.666666667 288.333333333 733 247 c 0
 721 192.333333333 702.666666667 136.333333333 678 79 c 0
 648.666666667 11 617.666666667 -45.3333333333 585 -90 c 1
 561 -79 l 1
 581 -53 602.666666667 -15.6666666667 626 33 c 0
 657.333333333 98.3333333333 679.666666667 162.333333333 693 225 c 0
 700.333333333 260.333333333 704 292 704 320 c 0
 704 398.666666667 681.166666667 460.5 635.5 505.5 c 128
 589.833333333 550.5 529.333333333 573 454 573 c 0
 368.666666667 573 292.833333333 549.166666667 226.5 501.5 c 128
 160.166666667 453.833333333 119.333333333 394.666666667 104 324 c 0
 102 312.666666667 100.333333333 301.666666667 99 291 c 128
 97.6666666667 280.333333333 97 269 97 257 c 0
 97 213.666666667 105 171.333333333 121 130 c 1
 152.333333333 145.333333333 187.833333333 157.666666667 227.5 167 c 128
 267.166666667 176.333333333 304 181 338 181 c 0
 368 181 395 178.666666667 419 174 c 1
EndSplineSet
EndChar

StartChar: u0B88
Encoding: 44 2952 44
Width: 520
Flags: HW
AnchorPoint: "V" 240.5 456 basechar 0
AnchorPoint: "N" 240.5 0 basechar 0
LayerCount: 2
Fore
SplineSet
464 225 m 0
 461.333333333 213 454.833333333 202.666666667 444.5 194 c 128
 434.166666667 185.333333333 422.666666667 181 410 181 c 0
 386.666666667 181 375 192.333333333 375 215 c 0
 375 219.666666667 375.833333333 225.666666667 377.5 233 c 128
 379.166666667 240.333333333 385 248.333333333 395 257 c 128
 405 265.666666667 416.333333333 270 429 270 c 0
 453 270 465 258 465 234 c 0
 465 230 464.666666667 227 464 225 c 0
473 415 m 1
 373 415 l 1
 285 0 l 1
 210 0 l 1
 298 415 l 1
 123 415 l 1
 35 0 l 1
 0 0 l 1
 96 450 l 1
 481 450 l 1
 473 415 l 1
214 225 m 0
 211.333333333 213 204.833333333 202.666666667 194.5 194 c 128
 184.166666667 185.333333333 172.666666667 181 160 181 c 0
 136.666666667 181 125 192.333333333 125 215 c 0
 125 219.666666667 125.833333333 225.666666667 127.5 233 c 128
 129.166666667 240.333333333 135 248.333333333 145 257 c 128
 155 265.666666667 166.333333333 270 179 270 c 0
 203 270 215 258 215 234 c 0
 215 230 214.666666667 227 214 225 c 0
EndSplineSet
EndChar

StartChar: u0B89
Encoding: 45 2953 45
Width: 810
Flags: HW
AnchorPoint: "V" 387 456 basechar 0
AnchorPoint: "N" 387 0 basechar 0
LayerCount: 2
Fore
SplineSet
735 0 m 2
 79 0 l 2
 56.3333333333 0 39.5 4.83333333333 28.5 14.5 c 128
 17.5 24.1666666667 12 36.6666666667 12 52 c 0
 12 71.3333333333 20.6666666667 88.6666666667 38 104 c 128
 55.3333333333 119.333333333 78 127 106 127 c 2
 233 127 l 2
 263 127 291 141.333333333 317 170 c 0
 340.333333333 196 355.666666667 225.333333333 363 258 c 0
 367 278 369 296.333333333 369 313 c 0
 369 346.333333333 359.833333333 371.666666667 341.5 389 c 128
 323.166666667 406.333333333 293 415 251 415 c 0
 217.666666667 415 185.833333333 405.333333333 155.5 386 c 128
 125.166666667 366.666666667 108.333333333 345.666666667 105 323 c 1
 127 351 155 365 189 365 c 0
 213 365 231.5 357.5 244.5 342.5 c 128
 257.5 327.5 264 308.333333333 264 285 c 0
 264 277 263 268.333333333 261 259 c 0
 254.333333333 227 239.5 201.833333333 216.5 183.5 c 128
 193.5 165.166666667 166.333333333 156 135 156 c 0
 107.666666667 156 88 164 76 180 c 128
 64 196 58 217.666666667 58 245 c 0
 58 252.333333333 58.6666666667 261.166666667 60 271.5 c 128
 61.3333333333 281.833333333 63 292.666666667 65 304 c 0
 73 342.666666667 95.3333333333 376 132 404 c 0
 172.666666667 434.666666667 219.666666667 450 273 450 c 0
 327.666666667 450 369 437.666666667 397 413 c 128
 425 388.333333333 439 354.333333333 439 311 c 0
 439 303.666666667 438.666666667 295.666666667 438 287 c 128
 437.333333333 278.333333333 436 270 434 262 c 0
 408.666666667 146 339.333333333 88 226 88 c 2
 126 88 l 2
 110.666666667 88 98.5 84.5 89.5 77.5 c 128
 80.5 70.5 76 62.6666666667 76 54 c 0
 76 38 88 30 112 30 c 2
 741 30 l 2
 755 30 762 25.6666666667 762 17 c 0
 762 13 759.5 9.16666666667 754.5 5.5 c 128
 749.5 1.83333333333 743 0 735 0 c 2
200 277 m 0
 200 289 195.833333333 298.833333333 187.5 306.5 c 128
 179.166666667 314.166666667 169 318 157 318 c 0
 135 318 114.333333333 306 95 282 c 1
 93 272.666666667 92 263.666666667 92 255 c 0
 92 238.333333333 95.8333333333 225 103.5 215 c 128
 111.166666667 205 122.333333333 200 137 200 c 0
 155 200 170 208.5 182 225.5 c 128
 194 242.5 200 259.666666667 200 277 c 0
EndSplineSet
EndChar

StartChar: u0B8A
Encoding: 46 2954 46
Width: 1300
Flags: HW
AnchorPoint: "V" 659 456 basechar 0
AnchorPoint: "N" 659 0 basechar 0
LayerCount: 2
Fore
SplineSet
1298 415 m 1
 1198 415 l 1
 1123 60 l 1
 1048 60 l 1
 1123 415 l 1
 1008 415 l 1
 933 60 l 1
 858 60 l 1
 912 314 l 2
 913.333333333 322 914 328.333333333 914 333 c 0
 914 357.666666667 903.166666667 377.5 881.5 392.5 c 128
 859.833333333 407.5 829.666666667 415 791 415 c 0
 739.666666667 415 692 401.666666667 648 375 c 0
 608.666666667 351 586.333333333 326.666666667 581 302 c 1
 591.666666667 313.333333333 606.333333333 322.333333333 625 329 c 128
 643.666666667 335.666666667 664 339 686 339 c 0
 716 339 740.333333333 329.666666667 759 311 c 128
 777.666666667 292.333333333 787 267.666666667 787 237 c 0
 787 229 787 229 787 222 c 0
 785 214 783.666666667 208 783 204 c 0
 773.666666667 159.333333333 757.333333333 124.166666667 734 98.5 c 128
 710.666666667 72.8333333333 680.666666667 60 644 60 c 0
 606 60 577 71.3333333333 557 94 c 128
 537 116.666666667 527 149.333333333 527 192 c 0
 527 212 527.333333333 224.666666667 528 230 c 0
 531.333333333 242 533.333333333 250.666666667 534 256 c 0
 547.333333333 316 577.666666667 363.333333333 625 398 c 128
 672.333333333 432.666666667 727.333333333 450 790 450 c 0
 850.666666667 450 896.333333333 442 927 426 c 0
 952.333333333 412.666666667 966.666666667 395.666666667 970 375 c 1
 986 450 l 1
 1306 450 l 1
 1298 415 l 1
1175 0 m 2
 79 0 l 2
 56.3333333333 0 39.5 4.83333333333 28.5 14.5 c 128
 17.5 24.1666666667 12 36.6666666667 12 52 c 0
 12 71.3333333333 20.6666666667 88.6666666667 38 104 c 128
 55.3333333333 119.333333333 78 127 106 127 c 2
 233 127 l 2
 263 127 291 141.333333333 317 170 c 0
 340.333333333 196 355.666666667 225.333333333 363 258 c 0
 367 278 369 296.333333333 369 313 c 0
 369 346.333333333 359.833333333 371.666666667 341.5 389 c 128
 323.166666667 406.333333333 293 415 251 415 c 0
 217.666666667 415 185.833333333 405.333333333 155.5 386 c 128
 125.166666667 366.666666667 108.333333333 345.666666667 105 323 c 1
 127 351 155 365 189 365 c 0
 213 365 231.5 357.5 244.5 342.5 c 128
 257.5 327.5 264 308.333333333 264 285 c 0
 264 277 263 268.333333333 261 259 c 0
 254.333333333 227 239.5 201.833333333 216.5 183.5 c 128
 193.5 165.166666667 166.333333333 156 135 156 c 0
 107.666666667 156 88 164 76 180 c 128
 64 196 58 217.666666667 58 245 c 0
 58 252.333333333 58.6666666667 261.166666667 60 271.5 c 128
 61.3333333333 281.833333333 63 292.666666667 65 304 c 0
 73 342.666666667 95.3333333333 376 132 404 c 0
 172.666666667 434.666666667 219.666666667 450 273 450 c 0
 327.666666667 450 369 437.666666667 397 413 c 128
 425 388.333333333 439 354.333333333 439 311 c 0
 439 303.666666667 438.666666667 295.666666667 438 287 c 128
 437.333333333 278.333333333 436 270 434 262 c 0
 408.666666667 146 339.333333333 88 226 88 c 2
 126 88 l 2
 110.666666667 88 98.5 84.5 89.5 77.5 c 128
 80.5 70.5 76 62.6666666667 76 54 c 0
 76 38 88 30 112 30 c 2
 1181 30 l 2
 1195 30 1202 25.6666666667 1202 17 c 0
 1202 13 1199.5 9.16666666667 1194.5 5.5 c 128
 1189.5 1.83333333333 1183 0 1175 0 c 2
705 205 m 0
 706.333333333 213 707 219 707 223 c 0
 707 241 701.666666667 256.666666667 691 270 c 128
 680.333333333 283.333333333 666.333333333 290 649 290 c 0
 631 290 614.5 285.166666667 599.5 275.5 c 128
 584.5 265.833333333 573.333333333 254 566 240 c 1
 564 230 563 219.333333333 563 208 c 0
 563 184.666666667 567.833333333 164.5 577.5 147.5 c 128
 587.166666667 130.5 602 122 622 122 c 0
 642.666666667 122 660.333333333 130.166666667 675 146.5 c 128
 689.666666667 162.833333333 699.666666667 182.333333333 705 205 c 0
200 277 m 0
 200 289 195.833333333 298.833333333 187.5 306.5 c 128
 179.166666667 314.166666667 169 318 157 318 c 0
 135 318 114.333333333 306 95 282 c 1
 93 272.666666667 92 263.666666667 92 255 c 0
 92 238.333333333 95.8333333333 225 103.5 215 c 128
 111.166666667 205 122.333333333 200 137 200 c 0
 155 200 170 208.5 182 225.5 c 128
 194 242.5 200 259.666666667 200 277 c 0
EndSplineSet
EndChar

StartChar: u0B8E
Encoding: 47 2958 47
Width: 640
Flags: HW
AnchorPoint: "V" 335.5 456 basechar 0
AnchorPoint: "N" 335.5 0 basechar 0
LayerCount: 2
Fore
SplineSet
628 415 m 1
 528 415 l 1
 440 0 l 1
 365 0 l 1
 453 415 l 1
 311 415 l 2
 251 415 199.666666667 396.333333333 157 359 c 0
 122.333333333 328.333333333 100 293.666666667 90 255 c 1
 100.666666667 266.333333333 115.833333333 276 135.5 284 c 128
 155.166666667 292 175.333333333 296 196 296 c 0
 229.333333333 296 255.166666667 286.5 273.5 267.5 c 128
 291.833333333 248.5 301 222.666666667 301 190 c 0
 301 179 301 179 301 169 c 0
 299 161.666666667 297.666666667 156.666666667 297 154 c 0
 287 107.333333333 270.333333333 70.6666666667 247 44 c 0
 221 14.6666666667 189 0 151 0 c 0
 73.6666666667 0 35 44 35 132 c 0
 35 154 38 179 44 207 c 0
 60 281.666666667 91.8333333333 340.833333333 139.5 384.5 c 128
 187.166666667 428.166666667 244 450 310 450 c 2
 636 450 l 1
 628 415 l 1
221 152 m 0
 222.333333333 156.666666667 223 163.666666667 223 173 c 0
 223 193 217.666666667 210.333333333 207 225 c 128
 196.333333333 239.666666667 182 247 164 247 c 0
 144.666666667 247 127.166666667 241.833333333 111.5 231.5 c 128
 95.8333333333 221.166666667 84 207.666666667 76 191 c 1
 72 173 70 156.333333333 70 141 c 0
 70 116.333333333 75.1666666667 96.6666666667 85.5 82 c 128
 95.8333333333 67.3333333333 111.666666667 60 133 60 c 0
 155 60 174 69.1666666667 190 87.5 c 128
 206 105.833333333 216.333333333 127.333333333 221 152 c 0
EndSplineSet
EndChar

StartChar: u0B8F
Encoding: 48 2959 48
Width: 640
Flags: HW
AnchorPoint: "V" 335.5 456 basechar 0
AnchorPoint: "N" 335.5 -140 basechar 0
LayerCount: 2
Fore
SplineSet
628 415 m 1
 528 415 l 1
 440 0 l 1
 245 -140 l 1
 185 -140 l 1
 365 0 l 1
 453 415 l 1
 311 415 l 2
 251 415 199.666666667 396.333333333 157 359 c 0
 122.333333333 328.333333333 100 293.666666667 90 255 c 1
 100.666666667 266.333333333 115.833333333 276 135.5 284 c 128
 155.166666667 292 175.333333333 296 196 296 c 0
 229.333333333 296 255.166666667 286.5 273.5 267.5 c 128
 291.833333333 248.5 301 222.666666667 301 190 c 0
 301 179 301 179 301 169 c 0
 299 161.666666667 297.666666667 156.666666667 297 154 c 0
 287 107.333333333 270.333333333 70.6666666667 247 44 c 0
 221 14.6666666667 189 0 151 0 c 0
 73.6666666667 0 35 44 35 132 c 0
 35 154 38 179 44 207 c 0
 60 281.666666667 91.8333333333 340.833333333 139.5 384.5 c 128
 187.166666667 428.166666667 244 450 310 450 c 2
 636 450 l 1
 628 415 l 1
221 152 m 0
 222.333333333 156.666666667 223 163.666666667 223 173 c 0
 223 193 217.666666667 210.333333333 207 225 c 128
 196.333333333 239.666666667 182 247 164 247 c 0
 144.666666667 247 127.166666667 241.833333333 111.5 231.5 c 128
 95.8333333333 221.166666667 84 207.666666667 76 191 c 1
 72 173 70 156.333333333 70 141 c 0
 70 116.333333333 75.1666666667 96.6666666667 85.5 82 c 128
 95.8333333333 67.3333333333 111.666666667 60 133 60 c 0
 155 60 174 69.1666666667 190 87.5 c 128
 206 105.833333333 216.333333333 127.333333333 221 152 c 0
EndSplineSet
EndChar

StartChar: u0B90
Encoding: 49 2960 49
Width: 650
Flags: HW
AnchorPoint: "V" 313.5 456 basechar 0
AnchorPoint: "N" 313.5 -177 basechar 0
LayerCount: 2
Fore
SplineSet
612 292 m 0
 604.666666667 259.333333333 592.666666667 229.333333333 576 202 c 0
 555.333333333 168.666666667 530 144.666666667 500 130 c 0
 461.333333333 112 403.5 101.166666667 326.5 97.5 c 128
 249.5 93.8333333333 197.333333333 87.3333333333 170 78 c 0
 153.333333333 72 137.666666667 61.3333333333 123 46 c 0
 103 24.6666666667 90 0.333333333333 84 -27 c 0
 82.6666666667 -32.3333333333 81.6666666667 -38.5 81 -45.5 c 128
 80.3333333333 -52.5 80 -58.6666666667 80 -64 c 0
 80 -87.3333333333 85 -105.833333333 95 -119.5 c 128
 105 -133.166666667 120.666666667 -140 142 -140 c 0
 164.666666667 -140 187 -130.666666667 209 -112 c 128
 231 -93.3333333333 244 -74.3333333333 248 -55 c 2
 262 8 l 1
 332 8 l 1
 319 -53 l 2
 317.666666667 -61 317 -67 317 -71 c 0
 317 -90.3333333333 323 -107.166666667 335 -121.5 c 128
 347 -135.833333333 365 -143 389 -143 c 0
 420.333333333 -143 444.666666667 -129.333333333 462 -102 c 0
 476.666666667 -78.6666666667 484 -50.6666666667 484 -18 c 0
 484 5.33333333333 480 23 472 35 c 1
 521 55 l 1
 529.666666667 35.6666666667 534 15 534 -7 c 0
 534 -51 521 -89 495 -121 c 0
 465 -158.333333333 425 -177 375 -177 c 0
 346.333333333 -177 324.333333333 -172.166666667 309 -162.5 c 128
 293.666666667 -152.833333333 283.666666667 -139.666666667 279 -123 c 1
 267.666666667 -137.666666667 249.333333333 -150.333333333 224 -161 c 128
 198.666666667 -171.666666667 172.666666667 -177 146 -177 c 0
 99.3333333333 -177 64.8333333333 -167.5 42.5 -148.5 c 128
 20.1666666667 -129.5 9 -102.666666667 9 -68 c 0
 9 -56 10.6666666667 -42.3333333333 14 -27 c 0
 21.3333333333 8.33333333333 35.6666666667 37 57 59 c 0
 75 77.6666666667 97 91.6666666667 123 101 c 0
 163 115.666666667 210.333333333 125.333333333 265 130 c 0
 374.333333333 140 439.333333333 149.666666667 460 159 c 128
 480.666666667 168.333333333 499.666666667 190.666666667 517 226 c 0
 529.666666667 251.333333333 538.666666667 276 544 300 c 0
 545.333333333 305.333333333 546.333333333 312.833333333 547 322.5 c 128
 547.666666667 332.166666667 548 337.333333333 548 338 c 0
 548 361.333333333 542.333333333 380 531 394 c 128
 519.666666667 408 502 415 478 415 c 0
 458 415 440.333333333 405.333333333 425 386 c 0
 413 371.333333333 405.333333333 356 402 340 c 2
 375 214 l 1
 305 214 l 1
 331 335 l 2
 331.666666667 337.666666667 332 342 332 348 c 0
 332 365.333333333 326.666666667 380 316 392 c 0
 302 407.333333333 280.333333333 415 251 415 c 0
 217.666666667 415 185.833333333 405.333333333 155.5 386 c 128
 125.166666667 366.666666667 108.333333333 345.666666667 105 323 c 1
 127 351 155 365 189 365 c 0
 213 365 231.5 357.5 244.5 342.5 c 128
 257.5 327.5 264 308.333333333 264 285 c 0
 264 277 263 268.333333333 261 259 c 0
 254.333333333 227 239.5 201.833333333 216.5 183.5 c 128
 193.5 165.166666667 166.333333333 156 135 156 c 0
 107.666666667 156 88 164 76 180 c 128
 64 196 58 217.666666667 58 245 c 0
 58 252.333333333 58.6666666667 261.166666667 60 271.5 c 128
 61.3333333333 281.833333333 63 292.666666667 65 304 c 0
 73 344 95 377.666666667 131 405 c 0
 170.333333333 435 217.666666667 450 273 450 c 0
 311 450 340 444 360 432 c 0
 376 422.666666667 385.666666667 409.666666667 389 393 c 1
 400.333333333 413 415.333333333 427.5 434 436.5 c 128
 452.666666667 445.5 473.333333333 450 496 450 c 0
 577.333333333 450 618 413.333333333 618 340 c 0
 618 325.333333333 616 309.333333333 612 292 c 0
200 277 m 0
 200 289 195.833333333 298.833333333 187.5 306.5 c 128
 179.166666667 314.166666667 169 318 157 318 c 0
 135 318 114.333333333 306 95 282 c 1
 93 272.666666667 92 263.666666667 92 255 c 0
 92 238.333333333 95.8333333333 225 103.5 215 c 128
 111.166666667 205 122.333333333 200 137 200 c 0
 155 200 170 208.5 182 225.5 c 128
 194 242.5 200 259.666666667 200 277 c 0
EndSplineSet
EndChar

StartChar: u0B92
Encoding: 50 2962 50
Width: 700
Flags: HW
AnchorPoint: "V" 331 456 basechar 0
AnchorPoint: "N" 331 -250 basechar 0
LayerCount: 2
Fore
SplineSet
615 213 m 0
 604.333333333 163.666666667 585.666666667 125 559 97 c 128
 532.333333333 69 500.666666667 55 464 55 c 0
 440 55 422.666666667 61 412 73 c 128
 401.333333333 85 396 100.666666667 396 120 c 0
 396 126.666666667 396.5 134 397.5 142 c 128
 398.5 150 400.333333333 159 403 169 c 1
 385 133 376 103.666666667 376 81 c 0
 376 59 385.666666667 43.3333333333 405 34 c 0
 420.333333333 26.6666666667 443.666666667 23 475 23 c 2
 551 23 l 1
 543 -16 l 1
 487 -16 l 2
 459 -16 433.333333333 -37.6666666667 410 -81 c 0
 391 -118 391 -118 372 -155 c 0
 354.666666667 -185.666666667 332.166666667 -209.166666667 304.5 -225.5 c 128
 276.833333333 -241.833333333 240.666666667 -250 196 -250 c 0
 149.333333333 -250 113.333333333 -240.166666667 88 -220.5 c 128
 62.6666666667 -200.833333333 50 -175.333333333 50 -144 c 0
 50 -136.666666667 51 -129 53 -121 c 0
 60.3333333333 -87.6666666667 74 -60.6666666667 94 -40 c 128
 114 -19.3333333333 138 -9 166 -9 c 1
 170 -49 l 1
 150 -49 132.666666667 -55 118 -67 c 128
 103.333333333 -79 93.3333333333 -97 88 -121 c 0
 87.3333333333 -123.666666667 87 -126.333333333 87 -129 c 128
 87 -133 87 -133 87 -135 c 0
 87 -158.333333333 97.6666666667 -177.5 119 -192.5 c 128
 140.333333333 -207.5 171 -215 211 -215 c 0
 249 -215 278.333333333 -200.666666667 299 -172 c 0
 307 -160.666666667 321 -130.666666667 341 -82 c 0
 351.666666667 -54 362.666666667 -34.3333333333 374 -23 c 0
 382.666666667 -14.3333333333 394.333333333 -7.66666666667 409 -3 c 1
 389 1.66666666667 374.166666667 11.1666666667 364.5 25.5 c 128
 354.833333333 39.8333333333 350 56.6666666667 350 76 c 0
 350 110.666666667 361.833333333 147.833333333 385.5 187.5 c 128
 409.166666667 227.166666667 433 251 457 259 c 1
 473 248 l 1
 459.666666667 238.666666667 448.833333333 224.333333333 440.5 205 c 128
 432.166666667 185.666666667 428 167 428 149 c 0
 428 136.333333333 430.166666667 126.333333333 434.5 119 c 128
 438.833333333 111.666666667 446 108 456 108 c 0
 477.333333333 108 494.833333333 116.833333333 508.5 134.5 c 128
 522.166666667 152.166666667 532.666666667 177.333333333 540 210 c 0
 542.666666667 221.333333333 544 233.666666667 544 247 c 0
 544 295 525.333333333 335 488 367 c 128
 450.666666667 399 407.666666667 415 359 415 c 0
 297.666666667 415 244 402.833333333 198 378.5 c 128
 152 354.166666667 117.666666667 317 95 267 c 1
 104.333333333 277 117 285.166666667 133 291.5 c 128
 149 297.833333333 166 301 184 301 c 0
 214 301 237.833333333 292.833333333 255.5 276.5 c 128
 273.166666667 260.166666667 282 238.666666667 282 212 c 0
 282 204 281 195.333333333 279 186 c 0
 271 148 255.666666667 117.5 233 94.5 c 128
 210.333333333 71.5 182 60 148 60 c 0
 113.333333333 60 87 70.8333333333 69 92.5 c 128
 51 114.166666667 42 142 42 176 c 0
 42 190.666666667 43.3333333333 204.333333333 46 217 c 0
 62 289.666666667 96.3333333333 346 149 386 c 0
 205.666666667 428.666666667 281.333333333 450 376 450 c 0
 457.333333333 450 519.333333333 431.666666667 562 395 c 0
 600.666666667 361.666666667 620 317.666666667 620 263 c 0
 620 255.666666667 619.666666667 247.5 619 238.5 c 128
 618.333333333 229.5 617 221 615 213 c 0
203 184 m 0
 204.333333333 193.333333333 205 200 205 204 c 0
 205 220 200.833333333 233.5 192.5 244.5 c 128
 184.166666667 255.5 172.666666667 261 158 261 c 0
 140 261 124.5 257 111.5 249 c 128
 98.5 241 88.3333333333 230 81 216 c 0
 79 208 78 199.666666667 78 191 c 0
 78 169.666666667 82.8333333333 151.333333333 92.5 136 c 128
 102.166666667 120.666666667 116.666666667 113 136 113 c 0
 153.333333333 113 167.666666667 119.666666667 179 133 c 128
 190.333333333 146.333333333 198.333333333 163.333333333 203 184 c 0
EndSplineSet
EndChar

StartChar: u0B93
Encoding: 51 2963 51
Width: 700
Flags: HW
AnchorPoint: "V" 331 456 basechar 0
AnchorPoint: "N" 331 -250 basechar 0
LayerCount: 2
Fore
SplineSet
615 213 m 0
 604.333333333 163.666666667 585.666666667 125 559 97 c 128
 532.333333333 69 500.666666667 55 464 55 c 0
 440 55 422.666666667 61 412 73 c 128
 401.333333333 85 396 100.666666667 396 120 c 0
 396 126.666666667 396.5 134 397.5 142 c 128
 398.5 150 400.333333333 159 403 169 c 1
 384.333333333 131.666666667 375 102.333333333 375 81 c 0
 375 59 384.666666667 43.3333333333 404 34 c 0
 419.333333333 26.6666666667 443 23 475 23 c 2
 551 23 l 1
 543 -16 l 1
 487 -16 l 2
 459 -16 433.333333333 -37.6666666667 410 -81 c 0
 391 -118 391 -118 372 -155 c 0
 354.666666667 -185.666666667 332.166666667 -209.166666667 304.5 -225.5 c 128
 276.833333333 -241.833333333 240.666666667 -250 196 -250 c 0
 150 -250 114.166666667 -240.333333333 88.5 -221 c 128
 62.8333333333 -201.666666667 50 -176.333333333 50 -145 c 0
 50 -137 51 -129 53 -121 c 0
 60.3333333333 -87.6666666667 74.6666666667 -61 96 -41 c 128
 117.333333333 -21 144.333333333 -11 177 -11 c 0
 205.666666667 -11 227.666666667 -17 243 -29 c 128
 258.333333333 -41 266 -56.3333333333 266 -75 c 0
 266 -78.3333333333 265 -85.1666666667 263 -95.5 c 128
 261 -105.833333333 256 -117 248 -129 c 128
 240 -141 229.333333333 -151.333333333 216 -160 c 1
 184 -142 l 1
 202 -126.666666667 212.666666667 -110.333333333 216 -93 c 0
 218.666666667 -80.3333333333 215.833333333 -69.8333333333 207.5 -61.5 c 128
 199.166666667 -53.1666666667 186.666666667 -49 170 -49 c 0
 150 -49 132.666666667 -55 118 -67 c 128
 103.333333333 -79 93.3333333333 -97 88 -121 c 0
 87.3333333333 -123.666666667 87 -126.333333333 87 -129 c 128
 87 -133 87 -133 87 -135 c 0
 87 -158.333333333 97.6666666667 -177.5 119 -192.5 c 128
 140.333333333 -207.5 171 -215 211 -215 c 256
 251 -215 281.666666667 -198.333333333 303 -165 c 1
 323 -120.333333333 338 -87.3333333333 348 -66 c 0
 356 -48.6666666667 363.666666667 -35.6666666667 371 -27 c 0
 381 -15.6666666667 393.666666667 -7.66666666667 409 -3 c 1
 389 1.66666666667 374.166666667 11.1666666667 364.5 25.5 c 128
 354.833333333 39.8333333333 350 56.6666666667 350 76 c 0
 350 110.666666667 361.833333333 147.833333333 385.5 187.5 c 128
 409.166666667 227.166666667 433 251 457 259 c 1
 473 248 l 1
 459.666666667 238.666666667 448.833333333 224.333333333 440.5 205 c 128
 432.166666667 185.666666667 428 167 428 149 c 0
 428 136.333333333 430.166666667 126.333333333 434.5 119 c 128
 438.833333333 111.666666667 446 108 456 108 c 0
 477.333333333 108 494.833333333 116.833333333 508.5 134.5 c 128
 522.166666667 152.166666667 532.666666667 177.333333333 540 210 c 0
 542.666666667 221.333333333 544 233.666666667 544 247 c 0
 544 295 525.333333333 335 488 367 c 128
 450.666666667 399 407.666666667 415 359 415 c 0
 297.666666667 415 244 402.833333333 198 378.5 c 128
 152 354.166666667 117.666666667 317 95 267 c 1
 104.333333333 277 117 285.166666667 133 291.5 c 128
 149 297.833333333 166 301 184 301 c 0
 214 301 237.833333333 292.833333333 255.5 276.5 c 128
 273.166666667 260.166666667 282 238.666666667 282 212 c 0
 282 204 281 195.333333333 279 186 c 0
 271 148 255.666666667 117.5 233 94.5 c 128
 210.333333333 71.5 182 60 148 60 c 0
 113.333333333 60 87 70.8333333333 69 92.5 c 128
 51 114.166666667 42 142 42 176 c 0
 42 190.666666667 43.3333333333 204.333333333 46 217 c 0
 62 289.666666667 96.3333333333 346 149 386 c 0
 205.666666667 428.666666667 281.333333333 450 376 450 c 0
 457.333333333 450 519.333333333 431.666666667 562 395 c 0
 600.666666667 361.666666667 620 317.666666667 620 263 c 0
 620 255.666666667 619.666666667 247.5 619 238.5 c 128
 618.333333333 229.5 617 221 615 213 c 0
203 184 m 0
 204.333333333 193.333333333 205 200 205 204 c 0
 205 220 200.833333333 233.5 192.5 244.5 c 128
 184.166666667 255.5 172.666666667 261 158 261 c 0
 140 261 124.5 257 111.5 249 c 128
 98.5 241 88.3333333333 230 81 216 c 0
 79 208 78 199.666666667 78 191 c 0
 78 169.666666667 82.8333333333 151.333333333 92.5 136 c 128
 102.166666667 120.666666667 116.666666667 113 136 113 c 0
 153.333333333 113 167.666666667 119.666666667 179 133 c 128
 190.333333333 146.333333333 198.333333333 163.333333333 203 184 c 0
EndSplineSet
EndChar

StartChar: u0B95
Encoding: 53 2965 53
Width: 620
Flags: HW
AnchorPoint: "V" 379 456 basechar 0
AnchorPoint: "N" 379 0 basechar 0
LayerCount: 2
Fore
SplineSet
546 121 m 0
 538 82.3333333333 520.333333333 52.5 493 31.5 c 128
 465.666666667 10.5 433.666666667 0 397 0 c 0
 363.666666667 0 339.333333333 5.16666666667 324 15.5 c 128
 308.666666667 25.8333333333 301 38.3333333333 301 53 c 1
 288.333333333 41 268 29.1666666667 240 17.5 c 128
 212 5.83333333333 183.666666667 0 155 0 c 0
 114.333333333 0 83.3333333333 8 62 24 c 0
 38 42 26 68.3333333333 26 103 c 0
 26 114 26 114 26 125 c 0
 28 132.333333333 29.3333333333 137.666666667 30 141 c 0
 38 177.666666667 56.6666666667 207.666666667 86 231 c 0
 109.333333333 249.666666667 129.333333333 259 146 259 c 1
 187 450 l 1
 512 450 l 1
 504 415 l 1
 404 415 l 1
 371 260 l 1
 444.333333333 260 493.333333333 251.333333333 518 234 c 0
 540 218.666666667 551 194.666666667 551 162 c 0
 551 154.666666667 550.666666667 148.833333333 550 144.5 c 128
 549.333333333 140.166666667 548 132.333333333 546 121 c 0
296 260 m 1
 329 415 l 1
 214 415 l 1
 181 260 l 1
 296 260 l 1
475 119 m 0
 478.333333333 135.666666667 480 148.666666667 480 158 c 0
 480 187.333333333 468.666666667 206.666666667 446 216 c 0
 431.333333333 222 404 225 364 225 c 1
 339 106 l 2
 337 96 336 86.6666666667 336 78 c 0
 336 49.3333333333 353 35 387 35 c 0
 406.333333333 35 423.666666667 41.3333333333 439 54 c 0
 457 69.3333333333 469 91 475 119 c 0
263 103 m 2
 289 225 l 1
 158 225 l 2
 142 225 125.333333333 218.666666667 108 206 c 0
 85.3333333333 188.666666667 70.3333333333 164 63 132 c 0
 61 122 60 112.666666667 60 104 c 0
 60 58 90.3333333333 35 151 35 c 0
 171.666666667 35 194.5 42 219.5 56 c 128
 244.5 70 259 85.6666666667 263 103 c 2
EndSplineSet
EndChar

StartChar: u0B95_u0BBF
Encoding: 54 -1 54
Width: 730
Flags: HW
AnchorPoint: "V" 379 715.243 basechar 0
AnchorPoint: "N" 379 0 basechar 0
LayerCount: 2
Fore
SplineSet
630 0 m 1
 600 0 l 1
 696 452 l 2
 697.333333333 456.666666667 698.333333333 462.333333333 699 469 c 128
 699.666666667 475.666666667 700 481.666666667 700 487 c 0
 700 535.666666667 679 575 637 605 c 128
 595 635 539.333333333 650 470 650 c 0
 370 650 290.333333333 630.333333333 231 591 c 0
 176.333333333 554.333333333 142 503.666666667 128 439 c 0
 124 419 122 398.666666667 122 378 c 0
 122 356.666666667 124.166666667 337.666666667 128.5 321 c 128
 132.833333333 304.333333333 140 290.333333333 150 279 c 1
 187 450 l 1
 512 450 l 1
 504 415 l 1
 404 415 l 1
 371 260 l 1
 444.333333333 260 493.333333333 251.333333333 518 234 c 0
 540 218.666666667 551 194.666666667 551 162 c 0
 551 154.666666667 550.666666667 148.833333333 550 144.5 c 128
 549.333333333 140.166666667 548 132.333333333 546 121 c 0
 538 82.3333333333 520.333333333 52.5 493 31.5 c 128
 465.666666667 10.5 433.666666667 0 397 0 c 0
 363.666666667 0 339.333333333 5.16666666667 324 15.5 c 128
 308.666666667 25.8333333333 301 38.3333333333 301 53 c 1
 288.333333333 41 268 29.1666666667 240 17.5 c 128
 212 5.83333333333 183.666666667 0 155 0 c 0
 114.333333333 0 83.3333333333 8 62 24 c 0
 38 42 26 68.3333333333 26 103 c 0
 26 114 26 114 26 125 c 0
 28 132.333333333 29.3333333333 137.666666667 30 141 c 0
 36.6666666667 171.666666667 50 197.333333333 70 218 c 0
 86 234 104.333333333 246 125 254 c 1
 111 268 100.833333333 284.833333333 94.5 304.5 c 128
 88.1666666667 324.166666667 85 345.666666667 85 369 c 0
 85 393 87.3333333333 414.666666667 92 434 c 0
 110 518 149 585.333333333 209 636 c 0
 279 695.333333333 371 725 485 725 c 0
 569.666666667 725 632.5 708.833333333 673.5 676.5 c 128
 714.5 644.166666667 735 596 735 532 c 0
 735 503.333333333 731.666666667 474.333333333 725 445 c 2
 630 0 l 1
296 260 m 1
 329 415 l 1
 214 415 l 1
 181 260 l 1
 296 260 l 1
475 119 m 0
 478.333333333 135.666666667 480 148.666666667 480 158 c 0
 480 187.333333333 468.666666667 206.666666667 446 216 c 0
 431.333333333 222 404 225 364 225 c 1
 339 106 l 2
 337 96 336 86.6666666667 336 78 c 0
 336 49.3333333333 353 35 387 35 c 0
 406.333333333 35 423.666666667 41.3333333333 439 54 c 0
 457 69.3333333333 469 91 475 119 c 0
263 103 m 2
 289 225 l 1
 158 225 l 2
 142 225 125.333333333 218.666666667 108 206 c 0
 85.3333333333 188.666666667 70.3333333333 164 63 132 c 0
 61 122 60 112.666666667 60 104 c 0
 60 58 90.3333333333 35 151 35 c 0
 171.666666667 35 194.5 42 219.5 56 c 128
 244.5 70 259 85.6666666667 263 103 c 2
EndSplineSet
EndChar

StartChar: u0B95_u0BC0
Encoding: 55 -1 55
Width: 621
Flags: HW
AnchorPoint: "V" 379 738.239 basechar 0
AnchorPoint: "N" 379 0 basechar 0
LayerCount: 2
Fore
SplineSet
577 603 m 0
 578.333333333 609.666666667 579 615 579 619 c 0
 579 634.333333333 573.833333333 647.166666667 563.5 657.5 c 128
 553.166666667 667.833333333 539.333333333 673 522 673 c 1
 504.666666667 669.666666667 489 661.333333333 475 648 c 128
 461 634.666666667 452.333333333 619.333333333 449 602 c 0
 448.333333333 598.666666667 448 594 448 588 c 0
 448 573.333333333 452.5 561.166666667 461.5 551.5 c 128
 470.5 541.833333333 482.333333333 537 497 537 c 0
 515.666666667 537 532.833333333 543.333333333 548.5 556 c 128
 564.166666667 568.666666667 573.666666667 584.333333333 577 603 c 0
296 260 m 1
 329 415 l 1
 214 415 l 1
 181 260 l 1
 296 260 l 1
475 119 m 0
 478.333333333 135.666666667 480 148.666666667 480 158 c 0
 480 187.333333333 468.666666667 206.666666667 446 216 c 0
 431.333333333 222 404 225 364 225 c 1
 339 106 l 2
 337 96 336 86.6666666667 336 78 c 0
 336 49.3333333333 353 35 387 35 c 0
 406.333333333 35 423.666666667 41.3333333333 439 54 c 0
 457 69.3333333333 469 91 475 119 c 0
263 103 m 2
 289 225 l 1
 158 225 l 2
 142 225 125.333333333 218.666666667 108 206 c 0
 85.3333333333 188.666666667 70.3333333333 164 63 132 c 0
 61 122 60 112.666666667 60 104 c 0
 60 58 90.3333333333 35 151 35 c 0
 171.666666667 35 194.5 42 219.5 56 c 128
 244.5 70 259 85.6666666667 263 103 c 2
125 254 m 1
 111 268 100.833333333 284.833333333 94.5 304.5 c 128
 88.1666666667 324.166666667 85 345.666666667 85 369 c 0
 85 393 87.3333333333 414.666666667 92 434 c 0
 112 528 158.333333333 604.333333333 231 663 c 128
 303.666666667 721.666666667 387 751 481 751 c 0
 525.666666667 751 561.333333333 744.333333333 588 731 c 0
 624.666666667 713 643 684 643 644 c 0
 643 635.333333333 642 625.333333333 640 614 c 0
 633.333333333 584 617 558.5 591 537.5 c 128
 565 516.5 535 506 501 506 c 0
 473 506 451.5 513.166666667 436.5 527.5 c 128
 421.5 541.833333333 414 560.333333333 414 583 c 0
 414 587 415.166666667 595.5 417.5 608.5 c 128
 419.833333333 621.5 426.833333333 636.5 438.5 653.5 c 128
 450.166666667 670.5 463 682.333333333 477 689 c 1
 441 692 l 1
 365 692 296 664.666666667 234 610 c 0
 176.666666667 560 141.333333333 503 128 439 c 0
 124 419 122 398.666666667 122 378 c 0
 122 356.666666667 124.166666667 337.666666667 128.5 321 c 128
 132.833333333 304.333333333 140 290.333333333 150 279 c 1
 187 450 l 1
 512 450 l 1
 504 415 l 1
 404 415 l 1
 371 260 l 1
 445 260 494.333333333 251.333333333 519 234 c 0
 541 218.666666667 552 194.333333333 552 161 c 0
 552 151 550.333333333 137.666666667 547 121 c 0
 539 82.3333333333 521.333333333 52.5 494 31.5 c 128
 466.666666667 10.5 434.333333333 0 397 0 c 0
 363.666666667 0 339.333333333 5.16666666667 324 15.5 c 128
 308.666666667 25.8333333333 301 38.3333333333 301 53 c 1
 288.333333333 41 268 29.1666666667 240 17.5 c 128
 212 5.83333333333 183.666666667 0 155 0 c 0
 114.333333333 0 83.3333333333 8 62 24 c 0
 38 42 26 68.3333333333 26 103 c 0
 26 114 26 114 26 125 c 0
 28 132.333333333 29.3333333333 137.666666667 30 141 c 0
 36.6666666667 171.666666667 50 197.333333333 70 218 c 0
 86 234 104.333333333 246 125 254 c 1
EndSplineSet
EndChar

StartChar: u0B95_u0BC1
Encoding: 56 -1 56
Width: 786
Flags: HW
AnchorPoint: "V" 379 456 basechar 0
AnchorPoint: "N" 379 0 basechar 0
LayerCount: 2
Fore
SplineSet
524 225 m 1
 499 106 l 2
 493.666666667 82.6666666667 474.666666667 60 442 38 c 0
 404 12.6666666667 361.666666667 0 315 0 c 0
 274.333333333 0 243.333333333 8 222 24 c 0
 198 42 186 68.3333333333 186 103 c 0
 186 114 186 114 186 125 c 0
 188 132.333333333 189.333333333 137.666666667 190 141 c 0
 198 177.666666667 216.666666667 207.666666667 246 231 c 0
 269.333333333 249.666666667 289.333333333 259 306 259 c 1
 347 450 l 1
 673 450 l 1
 665 415 l 1
 564 415 l 1
 531 260 l 1
 591.666666667 260 636 252.666666667 664 238 c 0
 696.666666667 220.666666667 713 191.333333333 713 150 c 0
 713 143.333333333 712.666666667 136 712 128 c 128
 711.333333333 120 710 112 708 104 c 0
 688.666666667 11.3333333333 652.666666667 -59 600 -107 c 0
 532 -169 431 -200 297 -200 c 0
 204.333333333 -200 135 -178.5 89 -135.5 c 128
 43 -92.5 20 -32.6666666667 20 44 c 0
 20 76.6666666667 24 112 32 150 c 0
 46 214.666666667 67.6666666667 273.5 97 326.5 c 128
 126.333333333 379.5 160.333333333 420.666666667 199 450 c 1
 216 430 l 1
 179.333333333 400 148.333333333 360.166666667 123 310.5 c 128
 97.6666666667 260.833333333 78.6666666667 206.333333333 66 147 c 0
 60 117.666666667 57 89.6666666667 57 63 c 0
 57 -7 76.3333333333 -61.6666666667 115 -101 c 0
 156.333333333 -143.666666667 217 -165 297 -165 c 0
 406.333333333 -165 489 -137 545 -81 c 0
 586.333333333 -39.6666666667 615.666666667 21.3333333333 633 102 c 0
 636.333333333 118.666666667 638 132 638 142 c 0
 638 169.333333333 629.166666667 190 611.5 204 c 128
 593.833333333 218 564.666666667 225 524 225 c 1
456 260 m 1
 489 415 l 1
 374 415 l 1
 341 260 l 1
 456 260 l 1
423 103 m 2
 449 225 l 1
 318 225 l 2
 302 225 285.333333333 218.666666667 268 206 c 0
 245.333333333 188.666666667 230.333333333 164 223 132 c 0
 221 122 220 112.666666667 220 104 c 0
 220 58 250.333333333 35 311 35 c 0
 331.666666667 35 354.5 42 379.5 56 c 128
 404.5 70 419 85.6666666667 423 103 c 2
EndSplineSet
EndChar

StartChar: u0B95_u0BC2
Encoding: 57 -1 57
Width: 871
VWidth: 348
Flags: HW
AnchorPoint: "V" 379 456 basechar 0
AnchorPoint: "N" 379 0 basechar 0
LayerCount: 2
Fore
SplineSet
163.922851562 226.353515625 m 0
 141.6015625 226.353515625 88.9365234375 205.775390625 69.7548828125 133.928710938 c 0
 52.3154296875 69.4052734375 77.7763671875 36.9697265625 145.088867188 36.9697265625 c 0
 187.291015625 36.9697265625 243.791992188 72.8935546875 252.860351562 104.283203125 c 0
 285.64453125 226.353515625 l 0
 163.922851562 226.353515625 l 0
295.061523438 261.23046875 m 0
 336.565429688 415.736328125 l 0
 229.4921875 415.736328125 l 0
 187.98828125 261.23046875 l 0
 295.061523438 261.23046875 l 0
407.366210938 34.5283203125 m 0
 427.943359375 34.5283203125 462.471679688 49.8740234375 483.747070312 128.697265625 c 0
 495.954101562 174.385742188 474.330078125 209.263671875 455.147460938 216.239257812 c 0
 431.083007812 198.799804688 400.390625 184.151367188 380.510742188 109.86328125 c 0
 363.072265625 45.3408203125 391.322265625 34.5283203125 407.366210938 34.5283203125 c 0
365.165039062 261.23046875 m 0
 469.447265625 261.23046875 l 0
 490.72265625 272.391601562 531.877929688 290.178710938 577.916015625 290.178710938 c 0
 732.073242188 290.178710938 715.33203125 183.10546875 706.961914062 151.3671875 c 0
 692.313476562 96.2607421875 644.53125 57.1982421875 606.514648438 34.5283203125 c 0
 755.440429688 34.5283203125 l 0
 746.373046875 -0.3486328125 l 0
 501.534179688 -0.3486328125 l 0
 510.951171875 34.5283203125 l 0
 576.869140625 68.359375 625.348632812 106.375976562 636.161132812 147.181640625 c 0
 653.599609375 212.750976562 625.697265625 249.372070312 576.520507812 249.372070312 c 0
 559.430664062 249.372070312 522.809570312 249.372070312 503.278320312 237.165039062 c 0
 516.532226562 216.936523438 551.060546875 191.475585938 530.482421875 115.094726562 c 0
 515.13671875 57.896484375 462.471679688 -0.697265625 409.458984375 -0.697265625 c 0
 374.930664062 -0.697265625 324.009765625 18.1357421875 347.028320312 104.631835938 c 0
 369.000976562 186.942382812 417.131835938 225.306640625 417.131835938 225.306640625 c 0
 355.049804688 225.306640625 l 0
 323.311523438 106.375976562 l 0
 308.314453125 50.9208984375 219.377929688 1.0458984375 146.135742188 1.0458984375 c 0
 61.03515625 1.0458984375 13.951171875 45.689453125 39.759765625 141.950195312 c 0
 62.779296875 227.399414062 134.974609375 259.834960938 155.901367188 259.834960938 c 0
 206.822265625 450.614257812 l 0
 508.858398438 450.614257812 l 0
 499.791015625 415.736328125 l 0
 406.668945312 415.736328125 l 0
 365.165039062 261.23046875 l 0
EndSplineSet
EndChar

StartChar: u0B95_u0BC2.old
Encoding: 58 -1 58
Width: 941
Flags: HW
AnchorPoint: "V" 379 456 basechar 0
AnchorPoint: "N" 379 0 basechar 0
LayerCount: 2
Fore
SplineSet
529 230 m 1
 538.333333333 241.333333333 554.5 250.5 577.5 257.5 c 128
 600.5 264.5 630.666666667 268 668 268 c 0
 702 268 730 261 752 247 c 0
 778 230.333333333 791 207 791 177 c 0
 791 169.666666667 790 161.333333333 788 152 c 0
 783.333333333 128.666666667 770 105.333333333 748 82 c 0
 730.666666667 64 710.666666667 48.3333333333 688 35 c 1
 848 35 l 1
 841 0 l 1
 578 0 l 1
 585 35 l 1
 610.333333333 47 632.333333333 60.6666666667 651 76 c 0
 679 98.6666666667 695.666666667 122.333333333 701 147 c 0
 702.333333333 155 703 160.666666667 703 164 c 0
 703 182 696.5 196.833333333 683.5 208.5 c 128
 670.5 220.166666667 653.666666667 226 633 226 c 0
 607.666666667 226 585.333333333 221.666666667 566 213 c 128
 546.666666667 204.333333333 534 193.666666667 528 181 c 1
 490 0 l 1
 415 0 l 1
 463 225 l 1
 364 225 l 1
 339 106 l 2
 333 78.6666666667 310.666666667 54.1666666667 272 32.5 c 128
 233.333333333 10.8333333333 194.333333333 0 155 0 c 0
 114.333333333 0 83.3333333333 8 62 24 c 0
 38 42 26 68.3333333333 26 103 c 0
 26 114 26 114 26 125 c 0
 28 132.333333333 29.3333333333 137.666666667 30 141 c 0
 38 177.666666667 56.6666666667 207.666666667 86 231 c 0
 109.333333333 249.666666667 129.333333333 259 146 259 c 1
 187 450 l 1
 512 450 l 1
 504 415 l 1
 404 415 l 1
 371 260 l 1
 494 260 l 2
 502 260 509.666666667 257.666666667 517 253 c 128
 524.333333333 248.333333333 528.333333333 240.666666667 529 230 c 1
296 260 m 1
 329 415 l 1
 214 415 l 1
 181 260 l 1
 296 260 l 1
263 103 m 2
 289 225 l 1
 158 225 l 2
 142 225 125.333333333 218.666666667 108 206 c 0
 85.3333333333 188.666666667 70.3333333333 164 63 132 c 0
 61 122 60 112.666666667 60 104 c 0
 60 58 90.3333333333 35 151 35 c 0
 171.666666667 35 194.5 42 219.5 56 c 128
 244.5 70 259 85.6666666667 263 103 c 2
EndSplineSet
EndChar

StartChar: u0B95_u0BCD
Encoding: 59 -1 59
Width: 620
Flags: HW
AnchorPoint: "N" 379 0 basechar 0
LayerCount: 2
Fore
SplineSet
436 582 m 0
 432.666666667 566.666666667 424.333333333 553.333333333 411 542 c 128
 397.666666667 530.666666667 383 525 367 525 c 0
 353.666666667 525 342.666666667 529.333333333 334 538 c 128
 325.333333333 546.666666667 321 557.666666667 321 571 c 0
 321 575.666666667 321.833333333 582.5 323.5 591.5 c 128
 325.166666667 600.5 333 610.666666667 347 622 c 128
 361 633.333333333 375.666666667 639 391 639 c 0
 405 639 416.166666667 634.5 424.5 625.5 c 128
 432.833333333 616.5 437 605.333333333 437 592 c 0
 437 587.333333333 436.666666667 584 436 582 c 0
546 121 m 0
 538 82.3333333333 520.333333333 52.5 493 31.5 c 128
 465.666666667 10.5 433.666666667 0 397 0 c 0
 363.666666667 0 339.333333333 5.16666666667 324 15.5 c 128
 308.666666667 25.8333333333 301 38.3333333333 301 53 c 1
 288.333333333 41 268 29.1666666667 240 17.5 c 128
 212 5.83333333333 183.666666667 0 155 0 c 0
 114.333333333 0 83.3333333333 8 62 24 c 0
 38 42 26 68.3333333333 26 103 c 0
 26 114 26 114 26 125 c 0
 28 132.333333333 29.3333333333 137.666666667 30 141 c 0
 38 177.666666667 56.6666666667 207.666666667 86 231 c 0
 109.333333333 249.666666667 129.333333333 259 146 259 c 1
 187 450 l 1
 512 450 l 1
 504 415 l 1
 404 415 l 1
 371 260 l 1
 444.333333333 260 493.333333333 251.333333333 518 234 c 0
 540 218.666666667 551 194.666666667 551 162 c 0
 551 154.666666667 550.666666667 148.833333333 550 144.5 c 128
 549.333333333 140.166666667 548 132.333333333 546 121 c 0
296 260 m 1
 329 415 l 1
 214 415 l 1
 181 260 l 1
 296 260 l 1
475 119 m 0
 478.333333333 135.666666667 480 148.666666667 480 158 c 0
 480 187.333333333 468.666666667 206.666666667 446 216 c 0
 431.333333333 222 404 225 364 225 c 1
 339 106 l 2
 337 96 336 86.6666666667 336 78 c 0
 336 49.3333333333 353 35 387 35 c 0
 406.333333333 35 423.666666667 41.3333333333 439 54 c 0
 457 69.3333333333 469 91 475 119 c 0
263 103 m 2
 289 225 l 1
 158 225 l 2
 142 225 125.333333333 218.666666667 108 206 c 0
 85.3333333333 188.666666667 70.3333333333 164 63 132 c 0
 61 122 60 112.666666667 60 104 c 0
 60 58 90.3333333333 35 151 35 c 0
 171.666666667 35 194.5 42 219.5 56 c 128
 244.5 70 259 85.6666666667 263 103 c 2
EndSplineSet
EndChar

StartChar: u0B99
Encoding: 60 2969 60
Width: 700
Flags: HW
AnchorPoint: "V" 422 456 basechar 0
AnchorPoint: "N" 422 0 basechar 0
LayerCount: 2
Fore
SplineSet
600 0 m 1
 150 0 l 1
 156 30 l 1
 272 30 l 1
 300.666666667 40.6666666667 324.166666667 58.1666666667 342.5 82.5 c 128
 360.833333333 106.833333333 373.333333333 134.666666667 380 166 c 0
 382 175.333333333 383 183.666666667 383 191 c 0
 383 209.666666667 377.833333333 224.166666667 367.5 234.5 c 128
 357.166666667 244.833333333 344.666666667 250 330 250 c 0
 317.333333333 250 305.666666667 246.833333333 295 240.5 c 128
 284.333333333 234.166666667 276 224 270 210 c 1
 253 130 l 1
 178 130 l 1
 238 415 l 1
 123 415 l 1
 35 0 l 1
 0 0 l 1
 96 450 l 1
 421 450 l 1
 413 415 l 1
 313 415 l 1
 282 267 l 1
 302 287 326.666666667 297 356 297 c 0
 382.666666667 297 405.5 288.166666667 424.5 270.5 c 128
 443.5 252.833333333 453 228 453 196 c 0
 453 186 453 186 453 176 c 0
 451 169.333333333 449.666666667 164.666666667 449 162 c 0
 441.666666667 127.333333333 429.333333333 99 412 77 c 128
 394.666666667 55 374 39.3333333333 350 30 c 1
 536 30 l 1
 626 450 l 1
 696 450 l 1
 600 0 l 1
EndSplineSet
EndChar

StartChar: u0B99_u0BBF
Encoding: 61 -1 61
Width: 795
Flags: HW
AnchorPoint: "V" 422 456 basechar 0
AnchorPoint: "N" 422 0 basechar 0
LayerCount: 2
Fore
SplineSet
695 0 m 1
 665 0 l 1
 772 505 l 2
 776 524.333333333 778 541.333333333 778 556 c 0
 778 612 745 640 679 640 c 0
 646.333333333 640 617.333333333 630.5 592 611.5 c 128
 566.666666667 592.5 550 565 542 529 c 0
 540 517.666666667 539 507.666666667 539 499 c 0
 539 477 545 460.666666667 557 450 c 128
 569 439.333333333 585.666666667 434 607 434 c 1
 611 450 l 1
 681 450 l 1
 585 0 l 1
 150 0 l 1
 156 30 l 1
 272 30 l 1
 300.666666667 40.6666666667 324.166666667 58.1666666667 342.5 82.5 c 128
 360.833333333 106.833333333 373.333333333 134.666666667 380 166 c 0
 382 175.333333333 383 183.666666667 383 191 c 0
 383 209.666666667 377.833333333 224.166666667 367.5 234.5 c 128
 357.166666667 244.833333333 344.666666667 250 330 250 c 0
 317.333333333 250 305.666666667 246.833333333 295 240.5 c 128
 284.333333333 234.166666667 276 224 270 210 c 1
 253 130 l 1
 178 130 l 1
 238 415 l 1
 123 415 l 1
 35 0 l 1
 0 0 l 1
 96 450 l 1
 421 450 l 1
 413 415 l 1
 313 415 l 1
 282 267 l 1
 302 287 326.666666667 297 356 297 c 0
 382.666666667 297 405.5 288.166666667 424.5 270.5 c 128
 443.5 252.833333333 453 228 453 196 c 0
 453 186 453 186 453 176 c 0
 451 169.333333333 449.666666667 164.666666667 449 162 c 0
 441.666666667 127.333333333 429.333333333 99 412 77 c 128
 394.666666667 55 374 39.3333333333 350 30 c 1
 521 30 l 1
 600 399 l 1
 570 399 545.833333333 407.333333333 527.5 424 c 128
 509.166666667 440.666666667 500 465.666666667 500 499 c 0
 500 509.666666667 501.666666667 524 505 542 c 0
 516.333333333 596 538.666666667 637.5 572 666.5 c 128
 605.333333333 695.5 646.333333333 710 695 710 c 0
 736.333333333 710 766.5 700.166666667 785.5 680.5 c 128
 804.5 660.833333333 814 631.666666667 814 593 c 0
 814 569.666666667 811 544 805 516 c 2
 695 0 l 1
EndSplineSet
EndChar

StartChar: u0B99_u0BC0
Encoding: 62 -1 62
Width: 796
Flags: HW
AnchorPoint: "V" 422 456 basechar 0
AnchorPoint: "N" 422 0 basechar 0
LayerCount: 2
Fore
SplineSet
615 396 m 1
 593.666666667 396 575.666666667 404.333333333 561 421 c 0
 544.333333333 439.666666667 536 465 536 497 c 0
 536 503.666666667 536.333333333 511.166666667 537 519.5 c 128
 537.666666667 527.833333333 539 536 541 544 c 0
 554.333333333 608.666666667 583.666666667 656.333333333 629 687 c 0
 668.333333333 713.666666667 716.666666667 727 774 727 c 0
 820.666666667 727 857.333333333 720.333333333 884 707 c 0
 918 689.666666667 935 662 935 624 c 0
 935 616 935 616 935 608 c 0
 933 600 931.666666667 594 931 590 c 0
 925 559.333333333 909.166666667 533.5 883.5 512.5 c 128
 857.833333333 491.5 827.666666667 481 793 481 c 0
 765 481 743.666666667 488.166666667 729 502.5 c 128
 714.333333333 516.833333333 707 535 707 557 c 0
 707 567 708.166666667 577.333333333 710.5 588 c 128
 712.833333333 598.666666667 719.833333333 612.5 731.5 629.5 c 128
 743.166666667 646.5 756 658.333333333 770 665 c 1
 734 668 l 1
 698.666666667 668 665.5 653.833333333 634.5 625.5 c 128
 603.5 597.166666667 584.333333333 566 577 532 c 0
 575.666666667 526 574.666666667 519 574 511 c 128
 573.333333333 503 573 496.333333333 573 491 c 0
 573 444.333333333 588.666666667 421 620 421 c 1
 627 450 l 1
 702 450 l 1
 606 0 l 1
 150 0 l 1
 156 30 l 1
 272 30 l 1
 300.666666667 40.6666666667 324.166666667 58.1666666667 342.5 82.5 c 128
 360.833333333 106.833333333 373.333333333 134.666666667 380 166 c 0
 382 175.333333333 383 183.666666667 383 191 c 0
 383 209.666666667 377.833333333 224.166666667 367.5 234.5 c 128
 357.166666667 244.833333333 344.666666667 250 330 250 c 0
 317.333333333 250 305.666666667 246.833333333 295 240.5 c 128
 284.333333333 234.166666667 276 224 270 210 c 1
 253 130 l 1
 178 130 l 1
 238 415 l 1
 123 415 l 1
 35 0 l 1
 0 0 l 1
 96 450 l 1
 421 450 l 1
 413 415 l 1
 313 415 l 1
 282 267 l 1
 302 287 326.666666667 297 356 297 c 0
 382.666666667 297 405.5 288.166666667 424.5 270.5 c 128
 443.5 252.833333333 453 228 453 196 c 0
 453 186 453 186 453 176 c 0
 451 169.333333333 449.666666667 164.666666667 449 162 c 0
 441.666666667 127.333333333 429.333333333 99 412 77 c 128
 394.666666667 55 374 39.3333333333 350 30 c 1
 537 30 l 1
 615 396 l 1
870 579 m 0
 871.333333333 585.666666667 872 591 872 595 c 0
 872 610.333333333 866.833333333 623.166666667 856.5 633.5 c 128
 846.166666667 643.833333333 832.333333333 649 815 649 c 1
 796.333333333 645.666666667 780.333333333 637.5 767 624.5 c 128
 753.666666667 611.5 745.333333333 596 742 578 c 0
 741.333333333 574.666666667 741 570 741 564 c 0
 741 549.333333333 745.5 537.166666667 754.5 527.5 c 128
 763.5 517.833333333 775.333333333 513 790 513 c 0
 808 513 824.833333333 519.5 840.5 532.5 c 128
 856.166666667 545.5 866 561 870 579 c 0
EndSplineSet
EndChar

StartChar: u0B99_u0BC1
Encoding: 63 -1 63
Width: 701
Flags: HW
AnchorPoint: "V" 422 456 basechar 0
AnchorPoint: "N" 422 0 basechar 0
LayerCount: 2
Fore
SplineSet
572 -135 m 1
 502 -135 l 1
 531 0 l 1
 150 0 l 1
 156 30 l 1
 272 30 l 1
 300.666666667 40.6666666667 324.166666667 58.1666666667 342.5 82.5 c 128
 360.833333333 106.833333333 373.333333333 134.666666667 380 166 c 0
 382 175.333333333 383 183.666666667 383 191 c 0
 383 209.666666667 377.833333333 224.166666667 367.5 234.5 c 128
 357.166666667 244.833333333 344.666666667 250 330 250 c 0
 317.333333333 250 305.666666667 246.833333333 295 240.5 c 128
 284.333333333 234.166666667 276 224 270 210 c 1
 253 130 l 1
 178 130 l 1
 238 415 l 1
 123 415 l 1
 35 0 l 1
 0 0 l 1
 96 450 l 1
 421 450 l 1
 413 415 l 1
 313 415 l 1
 282 267 l 1
 302 287 326.666666667 297 356 297 c 0
 382.666666667 297 405.5 288.166666667 424.5 270.5 c 128
 443.5 252.833333333 453 228 453 196 c 0
 453 186 453 186 453 176 c 0
 451 169.333333333 449.666666667 164.666666667 449 162 c 0
 441.666666667 127.333333333 429.333333333 99 412 77 c 128
 394.666666667 55 374 39.3333333333 350 30 c 1
 537 30 l 1
 627 450 l 1
 697 450 l 1
 572 -135 l 1
EndSplineSet
EndChar

StartChar: u0B99_u0BC2
Encoding: 64 -1 64
Width: 926
Flags: HW
AnchorPoint: "V" 422 456 basechar 0
AnchorPoint: "N" 422 0 basechar 0
LayerCount: 2
Fore
SplineSet
773 102 m 0
 775 115 775 115 776 121.5 c 128
 776.666666667 125.833333333 777 132 777 140 c 0
 777 163.333333333 772.333333333 182 763 196 c 0
 751.666666667 213.333333333 733.333333333 222 708 222 c 0
 678.666666667 222 656.666666667 211.666666667 642 191 c 1
 578 -110 l 1
 508 -110 l 1
 531 0 l 1
 150 0 l 1
 156 30 l 1
 272 30 l 1
 300.666666667 40.6666666667 324.166666667 58.1666666667 342.5 82.5 c 128
 360.833333333 106.833333333 373.333333333 134.666666667 380 166 c 0
 382 175.333333333 383 183.666666667 383 191 c 0
 383 209.666666667 377.833333333 224.166666667 367.5 234.5 c 128
 357.166666667 244.833333333 344.666666667 250 330 250 c 0
 317.333333333 250 305.666666667 246.833333333 295 240.5 c 128
 284.333333333 234.166666667 276 224 270 210 c 1
 253 130 l 1
 178 130 l 1
 238 415 l 1
 123 415 l 1
 35 0 l 1
 0 0 l 1
 96 450 l 1
 421 450 l 1
 413 415 l 1
 313 415 l 1
 282 267 l 1
 302 287 326.666666667 297 356 297 c 0
 382.666666667 297 405.5 288.166666667 424.5 270.5 c 128
 443.5 252.833333333 453 228 453 196 c 0
 453 186 453 186 453 176 c 0
 451 169.333333333 449.666666667 164.666666667 449 162 c 0
 441.666666667 127.333333333 429.333333333 99 412 77 c 128
 394.666666667 55 374 39.3333333333 350 30 c 1
 537 30 l 1
 627 450 l 1
 697 450 l 1
 651 235 l 1
 659.666666667 245.666666667 671.666666667 254.166666667 687 260.5 c 128
 702.333333333 266.833333333 718 270 734 270 c 0
 774 270 804.333333333 257 825 231 c 0
 843 208.333333333 852 179.333333333 852 144 c 0
 852 128.666666667 850.666666667 115.333333333 848 104 c 0
 824.666666667 -6.66666666667 771.666666667 -92 689 -152 c 0
 599 -217.333333333 478.666666667 -250 328 -250 c 0
 272.666666667 -250 229.666666667 -241.333333333 199 -224 c 128
 168.333333333 -206.666666667 153 -182.333333333 153 -151 c 0
 153 -141.666666667 153.666666667 -134.666666667 155 -130 c 0
 162.333333333 -98 176.5 -73.5 197.5 -56.5 c 128
 218.5 -39.5 246 -31 280 -31 c 0
 308 -31 329.5 -37.8333333333 344.5 -51.5 c 128
 359.5 -65.1666666667 367 -83.3333333333 367 -106 c 0
 367 -116 366.333333333 -123.666666667 365 -129 c 0
 361.666666667 -145 354 -160.5 342 -175.5 c 128
 330 -190.5 316 -201.666666667 300 -209 c 1
 311.333333333 -213.666666667 323.666666667 -216 337 -216 c 0
 464.333333333 -216 567.333333333 -182.333333333 646 -115 c 0
 711.333333333 -59 753.666666667 13.3333333333 773 102 c 0
189 -128 m 0
 187.666666667 -134.666666667 187 -140 187 -144 c 0
 187 -159.333333333 192.166666667 -172.166666667 202.5 -182.5 c 128
 212.833333333 -192.833333333 226.666666667 -198 244 -198 c 1
 261.333333333 -194.666666667 277 -186.333333333 291 -173 c 128
 305 -159.666666667 313.666666667 -144.333333333 317 -127 c 0
 318.333333333 -120.333333333 319 -115.333333333 319 -112 c 0
 319 -78.6666666667 302.333333333 -62 269 -62 c 0
 250.333333333 -62 233.166666667 -68.3333333333 217.5 -81 c 128
 201.833333333 -93.6666666667 192.333333333 -109.333333333 189 -128 c 0
EndSplineSet
EndChar

StartChar: u0B99_u0BCD
Encoding: 65 -1 65
Width: 680
Flags: HW
AnchorPoint: "N" 422 0 basechar 0
LayerCount: 2
Fore
SplineSet
600 0 m 1
 150 0 l 1
 156 30 l 1
 272 30 l 1
 300.666666667 40.6666666667 324.166666667 58.1666666667 342.5 82.5 c 128
 360.833333333 106.833333333 373.333333333 134.666666667 380 166 c 0
 382 175.333333333 383 183.666666667 383 191 c 0
 383 209.666666667 377.833333333 224.166666667 367.5 234.5 c 128
 357.166666667 244.833333333 344.666666667 250 330 250 c 0
 317.333333333 250 305.666666667 246.833333333 295 240.5 c 128
 284.333333333 234.166666667 276 224 270 210 c 1
 253 130 l 1
 178 130 l 1
 238 415 l 1
 123 415 l 1
 35 0 l 1
 0 0 l 1
 96 450 l 1
 421 450 l 1
 413 415 l 1
 313 415 l 1
 282 267 l 1
 302 287 326.666666667 297 356 297 c 0
 382.666666667 297 405.5 288.166666667 424.5 270.5 c 128
 443.5 252.833333333 453 228 453 196 c 0
 453 186 453 186 453 176 c 0
 451 169.333333333 449.666666667 164.666666667 449 162 c 0
 441.666666667 127.333333333 429.333333333 99 412 77 c 128
 394.666666667 55 374 39.3333333333 350 30 c 1
 536 30 l 1
 626 450 l 1
 696 450 l 1
 600 0 l 1
434 639 m 0
 448 639 459.166666667 634.5 467.5 625.5 c 128
 475.833333333 616.5 480 605.333333333 480 592 c 0
 480 587.333333333 479.666666667 584 479 582 c 0
 475.666666667 566.666666667 467.333333333 553.333333333 454 542 c 128
 440.666666667 530.666666667 426 525 410 525 c 0
 396.666666667 525 385.666666667 529.333333333 377 538 c 128
 368.333333333 546.666666667 364 557.666666667 364 571 c 0
 364 575.666666667 364.833333333 582.5 366.5 591.5 c 128
 368.166666667 600.5 376 610.666666667 390 622 c 128
 404 633.333333333 418.666666667 639 434 639 c 0
EndSplineSet
EndChar

StartChar: u0B99_u0BCD.alt
Encoding: 66 -1 66
Width: 680
Flags: HW
AnchorPoint: "N" 422 0 basechar 0
LayerCount: 2
Fore
SplineSet
600 0 m 1
 150 0 l 1
 156 30 l 1
 272 30 l 1
 300.666666667 40.6666666667 324.166666667 58.1666666667 342.5 82.5 c 128
 360.833333333 106.833333333 373.333333333 134.666666667 380 166 c 0
 382 175.333333333 383 183.666666667 383 191 c 0
 383 209.666666667 377.833333333 224.166666667 367.5 234.5 c 128
 357.166666667 244.833333333 344.666666667 250 330 250 c 0
 317.333333333 250 305.666666667 246.833333333 295 240.5 c 128
 284.333333333 234.166666667 276 224 270 210 c 1
 253 130 l 1
 178 130 l 1
 238 415 l 1
 123 415 l 1
 35 0 l 1
 0 0 l 1
 96 450 l 1
 421 450 l 1
 413 415 l 1
 313 415 l 1
 282 267 l 1
 302 287 326.666666667 297 356 297 c 0
 382.666666667 297 405.5 288.166666667 424.5 270.5 c 128
 443.5 252.833333333 453 228 453 196 c 0
 453 186 453 186 453 176 c 0
 451 169.333333333 449.666666667 164.666666667 449 162 c 0
 441.666666667 127.333333333 429.333333333 99 412 77 c 128
 394.666666667 55 374 39.3333333333 350 30 c 1
 536 30 l 1
 626 450 l 1
 696 450 l 1
 600 0 l 1
479 582 m 0
 479.666666667 584 480 586.166666667 480 588.5 c 128
 480 592 480 592 480 593 c 0
 480 606.333333333 475.666666667 617.333333333 467 626 c 128
 458.333333333 634.666666667 447.333333333 639 434 639 c 0
 418.666666667 639 404.166666667 633.333333333 390.5 622 c 128
 376.833333333 610.666666667 368.333333333 597.333333333 365 582 c 0
 364.333333333 579.333333333 364 575.333333333 364 570 c 0
 364 557.333333333 368.333333333 546.666666667 377 538 c 128
 385.666666667 529.333333333 396.666666667 525 410 525 c 0
 424.666666667 525 439 530.666666667 453 542 c 128
 467 553.333333333 475.666666667 566.666666667 479 582 c 0
442 676 m 0
 464.666666667 676 483 669 497 655 c 128
 511 641 518 623 518 601 c 0
 518 596.333333333 517.333333333 590 516 582 c 0
 510.666666667 556 496.833333333 533.833333333 474.5 515.5 c 128
 452.166666667 497.166666667 428 488 402 488 c 0
 379.333333333 488 361 495 347 509 c 128
 333 523 326 541 326 563 c 0
 326 566.333333333 326.666666667 572.666666667 328 582 c 0
 333.333333333 608 347.166666667 630.166666667 369.5 648.5 c 128
 391.833333333 666.833333333 416 676 442 676 c 0
EndSplineSet
EndChar

StartChar: u0B95_u0BB7
Encoding: 67 -1 67
Width: 1495
Flags: HW
AnchorPoint: "V" 379 456 basechar 0
AnchorPoint: "N" 379 0 basechar 0
LayerCount: 2
Fore
SplineSet
1417 104 m 0
 1411 74 1398.33333333 50 1379 32 c 0
 1356.33333333 10.6666666667 1326 0 1288 0 c 2
 1225 0 l 1
 1179 -215 l 1
 1109 -215 l 1
 1155 0 l 1
 728 0 l 1
 798.666666667 59.3333333333 842.333333333 127.666666667 859 205 c 0
 863 225 865 244.333333333 865 263 c 0
 865 309.666666667 853 346.666666667 829 374 c 128
 805 401.333333333 770.666666667 415 726 415 c 0
 666.666666667 415 615.333333333 396.666666667 572 360 c 0
 537.333333333 330.666666667 515.333333333 297.333333333 506 260 c 1
 610 260 l 2
 642.666666667 260 668.333333333 254.166666667 687 242.5 c 128
 705.666666667 230.833333333 715 211.333333333 715 184 c 0
 715 175.333333333 714 165.333333333 712 154 c 0
 702 108.666666667 684 71.6666666667 658 43 c 128
 632 14.3333333333 601.333333333 0 566 0 c 0
 526 0 496.833333333 11.1666666667 478.5 33.5 c 128
 460.166666667 55.8333333333 451 88 451 130 c 0
 451 145.333333333 452.333333333 161.333333333 455 178 c 128
 457.666666667 194.666666667 460.333333333 210.333333333 463 225 c 1
 364 225 l 1
 339 106 l 2
 333 78.6666666667 310.666666667 54.1666666667 272 32.5 c 128
 233.333333333 10.8333333333 194.333333333 0 155 0 c 0
 114.333333333 0 83.3333333333 8 62 24 c 0
 38 42 26 68.3333333333 26 103 c 0
 26 114 26 114 26 125 c 0
 28 132.333333333 29.3333333333 137.666666667 30 141 c 0
 38 177.666666667 56.6666666667 207.666666667 86 231 c 0
 109.333333333 249.666666667 129.333333333 259 146 259 c 1
 187 450 l 1
 512 450 l 1
 504 415 l 1
 404 415 l 1
 371 260 l 1
 473 260 l 1
 495 320 528.333333333 366.666666667 573 400 c 128
 617.666666667 433.333333333 671.666666667 450 735 450 c 0
 804.333333333 450 856.333333333 433.333333333 891 400 c 0
 921.666666667 370 937 328.333333333 937 275 c 0
 937 255 934.333333333 232.666666667 929 208 c 0
 921.666666667 174.666666667 911.333333333 145.666666667 898 121 c 0
 882 92.3333333333 859.333333333 63.6666666667 830 35 c 1
 1162 35 l 1
 1196 192 l 1
 1151.33333333 200.666666667 1117 212.333333333 1093 227 c 0
 1061 247 1045 273 1045 305 c 0
 1045 313 1046 321 1048 329 c 0
 1056 367 1072.66666667 396.666666667 1098 418 c 128
 1123.33333333 439.333333333 1156.33333333 450 1197 450 c 0
 1231.66666667 450 1258.16666667 443.833333333 1276.5 431.5 c 128
 1294.83333333 419.166666667 1304 402.333333333 1304 381 c 0
 1304 377.666666667 1303.33333333 372 1302 364 c 2
 1271 218 l 1
 1315 209.333333333 1348.66666667 198.666666667 1372 186 c 0
 1403.33333333 168.666666667 1419 146.666666667 1419 120 c 0
 1419 117.333333333 1418.33333333 112 1417 104 c 0
1204 229 m 1
 1230 352 l 2
 1230.66666667 354.666666667 1231 358.666666667 1231 364 c 0
 1231 396 1209.33333333 412 1166 412 c 0
 1143.33333333 412 1124.5 404.833333333 1109.5 390.5 c 128
 1094.5 376.166666667 1084 356 1078 330 c 0
 1077.33333333 326.666666667 1077 322 1077 316 c 0
 1077 293.333333333 1090.66666667 274 1118 258 c 0
 1140 245.333333333 1168.66666667 235.666666667 1204 229 c 1
1376 108 m 0
 1380 126.666666667 1371.83333333 141.5 1351.5 152.5 c 128
 1331.16666667 163.5 1301.66666667 172.666666667 1263 180 c 1
 1232 35 l 1
 1296 35 l 2
 1319.33333333 35 1337.33333333 41.5 1350 54.5 c 128
 1362.66666667 67.5 1371.33333333 85.3333333333 1376 108 c 0
636 152 m 0
 638 160 639 167.333333333 639 174 c 0
 639 208 616.333333333 225 571 225 c 2
 497 225 l 1
 493.666666667 209.666666667 490.833333333 193.333333333 488.5 176 c 128
 486.166666667 158.666666667 485 143 485 129 c 0
 485.666666667 123.666666667 486 120 486 118 c 0
 489.333333333 99.3333333333 496 85 506 75 c 128
 516 65 530 60 548 60 c 0
 570 60 589 69.1666666667 605 87.5 c 128
 621 105.833333333 631.333333333 127.333333333 636 152 c 0
296 260 m 1
 329 415 l 1
 214 415 l 1
 181 260 l 1
 296 260 l 1
263 103 m 2
 289 225 l 1
 158 225 l 2
 142 225 125.333333333 218.666666667 108 206 c 0
 85.3333333333 188.666666667 70.3333333333 164 63 132 c 0
 61 122 60 112.666666667 60 104 c 0
 60 58 90.3333333333 35 151 35 c 0
 171.666666667 35 194.5 42 219.5 56 c 128
 244.5 70 259 85.6666666667 263 103 c 2
EndSplineSet
EndChar

StartChar: u0B95_u0BB7_u0BBF
Encoding: 68 -1 68
Width: 1607
Flags: HW
AnchorPoint: "V" 379 456 basechar 0
AnchorPoint: "N" 379 0 basechar 0
LayerCount: 2
Fore
SplineSet
1205 229 m 1
 1231 352 l 2
 1231.66666667 354.666666667 1232 358.666666667 1232 364 c 0
 1232 396 1210.33333333 412 1167 412 c 0
 1144.33333333 412 1125.5 404.833333333 1110.5 390.5 c 128
 1095.5 376.166666667 1085 356 1079 330 c 0
 1078.33333333 326.666666667 1078 322 1078 316 c 0
 1078 293.333333333 1091.66666667 274 1119 258 c 0
 1141 245.333333333 1169.66666667 235.666666667 1205 229 c 1
1377 108 m 0
 1381 126.666666667 1372.83333333 141.5 1352.5 152.5 c 128
 1332.16666667 163.5 1302.66666667 172.666666667 1264 180 c 1
 1233 35 l 1
 1297 35 l 2
 1320.33333333 35 1338.33333333 41.5 1351 54.5 c 128
 1363.66666667 67.5 1372.33333333 85.3333333333 1377 108 c 0
637 152 m 0
 639 160 640 167.333333333 640 174 c 0
 640 208 617.333333333 225 572 225 c 2
 497 225 l 1
 493.666666667 209.666666667 490.833333333 193.333333333 488.5 176 c 128
 486.166666667 158.666666667 485 143 485 129 c 0
 485.666666667 123.666666667 486 120 486 118 c 0
 489.333333333 99.3333333333 496 85 506 75 c 128
 516 65 530.333333333 60 549 60 c 0
 571 60 590 69.1666666667 606 87.5 c 128
 622 105.833333333 632.333333333 127.333333333 637 152 c 0
296 260 m 1
 329 415 l 1
 214 415 l 1
 181 260 l 1
 296 260 l 1
263 103 m 2
 289 225 l 1
 158 225 l 2
 142 225 125.333333333 218.666666667 108 206 c 0
 85.3333333333 188.666666667 70.3333333333 164 63 132 c 0
 61 122 60 112.666666667 60 104 c 0
 60 58 90.3333333333 35 151 35 c 0
 171.666666667 35 194.5 42 219.5 56 c 128
 244.5 70 259 85.6666666667 263 103 c 2
1212 450 m 1
 1209.33333333 455.333333333 1207.33333333 462.666666667 1206 472 c 128
 1204.66666667 481.333333333 1204 491.666666667 1204 503 c 0
 1204 519 1205.66666667 536.333333333 1209 555 c 0
 1221 611 1248 653.666666667 1290 683 c 128
 1332 712.333333333 1387 727 1455 727 c 0
 1518.33333333 727 1564 713 1592 685 c 0
 1614.66666667 662.333333333 1626 630.666666667 1626 590 c 0
 1626 568 1623.33333333 545.333333333 1618 522 c 2
 1507 0 l 1
 1476 0 l 1
 1587 521 l 2
 1587.66666667 526.333333333 1588.5 531.666666667 1589.5 537 c 128
 1590.5 542.333333333 1591 548.666666667 1591 556 c 0
 1591 586.666666667 1580.33333333 610.666666667 1559 628 c 0
 1533 648.666666667 1493 659 1439 659 c 0
 1383.66666667 659 1339.16666667 647.166666667 1305.5 623.5 c 128
 1271.83333333 599.833333333 1249.66666667 563.666666667 1239 515 c 0
 1237.66666667 504.333333333 1237 496.666666667 1237 492 c 0
 1237 480 1237.83333333 470.666666667 1239.5 464 c 128
 1241.16666667 457.333333333 1244 450.666666667 1248 444 c 1
 1286 434 1305 413 1305 381 c 0
 1305 377.666666667 1304.33333333 372 1303 364 c 2
 1272 218 l 1
 1316 209.333333333 1349.66666667 198.666666667 1373 186 c 0
 1404.33333333 168.666666667 1420 146.666666667 1420 120 c 0
 1420 117.333333333 1419.33333333 112 1418 104 c 0
 1412 74 1399.33333333 50 1380 32 c 0
 1357.33333333 10.6666666667 1327 0 1289 0 c 2
 1226 0 l 1
 1180 -215 l 1
 1110 -215 l 1
 1156 0 l 1
 729 0 l 1
 799.666666667 59.3333333333 843.333333333 127.666666667 860 205 c 0
 864 225 866 244.333333333 866 263 c 0
 866 309.666666667 854 346.666666667 830 374 c 128
 806 401.333333333 771.666666667 415 727 415 c 0
 667.666666667 415 616.333333333 396.666666667 573 360 c 0
 537.666666667 330 515.333333333 296.666666667 506 260 c 1
 611 260 l 2
 643.666666667 260 669.333333333 254.166666667 688 242.5 c 128
 706.666666667 230.833333333 716 211.333333333 716 184 c 0
 716 175.333333333 715 165.333333333 713 154 c 0
 703 108.666666667 685 71.6666666667 659 43 c 128
 633 14.3333333333 602.333333333 0 567 0 c 0
 527 0 497.666666667 11 479 33 c 128
 460.333333333 55 451 87.3333333333 451 130 c 0
 451 145.333333333 452.333333333 161.333333333 455 178 c 128
 457.666666667 194.666666667 460.333333333 210.333333333 463 225 c 1
 364 225 l 1
 339 106 l 2
 333 78.6666666667 310.666666667 54.1666666667 272 32.5 c 128
 233.333333333 10.8333333333 194.333333333 0 155 0 c 0
 114.333333333 0 83.3333333333 8 62 24 c 0
 38 42 26 68.3333333333 26 103 c 0
 26 114 26 114 26 125 c 0
 28 132.333333333 29.3333333333 137.666666667 30 141 c 0
 38 177.666666667 56.6666666667 207.666666667 86 231 c 0
 109.333333333 249.666666667 129.333333333 259 146 259 c 1
 187 450 l 1
 512 450 l 1
 504 415 l 1
 404 415 l 1
 371 260 l 1
 473 260 l 1
 495 319.333333333 528.666666667 365.833333333 574 399.5 c 128
 619.333333333 433.166666667 673.333333333 450 736 450 c 0
 805.333333333 450 857.333333333 433.333333333 892 400 c 0
 922.666666667 370 938 328.333333333 938 275 c 0
 938 255 935.333333333 232.666666667 930 208 c 0
 922.666666667 174.666666667 912.333333333 145.666666667 899 121 c 0
 883 92.3333333333 860.333333333 63.6666666667 831 35 c 1
 1163 35 l 1
 1197 192 l 1
 1152.33333333 200.666666667 1118 212.333333333 1094 227 c 0
 1062 247 1046 273 1046 305 c 0
 1046 313 1047 321 1049 329 c 0
 1057 367 1073.66666667 396.666666667 1099 418 c 128
 1124.33333333 439.333333333 1157.33333333 450 1198 450 c 2
 1212 450 l 1
EndSplineSet
EndChar

StartChar: u0B95_u0BB7_u0BC0
Encoding: 69 -1 69
Width: 1496
Flags: HW
AnchorPoint: "V" 379 456 basechar 0
AnchorPoint: "N" 379 0 basechar 0
LayerCount: 2
Fore
SplineSet
1418 104 m 0
 1412 74 1399.33333333 50 1380 32 c 0
 1357.33333333 10.6666666667 1327 0 1289 0 c 2
 1226 0 l 1
 1180 -215 l 1
 1110 -215 l 1
 1156 0 l 1
 729 0 l 1
 799.666666667 59.3333333333 843.333333333 127.666666667 860 205 c 0
 864 225 866 244.333333333 866 263 c 0
 866 309.666666667 854 346.666666667 830 374 c 128
 806 401.333333333 771.666666667 415 727 415 c 0
 667.666666667 415 616.333333333 396.666666667 573 360 c 0
 537.666666667 330 515.333333333 296.666666667 506 260 c 1
 611 260 l 2
 643.666666667 260 669.333333333 254.166666667 688 242.5 c 128
 706.666666667 230.833333333 716 211.333333333 716 184 c 0
 716 175.333333333 715 165.333333333 713 154 c 0
 703 108.666666667 685 71.6666666667 659 43 c 128
 633 14.3333333333 602.333333333 0 567 0 c 0
 527 0 497.666666667 11 479 33 c 128
 460.333333333 55 451 87.3333333333 451 130 c 0
 451 145.333333333 452.333333333 161.333333333 455 178 c 128
 457.666666667 194.666666667 460.333333333 210.333333333 463 225 c 1
 364 225 l 1
 339 106 l 2
 333 78.6666666667 310.666666667 54.1666666667 272 32.5 c 128
 233.333333333 10.8333333333 194.333333333 0 155 0 c 0
 114.333333333 0 83.3333333333 8 62 24 c 0
 38 42 26 68.3333333333 26 103 c 0
 26 114 26 114 26 125 c 0
 28 132.333333333 29.3333333333 137.666666667 30 141 c 0
 38 177.666666667 56.6666666667 207.666666667 86 231 c 0
 109.333333333 249.666666667 129.333333333 259 146 259 c 1
 187 450 l 1
 512 450 l 1
 504 415 l 1
 404 415 l 1
 371 260 l 1
 473 260 l 1
 495 319.333333333 528.666666667 365.833333333 574 399.5 c 128
 619.333333333 433.166666667 673.333333333 450 736 450 c 0
 805.333333333 450 857.333333333 433.333333333 892 400 c 0
 922.666666667 370 938 328.333333333 938 275 c 0
 938 255 935.333333333 232.666666667 930 208 c 0
 922.666666667 174.666666667 912.333333333 145.666666667 899 121 c 0
 883 92.3333333333 860.333333333 63.6666666667 831 35 c 1
 1163 35 l 1
 1197 192 l 1
 1152.33333333 200.666666667 1118 212.333333333 1094 227 c 0
 1062 247 1046 273 1046 305 c 0
 1046 313 1047 321 1049 329 c 0
 1057 365.666666667 1072.5 394.833333333 1095.5 416.5 c 128
 1118.5 438.166666667 1147.33333333 449 1182 449 c 1
 1171.33333333 460.333333333 1162.33333333 473.833333333 1155 489.5 c 128
 1147.66666667 505.166666667 1144 522.666666667 1144 542 c 0
 1144 550 1145 558.666666667 1147 568 c 0
 1160.33333333 630.666666667 1191 678.333333333 1239 711 c 0
 1279 737.666666667 1322.33333333 751 1369 751 c 0
 1413 751 1448.33333333 744.333333333 1475 731 c 0
 1511.66666667 712.333333333 1530 683.333333333 1530 644 c 0
 1530 635.333333333 1529 625.333333333 1527 614 c 0
 1520.33333333 583.333333333 1504.16666667 557.666666667 1478.5 537 c 128
 1452.83333333 516.333333333 1423 506 1389 506 c 0
 1361 506 1339.5 513.166666667 1324.5 527.5 c 128
 1309.5 541.833333333 1302 560.333333333 1302 583 c 0
 1302 587 1303.16666667 595.5 1305.5 608.5 c 128
 1307.83333333 621.5 1314.83333333 636.5 1326.5 653.5 c 128
 1338.16666667 670.5 1351 682.333333333 1365 689 c 1
 1329 692 l 1
 1294.33333333 692 1263.16666667 677.833333333 1235.5 649.5 c 128
 1207.83333333 621.166666667 1190.33333333 590 1183 556 c 0
 1181 546.666666667 1180 538 1180 530 c 0
 1180 514 1182.83333333 499.166666667 1188.5 485.5 c 128
 1194.16666667 471.833333333 1201.66666667 460 1211 450 c 1
 1241 450 1264.16666667 443.5 1280.5 430.5 c 128
 1296.83333333 417.5 1305 400.666666667 1305 380 c 0
 1305 376 1304.33333333 370.666666667 1303 364 c 2
 1272 218 l 1
 1316 209.333333333 1349.66666667 198.666666667 1373 186 c 0
 1404.33333333 168.666666667 1420 146.666666667 1420 120 c 0
 1420 117.333333333 1419.33333333 112 1418 104 c 0
1465 603 m 0
 1466.33333333 609.666666667 1467 615 1467 619 c 0
 1467 634.333333333 1461.83333333 647.166666667 1451.5 657.5 c 128
 1441.16666667 667.833333333 1427.33333333 673 1410 673 c 1
 1392.66666667 669.666666667 1377 661.333333333 1363 648 c 128
 1349 634.666666667 1340.33333333 619.333333333 1337 602 c 0
 1336.33333333 598.666666667 1336 594 1336 588 c 0
 1336 573.333333333 1340.5 561.166666667 1349.5 551.5 c 128
 1358.5 541.833333333 1370.33333333 537 1385 537 c 0
 1403.66666667 537 1420.83333333 543.333333333 1436.5 556 c 128
 1452.16666667 568.666666667 1461.66666667 584.333333333 1465 603 c 0
1205 229 m 1
 1231 352 l 2
 1231.66666667 354.666666667 1232 358.666666667 1232 364 c 0
 1232 396 1210.33333333 412 1167 412 c 0
 1144.33333333 412 1125.5 404.833333333 1110.5 390.5 c 128
 1095.5 376.166666667 1085 356 1079 330 c 0
 1078.33333333 326.666666667 1078 322 1078 316 c 0
 1078 293.333333333 1091.66666667 274 1119 258 c 0
 1141 245.333333333 1169.66666667 235.666666667 1205 229 c 1
1377 108 m 0
 1381 126.666666667 1372.83333333 141.5 1352.5 152.5 c 128
 1332.16666667 163.5 1302.66666667 172.666666667 1264 180 c 1
 1233 35 l 1
 1297 35 l 2
 1320.33333333 35 1338.33333333 41.5 1351 54.5 c 128
 1363.66666667 67.5 1372.33333333 85.3333333333 1377 108 c 0
637 152 m 0
 639 160 640 167.333333333 640 174 c 0
 640 208 617.333333333 225 572 225 c 2
 497 225 l 1
 493.666666667 209.666666667 490.833333333 193.333333333 488.5 176 c 128
 486.166666667 158.666666667 485 143 485 129 c 0
 485.666666667 123.666666667 486 120 486 118 c 0
 489.333333333 99.3333333333 496 85 506 75 c 128
 516 65 530.333333333 60 549 60 c 0
 571 60 590 69.1666666667 606 87.5 c 128
 622 105.833333333 632.333333333 127.333333333 637 152 c 0
296 260 m 1
 329 415 l 1
 214 415 l 1
 181 260 l 1
 296 260 l 1
263 103 m 2
 289 225 l 1
 158 225 l 2
 142 225 125.333333333 218.666666667 108 206 c 0
 85.3333333333 188.666666667 70.3333333333 164 63 132 c 0
 61 122 60 112.666666667 60 104 c 0
 60 58 90.3333333333 35 151 35 c 0
 171.666666667 35 194.5 42 219.5 56 c 128
 244.5 70 259 85.6666666667 263 103 c 2
EndSplineSet
EndChar

StartChar: u0B95_u0BB7_u0BCD
Encoding: 70 -1 70
Width: 1495
Flags: HW
AnchorPoint: "N" 379 0 basechar 0
LayerCount: 2
Fore
SplineSet
1417 104 m 0
 1411 74 1398.33333333 50 1379 32 c 0
 1356.33333333 10.6666666667 1326 0 1288 0 c 2
 1225 0 l 1
 1179 -215 l 1
 1109 -215 l 1
 1155 0 l 1
 728 0 l 1
 798.666666667 59.3333333333 842.333333333 127.666666667 859 205 c 0
 863 225 865 244.333333333 865 263 c 0
 865 309.666666667 853 346.666666667 829 374 c 128
 805 401.333333333 770.666666667 415 726 415 c 0
 666.666666667 415 615.333333333 396.666666667 572 360 c 0
 537.333333333 330.666666667 515.333333333 297.333333333 506 260 c 1
 610 260 l 2
 642.666666667 260 668.333333333 254.166666667 687 242.5 c 128
 705.666666667 230.833333333 715 211.333333333 715 184 c 0
 715 175.333333333 714 165.333333333 712 154 c 0
 702 108.666666667 684 71.6666666667 658 43 c 128
 632 14.3333333333 601.333333333 0 566 0 c 0
 526 0 496.833333333 11.1666666667 478.5 33.5 c 128
 460.166666667 55.8333333333 451 88 451 130 c 0
 451 145.333333333 452.333333333 161.333333333 455 178 c 128
 457.666666667 194.666666667 460.333333333 210.333333333 463 225 c 1
 364 225 l 1
 339 106 l 2
 333 78.6666666667 310.666666667 54.1666666667 272 32.5 c 128
 233.333333333 10.8333333333 194.333333333 0 155 0 c 0
 114.333333333 0 83.3333333333 8 62 24 c 0
 38 42 26 68.3333333333 26 103 c 0
 26 114 26 114 26 125 c 0
 28 132.333333333 29.3333333333 137.666666667 30 141 c 0
 38 177.666666667 56.6666666667 207.666666667 86 231 c 0
 109.333333333 249.666666667 129.333333333 259 146 259 c 1
 187 450 l 1
 512 450 l 1
 504 415 l 1
 404 415 l 1
 371 260 l 1
 473 260 l 1
 495 320 528.333333333 366.666666667 573 400 c 128
 617.666666667 433.333333333 671.666666667 450 735 450 c 0
 804.333333333 450 856.333333333 433.333333333 891 400 c 0
 921.666666667 370 937 328.333333333 937 275 c 0
 937 255 934.333333333 232.666666667 929 208 c 0
 921.666666667 174.666666667 911.333333333 145.666666667 898 121 c 0
 882 92.3333333333 859.333333333 63.6666666667 830 35 c 1
 1162 35 l 1
 1196 192 l 1
 1151.33333333 200.666666667 1117 212.333333333 1093 227 c 0
 1061 247 1045 273 1045 305 c 0
 1045 313 1046 321 1048 329 c 0
 1056 367 1072.66666667 396.666666667 1098 418 c 128
 1123.33333333 439.333333333 1156.33333333 450 1197 450 c 0
 1231.66666667 450 1258.16666667 443.833333333 1276.5 431.5 c 128
 1294.83333333 419.166666667 1304 402.333333333 1304 381 c 0
 1304 377.666666667 1303.33333333 372 1302 364 c 2
 1271 218 l 1
 1315 209.333333333 1348.66666667 198.666666667 1372 186 c 0
 1403.33333333 168.666666667 1419 146.666666667 1419 120 c 0
 1419 117.333333333 1418.33333333 112 1417 104 c 0
1204 229 m 1
 1230 352 l 2
 1230.66666667 354.666666667 1231 358.666666667 1231 364 c 0
 1231 396 1209.33333333 412 1166 412 c 0
 1143.33333333 412 1124.5 404.833333333 1109.5 390.5 c 128
 1094.5 376.166666667 1084 356 1078 330 c 0
 1077.33333333 326.666666667 1077 322 1077 316 c 0
 1077 293.333333333 1090.66666667 274 1118 258 c 0
 1140 245.333333333 1168.66666667 235.666666667 1204 229 c 1
1376 108 m 0
 1380 126.666666667 1371.83333333 141.5 1351.5 152.5 c 128
 1331.16666667 163.5 1301.66666667 172.666666667 1263 180 c 1
 1232 35 l 1
 1296 35 l 2
 1319.33333333 35 1337.33333333 41.5 1350 54.5 c 128
 1362.66666667 67.5 1371.33333333 85.3333333333 1376 108 c 0
636 152 m 0
 638 160 639 167.333333333 639 174 c 0
 639 208 616.333333333 225 571 225 c 2
 497 225 l 1
 493.666666667 209.666666667 490.833333333 193.333333333 488.5 176 c 128
 486.166666667 158.666666667 485 143 485 129 c 0
 485.666666667 123.666666667 486 120 486 118 c 0
 489.333333333 99.3333333333 496 85 506 75 c 128
 516 65 530 60 548 60 c 0
 570 60 589 69.1666666667 605 87.5 c 128
 621 105.833333333 631.333333333 127.333333333 636 152 c 0
296 260 m 1
 329 415 l 1
 214 415 l 1
 181 260 l 1
 296 260 l 1
263 103 m 2
 289 225 l 1
 158 225 l 2
 142 225 125.333333333 218.666666667 108 206 c 0
 85.3333333333 188.666666667 70.3333333333 164 63 132 c 0
 61 122 60 112.666666667 60 104 c 0
 60 58 90.3333333333 35 151 35 c 0
 171.666666667 35 194.5 42 219.5 56 c 128
 244.5 70 259 85.6666666667 263 103 c 2
1014 639 m 0
 1028 639 1039.16666667 634.5 1047.5 625.5 c 128
 1055.83333333 616.5 1060 605.333333333 1060 592 c 0
 1060 587.333333333 1059.66666667 584 1059 582 c 0
 1055.66666667 567.333333333 1047.5 555.5 1034.5 546.5 c 128
 1021.5 537.5 1007 533 991 533 c 0
 977.666666667 533 966.5 536.5 957.5 543.5 c 128
 948.5 550.5 944 560 944 572 c 0
 944 576 944.833333333 582.5 946.5 591.5 c 128
 948.166666667 600.5 956 610.666666667 970 622 c 128
 984 633.333333333 998.666666667 639 1014 639 c 0
EndSplineSet
EndChar

StartChar: u0B9A
Encoding: 71 2970 71
Width: 520
Flags: HW
AnchorPoint: "V" 379 456 basechar 0
AnchorPoint: "N" 379 0.00756444 basechar 0
LayerCount: 2
Fore
SplineSet
464 225 m 1
 364 225 l 1
 339 106 l 2
 333 78.6666666667 310.666666667 54.1666666667 272 32.5 c 128
 233.333333333 10.8333333333 194.333333333 0 155 0 c 0
 114.333333333 0 83.3333333333 8 62 24 c 0
 38 42 26 68.3333333333 26 103 c 0
 26 114 26 114 26 125 c 0
 28 132.333333333 29.3333333333 137.666666667 30 141 c 0
 38 177.666666667 56.6666666667 207.666666667 86 231 c 0
 109.333333333 249.666666667 129.333333333 259 146 259 c 1
 187 450 l 1
 512 450 l 1
 504 415 l 1
 404 415 l 1
 371 260 l 1
 471 260 l 1
 464 225 l 1
296 260 m 1
 329 415 l 1
 214 415 l 1
 181 260 l 1
 296 260 l 1
263 103 m 2
 289 225 l 1
 158 225 l 2
 142 225 125.333333333 218.666666667 108 206 c 0
 85.3333333333 188.666666667 70.3333333333 164 63 132 c 0
 61 122 60 112.666666667 60 104 c 0
 60 58 90.3333333333 35 151 35 c 0
 171.666666667 35 194.5 42 219.5 56 c 128
 244.5 70 259 85.6666666667 263 103 c 2
EndSplineSet
EndChar

StartChar: u0B9A_u0BBF
Encoding: 72 -1 72
Width: 635
Flags: HW
AnchorPoint: "V" 379 722.18 basechar 0
AnchorPoint: "N" 379 0.00756444 basechar 0
LayerCount: 2
Fore
SplineSet
530 0 m 1
 500 0 l 1
 596 452 l 2
 598.666666667 464.666666667 600 478 600 492 c 0
 600 539.333333333 582.166666667 577.5 546.5 606.5 c 128
 510.833333333 635.5 465.333333333 650 410 650 c 0
 328.666666667 650 263.333333333 629.333333333 214 588 c 0
 170 551.333333333 141.333333333 501.666666667 128 439 c 0
 124 419 122 398.666666667 122 378 c 0
 122 356.666666667 124.166666667 337.666666667 128.5 321 c 128
 132.833333333 304.333333333 140 290.333333333 150 279 c 1
 187 450 l 1
 512 450 l 1
 504 415 l 1
 404 415 l 1
 371 260 l 1
 471 260 l 1
 464 225 l 1
 364 225 l 1
 339 106 l 2
 333 78.6666666667 310.666666667 54.1666666667 272 32.5 c 128
 233.333333333 10.8333333333 194.333333333 0 155 0 c 0
 114.333333333 0 83.3333333333 8 62 24 c 0
 38 42 26 68.3333333333 26 103 c 0
 26 114 26 114 26 125 c 0
 28 132.333333333 29.3333333333 137.666666667 30 141 c 0
 36.6666666667 171.666666667 50 197.333333333 70 218 c 0
 86 234 104.333333333 246 125 254 c 1
 111 268 100.833333333 284.833333333 94.5 304.5 c 128
 88.1666666667 324.166666667 85 345.666666667 85 369 c 0
 85 393 87.3333333333 414.666666667 92 434 c 0
 109.333333333 513.333333333 143.333333333 579 194 631 c 0
 255.333333333 693.666666667 332.333333333 725 425 725 c 0
 565 725 635 661 635 533 c 0
 635 517.666666667 634.333333333 503.833333333 633 491.5 c 128
 631.666666667 479.166666667 629 463.666666667 625 445 c 2
 530 0 l 1
296 260 m 1
 329 415 l 1
 214 415 l 1
 181 260 l 1
 296 260 l 1
263 103 m 2
 289 225 l 1
 158 225 l 2
 142 225 125.333333333 218.666666667 108 206 c 0
 85.3333333333 188.666666667 70.3333333333 164 63 132 c 0
 61 122 60 112.666666667 60 104 c 0
 60 58 90.3333333333 35 151 35 c 0
 171.666666667 35 194.5 42 219.5 56 c 128
 244.5 70 259 85.6666666667 263 103 c 2
EndSplineSet
EndChar

StartChar: u0B9A_u0BC0
Encoding: 73 -1 73
Width: 516
Flags: HW
AnchorPoint: "V" 379 738.239 basechar 0
AnchorPoint: "N" 379 0.00756444 basechar 0
LayerCount: 2
Fore
SplineSet
577 603 m 0
 578.333333333 609.666666667 579 615 579 619 c 0
 579 634.333333333 573.833333333 647.166666667 563.5 657.5 c 128
 553.166666667 667.833333333 539.333333333 673 522 673 c 1
 504.666666667 669.666666667 489 661.333333333 475 648 c 128
 461 634.666666667 452.333333333 619.333333333 449 602 c 0
 448.333333333 598.666666667 448 594 448 588 c 0
 448 573.333333333 452.5 561.166666667 461.5 551.5 c 128
 470.5 541.833333333 482.333333333 537 497 537 c 0
 515.666666667 537 532.833333333 543.333333333 548.5 556 c 128
 564.166666667 568.666666667 573.666666667 584.333333333 577 603 c 0
296 260 m 1
 329 415 l 1
 214 415 l 1
 181 260 l 1
 296 260 l 1
263 103 m 2
 289 225 l 1
 158 225 l 2
 142 225 125.333333333 218.666666667 108 206 c 0
 85.3333333333 188.666666667 70.3333333333 164 63 132 c 0
 61 122 60 112.666666667 60 104 c 0
 60 58 90.3333333333 35 151 35 c 0
 171.666666667 35 194.5 42 219.5 56 c 128
 244.5 70 259 85.6666666667 263 103 c 2
125 254 m 1
 111 268 100.833333333 284.833333333 94.5 304.5 c 128
 88.1666666667 324.166666667 85 345.666666667 85 369 c 0
 85 393 87.3333333333 414.666666667 92 434 c 0
 112 528 158.333333333 604.333333333 231 663 c 128
 303.666666667 721.666666667 387 751 481 751 c 0
 525.666666667 751 561.333333333 744.333333333 588 731 c 0
 624.666666667 713 643 684 643 644 c 0
 643 635.333333333 642 625.333333333 640 614 c 0
 633.333333333 584 617 558.5 591 537.5 c 128
 565 516.5 535 506 501 506 c 0
 473 506 451.5 513.166666667 436.5 527.5 c 128
 421.5 541.833333333 414 560.333333333 414 583 c 0
 414 587 415.166666667 595.5 417.5 608.5 c 128
 419.833333333 621.5 426.833333333 636.5 438.5 653.5 c 128
 450.166666667 670.5 463 682.333333333 477 689 c 1
 441 692 l 1
 365 692 296 664.666666667 234 610 c 0
 176.666666667 560 141.333333333 503 128 439 c 0
 124 419 122 398.666666667 122 378 c 0
 122 356.666666667 124.166666667 337.666666667 128.5 321 c 128
 132.833333333 304.333333333 140 290.333333333 150 279 c 1
 187 450 l 1
 511 450 l 1
 503 415 l 1
 404 415 l 1
 371 260 l 1
 470 260 l 1
 463 225 l 1
 364 225 l 1
 339 106 l 2
 333 78.6666666667 310.666666667 54.1666666667 272 32.5 c 128
 233.333333333 10.8333333333 194.333333333 0 155 0 c 0
 114.333333333 0 83.3333333333 8 62 24 c 0
 38 42 26 68.3333333333 26 103 c 0
 26 114 26 114 26 125 c 0
 28 132.333333333 29.3333333333 137.666666667 30 141 c 0
 36.6666666667 171.666666667 50 197.333333333 70 218 c 0
 86 234 104.333333333 246 125 254 c 1
EndSplineSet
EndChar

StartChar: u0B9A_u0BC1
Encoding: 74 -1 74
Width: 681
Flags: HW
AnchorPoint: "V" 379 456 basechar 0
AnchorPoint: "N" 379 0.00756444 basechar 0
LayerCount: 2
Fore
SplineSet
296 260 m 1
 329 415 l 1
 214 415 l 1
 181 260 l 1
 296 260 l 1
263 103 m 2
 289 225 l 1
 158 225 l 2
 142 225 125.333333333 218.666666667 108 206 c 0
 85.3333333333 188.666666667 70.3333333333 164 63 132 c 0
 61 122 60 112.666666667 60 104 c 0
 60 58 90.3333333333 35 151 35 c 0
 171.666666667 35 194.5 42 219.5 56 c 128
 244.5 70 259 85.6666666667 263 103 c 2
490 0 m 1
 415 0 l 1
 463 225 l 1
 364 225 l 1
 339 106 l 2
 333 78.6666666667 310.666666667 54.1666666667 272 32.5 c 128
 233.333333333 10.8333333333 194.333333333 0 155 0 c 0
 114.333333333 0 83.3333333333 8 62 24 c 0
 38 42 26 68.3333333333 26 103 c 0
 26 114 26 114 26 125 c 0
 28 132.333333333 29.3333333333 137.666666667 30 141 c 0
 38 177.666666667 56.6666666667 207.666666667 86 231 c 0
 109.333333333 249.666666667 129.333333333 259 146 259 c 1
 187 450 l 1
 512 450 l 1
 504 415 l 1
 404 415 l 1
 371 260 l 1
 636 260 l 1
 629 225 l 1
 538 225 l 1
 490 0 l 1
EndSplineSet
EndChar

StartChar: u0B9A_u0BC2
Encoding: 75 -1 75
Width: 776
Flags: HW
AnchorPoint: "V" 379 456 basechar 0
AnchorPoint: "N" 379 0.00756444 basechar 0
LayerCount: 2
Fore
SplineSet
296 260 m 1
 329 415 l 1
 214 415 l 1
 181 260 l 1
 296 260 l 1
263 103 m 2
 289 225 l 1
 158 225 l 2
 142 225 125.333333333 218.666666667 108 206 c 0
 85.3333333333 188.666666667 70.3333333333 164 63 132 c 0
 61 122 60 112.666666667 60 104 c 0
 60 58 90.3333333333 35 151 35 c 0
 171.666666667 35 194.5 42 219.5 56 c 128
 244.5 70 259 85.6666666667 263 103 c 2
490 0 m 1
 415 0 l 1
 463 225 l 1
 364 225 l 1
 339 106 l 2
 333 78.6666666667 310.666666667 54.1666666667 272 32.5 c 128
 233.333333333 10.8333333333 194.333333333 0 155 0 c 0
 114.333333333 0 83.3333333333 8 62 24 c 0
 38 42 26 68.3333333333 26 103 c 0
 26 114 26 114 26 125 c 0
 28 132.333333333 29.3333333333 137.666666667 30 141 c 0
 38 177.666666667 56.6666666667 207.666666667 86 231 c 0
 109.333333333 249.666666667 129.333333333 259 146 259 c 1
 187 450 l 1
 512 450 l 1
 504 415 l 1
 404 415 l 1
 371 260 l 1
 636 260 l 1
 629 225 l 1
 538 225 l 1
 523 157 l 1
 539 173 560.666666667 181 588 181 c 0
 616.666666667 181 640 171 658 151 c 128
 676 131 685 103 685 67 c 0
 685 51 683 34 679 16 c 0
 662.333333333 -63.3333333333 618 -127.5 546 -176.5 c 128
 474 -225.5 391 -250 297 -250 c 0
 217.666666667 -250 156.833333333 -240.666666667 114.5 -222 c 128
 72.1666666667 -203.333333333 51 -176 51 -140 c 0
 51 -136.666666667 51.6666666667 -130.333333333 53 -121 c 0
 59 -93 76 -71.6666666667 104 -57 c 128
 132 -42.3333333333 164 -35 200 -35 c 0
 226 -35 250 -39.1666666667 272 -47.5 c 128
 294 -55.8333333333 311.666666667 -67.3333333333 325 -82 c 1
 311 -100 l 1
 297.666666667 -87.3333333333 279.833333333 -77.6666666667 257.5 -71 c 128
 235.166666667 -64.3333333333 212.333333333 -61 189 -61 c 0
 161 -61 137.833333333 -66.1666666667 119.5 -76.5 c 128
 101.166666667 -86.8333333333 90.8333333333 -98.1666666667 88.5 -110.5 c 128
 86.1666666667 -122.833333333 85 -130.666666667 85 -134 c 0
 85 -161.333333333 105 -182.333333333 145 -197 c 0
 178.333333333 -209 221.333333333 -215 274 -215 c 0
 356 -215 428.166666667 -192.166666667 490.5 -146.5 c 128
 552.833333333 -100.833333333 590.666666667 -48 604 12 c 0
 607.333333333 30.6666666667 609 45.6666666667 609 57 c 0
 609 82.3333333333 603.333333333 101.666666667 592 115 c 128
 580.666666667 128.333333333 567 135 551 135 c 0
 537.666666667 135 526 131 516 123 c 1
 490 0 l 1
EndSplineSet
EndChar

StartChar: u0B9A_u0BCD
Encoding: 76 -1 76
Width: 520
Flags: HW
AnchorPoint: "N" 379 0.00756444 basechar 0
LayerCount: 2
Fore
SplineSet
464 225 m 1
 364 225 l 1
 339 106 l 2
 333 78.6666666667 310.666666667 54.1666666667 272 32.5 c 128
 233.333333333 10.8333333333 194.333333333 0 155 0 c 0
 114.333333333 0 83.3333333333 8 62 24 c 0
 38 42 26 68.3333333333 26 103 c 0
 26 114 26 114 26 125 c 0
 28 132.333333333 29.3333333333 137.666666667 30 141 c 0
 38 177.666666667 56.6666666667 207.666666667 86 231 c 0
 109.333333333 249.666666667 129.333333333 259 146 259 c 1
 187 450 l 1
 512 450 l 1
 504 415 l 1
 404 415 l 1
 371 260 l 1
 471 260 l 1
 464 225 l 1
296 260 m 1
 329 415 l 1
 214 415 l 1
 181 260 l 1
 296 260 l 1
263 103 m 2
 289 225 l 1
 158 225 l 2
 142 225 125.333333333 218.666666667 108 206 c 0
 85.3333333333 188.666666667 70.3333333333 164 63 132 c 0
 61 122 60 112.666666667 60 104 c 0
 60 58 90.3333333333 35 151 35 c 0
 171.666666667 35 194.5 42 219.5 56 c 128
 244.5 70 259 85.6666666667 263 103 c 2
391 639 m 0
 405 639 416.166666667 634.5 424.5 625.5 c 128
 432.833333333 616.5 437 605.333333333 437 592 c 0
 437 587.333333333 436.666666667 584 436 582 c 0
 432.666666667 566.666666667 424.333333333 553.333333333 411 542 c 128
 397.666666667 530.666666667 383 525 367 525 c 0
 353.666666667 525 342.666666667 529.333333333 334 538 c 128
 325.333333333 546.666666667 321 557.666666667 321 571 c 0
 321 575.666666667 321.833333333 582.5 323.5 591.5 c 128
 325.166666667 600.5 333 610.666666667 347 622 c 128
 361 633.333333333 375.666666667 639 391 639 c 0
EndSplineSet
EndChar

StartChar: u0B9C
Encoding: 77 2972 77
Width: 650
Flags: HW
AnchorPoint: "V" 422 456 basechar 0
AnchorPoint: "N" 422 -160 basechar 0
LayerCount: 2
Fore
SplineSet
612 292 m 0
 604.666666667 258 592.333333333 226.333333333 575 197 c 0
 553 159.666666667 527.333333333 134 498 120 c 0
 459.333333333 102 401.333333333 91.1666666667 324 87.5 c 128
 246.666666667 83.8333333333 194.333333333 77.3333333333 167 68 c 0
 149.666666667 61.3333333333 134.666666667 52.3333333333 122 41 c 0
 102.666666667 23 90 0.333333333333 84 -27 c 0
 80.6666666667 -45 79 -59.6666666667 79 -71 c 0
 79 -89.6666666667 83.1666666667 -104.166666667 91.5 -114.5 c 128
 99.8333333333 -124.833333333 114 -130 134 -130 c 0
 160.666666667 -130 185.333333333 -123.666666667 208 -111 c 0
 222 -103 251.333333333 -76.6666666667 296 -32 c 0
 336 6.66666666667 360.333333333 28.3333333333 369 33 c 0
 389.666666667 43.6666666667 416 49 448 49 c 0
 510.666666667 49 542 24.3333333333 542 -25 c 0
 542 -33 541 -41 539 -49 c 0
 531.666666667 -81.6666666667 517 -107.666666667 495 -127 c 0
 469.666666667 -149 436.666666667 -160 396 -160 c 0
 384.666666667 -160 372.333333333 -158.5 359 -155.5 c 128
 345.666666667 -152.5 335.666666667 -149 329 -145 c 1
 344 -119 l 1
 351.333333333 -121.666666667 358.666666667 -123.333333333 366 -124 c 128
 373.333333333 -124.666666667 382.666666667 -125 394 -125 c 0
 413.333333333 -125 429.166666667 -118.666666667 441.5 -106 c 128
 453.833333333 -93.3333333333 462.333333333 -77 467 -57 c 0
 469 -45.6666666667 470 -36.3333333333 470 -29 c 0
 470 -3 451.666666667 10 415 10 c 0
 404.333333333 10 392.333333333 5.33333333333 379 -4 c 0
 369.666666667 -10.6666666667 349.333333333 -29.6666666667 318 -61 c 0
 290 -89 271.666666667 -107 263 -115 c 0
 222.333333333 -149.666666667 181 -167 139 -167 c 0
 94.3333333333 -167 61.5 -158.833333333 40.5 -142.5 c 128
 19.5 -126.166666667 9 -102 9 -70 c 0
 9 -59.3333333333 10.6666666667 -45 14 -27 c 0
 20 0.333333333333 29.3333333333 22.3333333333 42 39 c 0
 58.6666666667 61 85 78.3333333333 121 91 c 0
 161 105.666666667 208.333333333 115.333333333 263 120 c 0
 371.666666667 130 436.333333333 139.666666667 457 149 c 128
 477.666666667 158.333333333 497.333333333 182.333333333 516 221 c 0
 528.666666667 247.666666667 538 274 544 300 c 0
 545.333333333 305.333333333 546.333333333 312.833333333 547 322.5 c 128
 547.666666667 332.166666667 548 337.333333333 548 338 c 0
 548 361.333333333 542.333333333 380 531 394 c 128
 519.666666667 408 502 415 478 415 c 0
 458 415 440.333333333 405.333333333 425 386 c 0
 413 371.333333333 405.333333333 356 402 340 c 2
 375 214 l 1
 305 214 l 1
 331 335 l 2
 331.666666667 337.666666667 332 342 332 348 c 0
 332 365.333333333 326.666666667 380 316 392 c 0
 302 407.333333333 280.333333333 415 251 415 c 0
 217.666666667 415 185.833333333 405.333333333 155.5 386 c 128
 125.166666667 366.666666667 108.333333333 345.666666667 105 323 c 1
 127 351 155 365 189 365 c 0
 213 365 231.5 357.5 244.5 342.5 c 128
 257.5 327.5 264 308.333333333 264 285 c 0
 264 277 263 268.333333333 261 259 c 0
 254.333333333 227 239.5 201.833333333 216.5 183.5 c 128
 193.5 165.166666667 166.333333333 156 135 156 c 0
 107.666666667 156 88 164 76 180 c 128
 64 196 58 217.666666667 58 245 c 0
 58 252.333333333 58.6666666667 261.166666667 60 271.5 c 128
 61.3333333333 281.833333333 63 292.666666667 65 304 c 0
 73 344 95 377.666666667 131 405 c 0
 170.333333333 435 217.666666667 450 273 450 c 0
 311 450 340 444 360 432 c 0
 376 422.666666667 385.666666667 409.666666667 389 393 c 1
 400.333333333 413 415.333333333 427.5 434 436.5 c 128
 452.666666667 445.5 473.333333333 450 496 450 c 0
 577.333333333 450 618 413.333333333 618 340 c 0
 618 325.333333333 616 309.333333333 612 292 c 0
200 277 m 0
 200 289 195.833333333 298.833333333 187.5 306.5 c 128
 179.166666667 314.166666667 169 318 157 318 c 0
 135 318 114.333333333 306 95 282 c 1
 93 272.666666667 92 263.666666667 92 255 c 0
 92 238.333333333 95.8333333333 225 103.5 215 c 128
 111.166666667 205 122.333333333 200 137 200 c 0
 155 200 170 208.5 182 225.5 c 128
 194 242.5 200 259.666666667 200 277 c 0
EndSplineSet
EndChar

StartChar: u0B9C_u0BBF
Encoding: 78 -1 78
Width: 781
Flags: HW
AnchorPoint: "V" 422 456 basechar 0
AnchorPoint: "N" 422 -160 basechar 0
LayerCount: 2
Fore
SplineSet
200 277 m 0
 200 289 195.833333333 298.833333333 187.5 306.5 c 128
 179.166666667 314.166666667 169 318 157 318 c 0
 135 318 114.333333333 306 95 282 c 1
 93 272.666666667 92 263.666666667 92 255 c 0
 92 238.333333333 95.8333333333 225 103.5 215 c 128
 111.166666667 205 122.333333333 200 137 200 c 0
 155 200 170 208.5 182 225.5 c 128
 194 242.5 200 259.666666667 200 277 c 0
475 449 m 1
 469.666666667 461.666666667 467 479.333333333 467 502 c 0
 467 519.333333333 469 537 473 555 c 0
 483.666666667 605.666666667 505.333333333 646 538 676 c 0
 574.666666667 710 622 727 680 727 c 0
 725.333333333 727 758 714.333333333 778 689 c 0
 794 669 802 640 802 602 c 0
 802 589.333333333 801.166666667 576.833333333 799.5 564.5 c 128
 797.833333333 552.166666667 795.333333333 538 792 522 c 2
 681 0 l 1
 651 0 l 1
 762 521 l 2
 764.666666667 532.333333333 766 545.666666667 766 561 c 0
 766 589.666666667 758.666666667 612.333333333 744 629 c 0
 726.666666667 649 700 659 664 659 c 0
 577.333333333 659 523.666666667 611 503 515 c 0
 502.333333333 511 501.833333333 506.666666667 501.5 502 c 128
 501.166666667 497.333333333 501 494 501 492 c 0
 501 483.333333333 501.833333333 475.666666667 503.5 469 c 128
 505.166666667 462.333333333 507.666666667 456 511 450 c 1
 547 450 574 440.333333333 592 421 c 128
 610 401.666666667 619 375 619 341 c 0
 619 325.666666667 617 309.333333333 613 292 c 0
 605.666666667 258 593.333333333 226.333333333 576 197 c 0
 554 160.333333333 528 134.666666667 498 120 c 0
 459.333333333 102 401.333333333 91.1666666667 324 87.5 c 128
 246.666666667 83.8333333333 194.333333333 77.3333333333 167 68 c 0
 149.666666667 61.3333333333 134.666666667 52.3333333333 122 41 c 0
 102.666666667 23 90 0.333333333333 84 -27 c 0
 80.6666666667 -45 79 -59.6666666667 79 -71 c 0
 79 -89.6666666667 83.1666666667 -104.166666667 91.5 -114.5 c 128
 99.8333333333 -124.833333333 114 -130 134 -130 c 0
 160.666666667 -130 185.333333333 -123.666666667 208 -111 c 0
 222 -103 251.333333333 -76.6666666667 296 -32 c 0
 336 6.66666666667 360.333333333 28.3333333333 369 33 c 0
 389.666666667 43.6666666667 416 49 448 49 c 0
 511.333333333 49 543 24.3333333333 543 -25 c 0
 543 -31.6666666667 542 -39.6666666667 540 -49 c 0
 532.666666667 -81 517 -107.5 493 -128.5 c 128
 469 -149.5 436.666666667 -160 396 -160 c 0
 384.666666667 -160 372.333333333 -158.5 359 -155.5 c 128
 345.666666667 -152.5 335.666666667 -149 329 -145 c 1
 344 -119 l 1
 351.333333333 -121.666666667 358.666666667 -123.333333333 366 -124 c 128
 373.333333333 -124.666666667 382.666666667 -125 394 -125 c 0
 413.333333333 -125 429.166666667 -118.666666667 441.5 -106 c 128
 453.833333333 -93.3333333333 462.333333333 -77 467 -57 c 0
 469 -45.6666666667 470 -36.3333333333 470 -29 c 0
 470 -3 451.666666667 10 415 10 c 0
 404.333333333 10 392.333333333 5.33333333333 379 -4 c 0
 369.666666667 -10.6666666667 349.333333333 -29.6666666667 318 -61 c 0
 290 -89 271.666666667 -107 263 -115 c 0
 222.333333333 -149.666666667 181 -167 139 -167 c 0
 94.3333333333 -167 61.5 -158.833333333 40.5 -142.5 c 128
 19.5 -126.166666667 9 -102 9 -70 c 0
 9 -59.3333333333 10.6666666667 -45 14 -27 c 0
 20 0.333333333333 29.3333333333 22.3333333333 42 39 c 0
 58.6666666667 61 85 78.3333333333 121 91 c 0
 161 105.666666667 208.333333333 115.333333333 263 120 c 0
 371.666666667 130 436.333333333 139.666666667 457 149 c 128
 477.666666667 158.333333333 497.333333333 182.333333333 516 221 c 0
 528.666666667 247.666666667 538 274 544 300 c 0
 545.333333333 305.333333333 546.333333333 312.833333333 547 322.5 c 128
 547.666666667 332.166666667 548 337.333333333 548 338 c 0
 548 361.333333333 542.333333333 380 531 394 c 128
 519.666666667 408 502 415 478 415 c 0
 458 415 440.333333333 405.333333333 425 386 c 0
 413 371.333333333 405.333333333 356 402 340 c 2
 375 214 l 1
 305 214 l 1
 331 335 l 2
 331.666666667 337.666666667 332 342 332 348 c 0
 332 365.333333333 326.666666667 380 316 392 c 0
 302 407.333333333 280.333333333 415 251 415 c 0
 217.666666667 415 185.833333333 405.333333333 155.5 386 c 128
 125.166666667 366.666666667 108.333333333 345.666666667 105 323 c 1
 127 351 155 365 189 365 c 0
 213 365 231.5 357.5 244.5 342.5 c 128
 257.5 327.5 264 308.333333333 264 285 c 0
 264 277 263 268.333333333 261 259 c 0
 254.333333333 227 239.5 201.833333333 216.5 183.5 c 128
 193.5 165.166666667 166.333333333 156 135 156 c 0
 107.666666667 156 88 164 76 180 c 128
 64 196 58 217.666666667 58 245 c 0
 58 252.333333333 58.6666666667 261.166666667 60 271.5 c 128
 61.3333333333 281.833333333 63 292.666666667 65 304 c 0
 73 344 95 377.666666667 131 405 c 0
 170.333333333 435 217.666666667 450 273 450 c 0
 311 450 340 444 360 432 c 0
 376 422.666666667 385.666666667 409.666666667 389 393 c 1
 397 406.333333333 406.666666667 417.333333333 418 426 c 0
 434 438 453 445.666666667 475 449 c 1
EndSplineSet
EndChar

StartChar: u0B9C_u0BC0
Encoding: 79 -1 79
Width: 686
Flags: HW
AnchorPoint: "V" 422 456 basechar 0
AnchorPoint: "N" 422 -160 basechar 0
LayerCount: 2
Fore
SplineSet
200 277 m 0
 200 289 195.833333333 298.833333333 187.5 306.5 c 128
 179.166666667 314.166666667 169 318 157 318 c 0
 135 318 114.333333333 306 95 282 c 1
 93 272.666666667 92 263.666666667 92 255 c 0
 92 238.333333333 95.8333333333 225 103.5 215 c 128
 111.166666667 205 122.333333333 200 137 200 c 0
 155 200 170 208.5 182 225.5 c 128
 194 242.5 200 259.666666667 200 277 c 0
613 292 m 0
 605.666666667 258 593.333333333 226.333333333 576 197 c 0
 554 160.333333333 528 134.666666667 498 120 c 0
 459.333333333 102 401.333333333 91.1666666667 324 87.5 c 128
 246.666666667 83.8333333333 194.333333333 77.3333333333 167 68 c 0
 149.666666667 61.3333333333 134.666666667 52.3333333333 122 41 c 0
 102.666666667 23 90 0.333333333333 84 -27 c 0
 80.6666666667 -45 79 -59.6666666667 79 -71 c 0
 79 -89.6666666667 83.1666666667 -104.166666667 91.5 -114.5 c 128
 99.8333333333 -124.833333333 114 -130 134 -130 c 0
 160.666666667 -130 185.333333333 -123.666666667 208 -111 c 0
 222 -103 251.333333333 -76.6666666667 296 -32 c 0
 336 6.66666666667 360.333333333 28.3333333333 369 33 c 0
 389.666666667 43.6666666667 416 49 448 49 c 0
 511.333333333 49 543 24.3333333333 543 -25 c 0
 543 -31.6666666667 542 -39.6666666667 540 -49 c 0
 532.666666667 -81 517 -107.5 493 -128.5 c 128
 469 -149.5 436.666666667 -160 396 -160 c 0
 384.666666667 -160 372.333333333 -158.5 359 -155.5 c 128
 345.666666667 -152.5 335.666666667 -149 329 -145 c 1
 344 -119 l 1
 351.333333333 -121.666666667 358.666666667 -123.333333333 366 -124 c 128
 373.333333333 -124.666666667 382.666666667 -125 394 -125 c 0
 413.333333333 -125 429.166666667 -118.666666667 441.5 -106 c 128
 453.833333333 -93.3333333333 462.333333333 -77 467 -57 c 0
 469 -45.6666666667 470 -36.3333333333 470 -29 c 0
 470 -3 451.666666667 10 415 10 c 0
 404.333333333 10 392.333333333 5.33333333333 379 -4 c 0
 369.666666667 -10.6666666667 349.333333333 -29.6666666667 318 -61 c 0
 290 -89 271.666666667 -107 263 -115 c 0
 222.333333333 -149.666666667 181 -167 139 -167 c 0
 94.3333333333 -167 61.5 -158.833333333 40.5 -142.5 c 128
 19.5 -126.166666667 9 -102 9 -70 c 0
 9 -59.3333333333 10.6666666667 -45 14 -27 c 0
 20 0.333333333333 29.3333333333 22.3333333333 42 39 c 0
 58.6666666667 61 85 78.3333333333 121 91 c 0
 161 105.666666667 208.333333333 115.333333333 263 120 c 0
 371.666666667 130 436.333333333 139.666666667 457 149 c 128
 477.666666667 158.333333333 497.333333333 182.333333333 516 221 c 0
 528.666666667 247.666666667 538 274 544 300 c 0
 545.333333333 305.333333333 546.333333333 312.833333333 547 322.5 c 128
 547.666666667 332.166666667 548 337.333333333 548 338 c 0
 548 361.333333333 542.333333333 380 531 394 c 128
 519.666666667 408 502 415 478 415 c 0
 458 415 440.333333333 405.333333333 425 386 c 0
 413 371.333333333 405.333333333 356 402 340 c 2
 375 214 l 1
 305 214 l 1
 331 335 l 2
 331.666666667 337.666666667 332 342 332 348 c 0
 332 365.333333333 326.666666667 380 316 392 c 0
 302 407.333333333 280.333333333 415 251 415 c 0
 217.666666667 415 185.833333333 405.333333333 155.5 386 c 128
 125.166666667 366.666666667 108.333333333 345.666666667 105 323 c 1
 127 351 155 365 189 365 c 0
 213 365 231.5 357.5 244.5 342.5 c 128
 257.5 327.5 264 308.333333333 264 285 c 0
 264 277 263 268.333333333 261 259 c 0
 254.333333333 227 239.5 201.833333333 216.5 183.5 c 128
 193.5 165.166666667 166.333333333 156 135 156 c 0
 107.666666667 156 88 164 76 180 c 128
 64 196 58 217.666666667 58 245 c 0
 58 252.333333333 58.6666666667 261.166666667 60 271.5 c 128
 61.3333333333 281.833333333 63 292.666666667 65 304 c 0
 73 344 95 377.666666667 131 405 c 0
 170.333333333 435 217.666666667 450 273 450 c 0
 311 450 340 444 360 432 c 0
 376 422.666666667 385.666666667 409.666666667 389 393 c 1
 397.666666667 407.666666667 408 419.666666667 420 429 c 0
 437.333333333 442.333333333 457.666666667 449 481 449 c 1
 470.333333333 460.333333333 461.333333333 473.833333333 454 489.5 c 128
 446.666666667 505.166666667 443 522.666666667 443 542 c 0
 443 550 444 558.666666667 446 568 c 0
 459.333333333 630.666666667 490 678.333333333 538 711 c 0
 578 737.666666667 621.666666667 751 669 751 c 0
 713 751 748.333333333 744.333333333 775 731 c 0
 811.666666667 712.333333333 830 683.333333333 830 644 c 0
 830 635.333333333 829 625.333333333 827 614 c 0
 820.333333333 583.333333333 804.166666667 557.666666667 778.5 537 c 128
 752.833333333 516.333333333 723 506 689 506 c 0
 660.333333333 506 638.5 513.166666667 623.5 527.5 c 128
 608.5 541.833333333 601 560.333333333 601 583 c 0
 601 587 602.166666667 595.5 604.5 608.5 c 128
 606.833333333 621.5 613.833333333 636.333333333 625.5 653 c 128
 637.166666667 669.666666667 650.333333333 681.666666667 665 689 c 1
 628 692 l 1
 593.333333333 692 562.166666667 677.833333333 534.5 649.5 c 128
 506.833333333 621.166666667 489.333333333 590 482 556 c 0
 480 546.666666667 479 538 479 530 c 0
 479 514 481.833333333 499.166666667 487.5 485.5 c 128
 493.166666667 471.833333333 500.666666667 460 510 450 c 1
 545.333333333 450 572.166666667 440.333333333 590.5 421 c 128
 608.833333333 401.666666667 618 374.333333333 618 339 c 0
 618 332.333333333 617.666666667 324.833333333 617 316.5 c 128
 616.333333333 308.166666667 615 300 613 292 c 0
765 603 m 0
 766.333333333 609.666666667 767 615 767 619 c 0
 767 634.333333333 761.833333333 647.166666667 751.5 657.5 c 128
 741.166666667 667.833333333 727.333333333 673 710 673 c 1
 692.666666667 669.666666667 677 661.333333333 663 648 c 128
 649 634.666666667 640.333333333 619.333333333 637 602 c 0
 636.333333333 598.666666667 636 594 636 588 c 0
 636 573.333333333 640.5 561.166666667 649.5 551.5 c 128
 658.5 541.833333333 670.333333333 537 685 537 c 0
 703.666666667 537 720.833333333 543.333333333 736.5 556 c 128
 752.166666667 568.666666667 761.666666667 584.333333333 765 603 c 0
EndSplineSet
EndChar

StartChar: u0B9C_u0BCD
Encoding: 80 -1 80
Width: 650
Flags: HW
AnchorPoint: "N" 422 -160 basechar 0
LayerCount: 2
Fore
SplineSet
612 292 m 0
 604.666666667 258 592.333333333 226.333333333 575 197 c 0
 553 159.666666667 527.333333333 134 498 120 c 0
 459.333333333 102 401.333333333 91.1666666667 324 87.5 c 128
 246.666666667 83.8333333333 194.333333333 77.3333333333 167 68 c 0
 149.666666667 61.3333333333 134.666666667 52.3333333333 122 41 c 0
 102.666666667 23 90 0.333333333333 84 -27 c 0
 80.6666666667 -45 79 -59.6666666667 79 -71 c 0
 79 -89.6666666667 83.1666666667 -104.166666667 91.5 -114.5 c 128
 99.8333333333 -124.833333333 114 -130 134 -130 c 0
 160.666666667 -130 185.333333333 -123.666666667 208 -111 c 0
 222 -103 251.333333333 -76.6666666667 296 -32 c 0
 336 6.66666666667 360.333333333 28.3333333333 369 33 c 0
 389.666666667 43.6666666667 416 49 448 49 c 0
 510.666666667 49 542 24.3333333333 542 -25 c 0
 542 -33 541 -41 539 -49 c 0
 531.666666667 -81.6666666667 517 -107.666666667 495 -127 c 0
 469.666666667 -149 436.666666667 -160 396 -160 c 0
 384.666666667 -160 372.333333333 -158.5 359 -155.5 c 128
 345.666666667 -152.5 335.666666667 -149 329 -145 c 1
 344 -119 l 1
 351.333333333 -121.666666667 358.666666667 -123.333333333 366 -124 c 128
 373.333333333 -124.666666667 382.666666667 -125 394 -125 c 0
 413.333333333 -125 429.166666667 -118.666666667 441.5 -106 c 128
 453.833333333 -93.3333333333 462.333333333 -77 467 -57 c 0
 469 -45.6666666667 470 -36.3333333333 470 -29 c 0
 470 -3 451.666666667 10 415 10 c 0
 404.333333333 10 392.333333333 5.33333333333 379 -4 c 0
 369.666666667 -10.6666666667 349.333333333 -29.6666666667 318 -61 c 0
 290 -89 271.666666667 -107 263 -115 c 0
 222.333333333 -149.666666667 181 -167 139 -167 c 0
 94.3333333333 -167 61.5 -158.833333333 40.5 -142.5 c 128
 19.5 -126.166666667 9 -102 9 -70 c 0
 9 -59.3333333333 10.6666666667 -45 14 -27 c 0
 20 0.333333333333 29.3333333333 22.3333333333 42 39 c 0
 58.6666666667 61 85 78.3333333333 121 91 c 0
 161 105.666666667 208.333333333 115.333333333 263 120 c 0
 371.666666667 130 436.333333333 139.666666667 457 149 c 128
 477.666666667 158.333333333 497.333333333 182.333333333 516 221 c 0
 528.666666667 247.666666667 538 274 544 300 c 0
 545.333333333 305.333333333 546.333333333 312.833333333 547 322.5 c 128
 547.666666667 332.166666667 548 337.333333333 548 338 c 0
 548 361.333333333 542.333333333 380 531 394 c 128
 519.666666667 408 502 415 478 415 c 0
 458 415 440.333333333 405.333333333 425 386 c 0
 413 371.333333333 405.333333333 356 402 340 c 2
 375 214 l 1
 305 214 l 1
 331 335 l 2
 331.666666667 337.666666667 332 342 332 348 c 0
 332 365.333333333 326.666666667 380 316 392 c 0
 302 407.333333333 280.333333333 415 251 415 c 0
 217.666666667 415 185.833333333 405.333333333 155.5 386 c 128
 125.166666667 366.666666667 108.333333333 345.666666667 105 323 c 1
 127 351 155 365 189 365 c 0
 213 365 231.5 357.5 244.5 342.5 c 128
 257.5 327.5 264 308.333333333 264 285 c 0
 264 277 263 268.333333333 261 259 c 0
 254.333333333 227 239.5 201.833333333 216.5 183.5 c 128
 193.5 165.166666667 166.333333333 156 135 156 c 0
 107.666666667 156 88 164 76 180 c 128
 64 196 58 217.666666667 58 245 c 0
 58 252.333333333 58.6666666667 261.166666667 60 271.5 c 128
 61.3333333333 281.833333333 63 292.666666667 65 304 c 0
 73 344 95 377.666666667 131 405 c 0
 170.333333333 435 217.666666667 450 273 450 c 0
 311 450 340 444 360 432 c 0
 376 422.666666667 385.666666667 409.666666667 389 393 c 1
 400.333333333 413 415.333333333 427.5 434 436.5 c 128
 452.666666667 445.5 473.333333333 450 496 450 c 0
 577.333333333 450 618 413.333333333 618 340 c 0
 618 325.333333333 616 309.333333333 612 292 c 0
200 277 m 0
 200 289 195.833333333 298.833333333 187.5 306.5 c 128
 179.166666667 314.166666667 169 318 157 318 c 0
 135 318 114.333333333 306 95 282 c 1
 93 272.666666667 92 263.666666667 92 255 c 0
 92 238.333333333 95.8333333333 225 103.5 215 c 128
 111.166666667 205 122.333333333 200 137 200 c 0
 155 200 170 208.5 182 225.5 c 128
 194 242.5 200 259.666666667 200 277 c 0
434 639 m 0
 448 639 459.166666667 634.5 467.5 625.5 c 128
 475.833333333 616.5 480 605.333333333 480 592 c 0
 480 587.333333333 479.666666667 584 479 582 c 0
 475.666666667 566.666666667 467.333333333 553.333333333 454 542 c 128
 440.666666667 530.666666667 426 525 410 525 c 0
 396.666666667 525 385.666666667 529.333333333 377 538 c 128
 368.333333333 546.666666667 364 557.666666667 364 571 c 0
 364 575.666666667 364.833333333 582.5 366.5 591.5 c 128
 368.166666667 600.5 376 610.666666667 390 622 c 128
 404 633.333333333 418.666666667 639 434 639 c 0
EndSplineSet
EndChar

StartChar: u0B9E
Encoding: 81 2974 81
Width: 885
Flags: HW
AnchorPoint: "V" 577 456 basechar 0
AnchorPoint: "N" 577 -199.967 basechar 0
LayerCount: 2
Fore
SplineSet
807 104 m 0
 787.666666667 14 742.666666667 -57.3333333333 672 -110 c 0
 591.333333333 -170 483 -200 347 -200 c 0
 242.333333333 -200 162 -177.333333333 106 -132 c 128
 50 -86.6666666667 22 -22.6666666667 22 60 c 0
 22 89.3333333333 25.3333333333 119.333333333 32 150 c 0
 46 214.666666667 67.6666666667 273.5 97 326.5 c 128
 126.333333333 379.5 160.333333333 420.666666667 199 450 c 1
 216 430 l 1
 179.333333333 400 148.333333333 360.166666667 123 310.5 c 128
 97.6666666667 260.833333333 78.6666666667 206.333333333 66 147 c 0
 60.6666666667 120.333333333 58 96.3333333333 58 75 c 0
 58 1 83.8333333333 -57.5 135.5 -100.5 c 128
 187.166666667 -143.5 257.666666667 -165 347 -165 c 0
 458.333333333 -165 549 -137 619 -81 c 0
 678.333333333 -33.6666666667 716 27.3333333333 732 102 c 0
 734 112 735.166666667 118.666666667 735.5 122 c 128
 735.833333333 125.333333333 736 131 736 139 c 0
 736 162.333333333 731.333333333 181 722 195 c 0
 710 213 691.666666667 222 667 222 c 0
 637.666666667 222 615.666666667 211.666666667 601 191 c 1
 560 0 l 1
 485 0 l 1
 573 415 l 1
 431 415 l 2
 371 415 319.666666667 396.333333333 277 359 c 0
 242.333333333 328.333333333 220 293.666666667 210 255 c 1
 220.666666667 266.333333333 235.833333333 276 255.5 284 c 128
 275.166666667 292 295.333333333 296 316 296 c 0
 349.333333333 296 375.166666667 286.5 393.5 267.5 c 128
 411.833333333 248.5 421 222.666666667 421 190 c 0
 421 179 421 179 421 169 c 0
 419 161.666666667 417.666666667 156.666666667 417 154 c 0
 407 107.333333333 390.333333333 70.6666666667 367 44 c 0
 341 14.6666666667 309 0 271 0 c 0
 193.666666667 0 155 44 155 132 c 0
 155 154 158 179 164 207 c 0
 180 281.666666667 211.833333333 340.833333333 259.5 384.5 c 128
 307.166666667 428.166666667 364 450 430 450 c 2
 756 450 l 1
 748 415 l 1
 648 415 l 1
 610 235 l 1
 618.666666667 245.666666667 630.666666667 254.166666667 646 260.5 c 128
 661.333333333 266.833333333 677 270 693 270 c 0
 733 270 763.333333333 257 784 231 c 0
 802 208.333333333 811 179.333333333 811 144 c 0
 811 128.666666667 809.666666667 115.333333333 807 104 c 0
341 152 m 0
 342.333333333 156.666666667 343 163.666666667 343 173 c 0
 343 193 337.666666667 210.333333333 327 225 c 128
 316.333333333 239.666666667 302 247 284 247 c 0
 264.666666667 247 247.166666667 241.833333333 231.5 231.5 c 128
 215.833333333 221.166666667 204 207.666666667 196 191 c 1
 192 173 190 156.333333333 190 141 c 0
 190 116.333333333 195.166666667 96.6666666667 205.5 82 c 128
 215.833333333 67.3333333333 231.666666667 60 253 60 c 0
 275 60 294 69.1666666667 310 87.5 c 128
 326 105.833333333 336.333333333 127.333333333 341 152 c 0
EndSplineSet
EndChar

StartChar: u0B9E_u0BBF
Encoding: 82 -1 82
Width: 980
Flags: HW
AnchorPoint: "V" 577 456 basechar 0
AnchorPoint: "N" 577 -199.967 basechar 0
LayerCount: 2
Fore
SplineSet
880 0 m 1
 850 0 l 1
 961 520 l 2
 963 528.666666667 964.5 536.666666667 965.5 544 c 128
 966.5 551.333333333 967 558.333333333 967 565 c 0
 967 593.666666667 958.333333333 615.333333333 941 630 c 0
 919 648.666666667 883 658 833 658 c 0
 778.333333333 658 735.666666667 645.833333333 705 621.5 c 128
 674.333333333 597.166666667 653.666666667 561.333333333 643 514 c 0
 641 504.666666667 640 496.333333333 640 489 c 0
 640 481 641 473.833333333 643 467.5 c 128
 645 461.166666667 647.666666667 455.333333333 651 450 c 1
 756 450 l 1
 748 415 l 1
 648 415 l 1
 613 251 l 1
 638.333333333 275 666.666666667 287 698 287 c 0
 702.666666667 287 708.333333333 286.333333333 715 285 c 0
 739 280.333333333 758.333333333 266.833333333 773 244.5 c 128
 787.666666667 222.166666667 795 191.333333333 795 152 c 0
 795 134.666666667 794.5 122 793.5 114 c 128
 792.5 106 790.333333333 94 787 78 c 0
 769.666666667 -3.33333333333 724.333333333 -68.6666666667 651 -118 c 0
 570.333333333 -172.666666667 465.666666667 -200 337 -200 c 0
 245 -200 170.333333333 -176.333333333 113 -129 c 0
 53 -79.6666666667 23 -13 23 71 c 0
 23 95.6666666667 26 122 32 150 c 0
 46 214.666666667 67.6666666667 273.5 97 326.5 c 128
 126.333333333 379.5 160.333333333 420.666666667 199 450 c 1
 216 430 l 1
 179.333333333 400 148.333333333 360.166666667 123 310.5 c 128
 97.6666666667 260.833333333 78.6666666667 206.333333333 66 147 c 0
 61.3333333333 126.333333333 59 105.333333333 59 84 c 0
 59 10 86.6666666667 -50 142 -96 c 128
 197.333333333 -142 265.666666667 -165 347 -165 c 0
 455.666666667 -165 543.666666667 -138.333333333 611 -85 c 0
 667.666666667 -39.6666666667 703.333333333 17.3333333333 718 86 c 0
 722.666666667 106.666666667 725 126 725 144 c 0
 725 165.333333333 721.833333333 183 715.5 197 c 128
 709.166666667 211 700 221.666666667 688 229 c 0
 680.666666667 233.666666667 671.333333333 236 660 236 c 0
 638.666666667 236 620.333333333 227.333333333 605 210 c 1
 560 0 l 1
 485 0 l 1
 573 415 l 1
 431 415 l 2
 371 415 319.666666667 396.333333333 277 359 c 0
 242.333333333 328.333333333 220 293.666666667 210 255 c 1
 220.666666667 266.333333333 235.833333333 276 255.5 284 c 128
 275.166666667 292 295.333333333 296 316 296 c 0
 349.333333333 296 375.166666667 286.5 393.5 267.5 c 128
 411.833333333 248.5 421 222.666666667 421 190 c 0
 421 179 421 179 421 169 c 0
 419 161.666666667 417.666666667 156.666666667 417 154 c 0
 407 107.333333333 390.333333333 70.6666666667 367 44 c 0
 341 14.6666666667 309 0 271 0 c 0
 193.666666667 0 155 44 155 132 c 0
 155 154 158 179 164 207 c 0
 180 281.666666667 211.833333333 340.833333333 259.5 384.5 c 128
 307.166666667 428.166666667 364 450 430 450 c 2
 615 450 l 1
 609.666666667 466 607 484 607 504 c 0
 607 518 609 534.666666667 613 554 c 0
 625 610 650.5 652.666666667 689.5 682 c 128
 728.5 711.333333333 781.333333333 726 848 726 c 0
 906 726 947.333333333 713.333333333 972 688 c 0
 992 667.333333333 1002 638.333333333 1002 601 c 0
 1002 587 1001 573.666666667 999 561 c 0
 995 542.333333333 992.333333333 529 991 521 c 2
 880 0 l 1
341 152 m 0
 342.333333333 156.666666667 343 163.666666667 343 173 c 0
 343 193 337.666666667 210.333333333 327 225 c 128
 316.333333333 239.666666667 302 247 284 247 c 0
 264.666666667 247 247.166666667 241.833333333 231.5 231.5 c 128
 215.833333333 221.166666667 204 207.666666667 196 191 c 1
 192 173 190 156.333333333 190 141 c 0
 190 116.333333333 195.166666667 96.6666666667 205.5 82 c 128
 215.833333333 67.3333333333 231.666666667 60 253 60 c 0
 275 60 294 69.1666666667 310 87.5 c 128
 326 105.833333333 336.333333333 127.333333333 341 152 c 0
EndSplineSet
EndChar

StartChar: u0B9E_u0BC0
Encoding: 83 -1 83
Width: 886
Flags: HW
AnchorPoint: "V" 577 642.246 basechar 0
AnchorPoint: "N" 577 -199.967 basechar 0
LayerCount: 2
Fore
SplineSet
341 152 m 0
 342.333333333 156.666666667 343 163.666666667 343 173 c 0
 343 193 337.666666667 210.333333333 327 225 c 128
 316.333333333 239.666666667 302 247 284 247 c 0
 264.666666667 247 247.166666667 241.833333333 231.5 231.5 c 128
 215.833333333 221.166666667 204 207.666666667 196 191 c 1
 192 173 190 156.333333333 190 141 c 0
 190 116.333333333 195.166666667 96.6666666667 205.5 82 c 128
 215.833333333 67.3333333333 231.666666667 60 253 60 c 0
 275 60 294 69.1666666667 310 87.5 c 128
 326 105.833333333 336.333333333 127.333333333 341 152 c 0
868 603 m 0
 869.333333333 609.666666667 870 615 870 619 c 0
 870 634.333333333 864.833333333 647.166666667 854.5 657.5 c 128
 844.166666667 667.833333333 830.333333333 673 813 673 c 1
 795.666666667 669.666666667 780 661.333333333 766 648 c 128
 752 634.666666667 743.333333333 619.333333333 740 602 c 0
 739.333333333 598.666666667 739 594 739 588 c 0
 739 573.333333333 743.5 561.166666667 752.5 551.5 c 128
 761.5 541.833333333 773.333333333 537 788 537 c 0
 806.666666667 537 823.833333333 543.333333333 839.5 556 c 128
 855.166666667 568.666666667 864.666666667 584.333333333 868 603 c 0
757 450 m 1
 749 415 l 1
 649 415 l 1
 611 235 l 1
 619.666666667 245.666666667 631.666666667 254.166666667 647 260.5 c 128
 662.333333333 266.833333333 678 270 694 270 c 0
 734 270 764.333333333 257 785 231 c 0
 803 208.333333333 812 179.333333333 812 144 c 0
 812 128.666666667 810.666666667 115.333333333 808 104 c 0
 788.666666667 14.6666666667 743.333333333 -56.6666666667 672 -110 c 0
 590.666666667 -170 482.333333333 -200 347 -200 c 0
 242.333333333 -200 162 -177.333333333 106 -132 c 128
 50 -86.6666666667 22 -22.6666666667 22 60 c 0
 22 89.3333333333 25.3333333333 119.333333333 32 150 c 0
 46 214.666666667 67.6666666667 273.5 97 326.5 c 128
 126.333333333 379.5 160.333333333 420.666666667 199 450 c 1
 216 430 l 1
 179.333333333 400 148.333333333 360.166666667 123 310.5 c 128
 97.6666666667 260.833333333 78.6666666667 206.333333333 66 147 c 0
 60.6666666667 120.333333333 58 96.3333333333 58 75 c 0
 58 1 83.8333333333 -57.5 135.5 -100.5 c 128
 187.166666667 -143.5 257.666666667 -165 347 -165 c 0
 459 -165 550 -137 620 -81 c 0
 679.333333333 -33.6666666667 717 27.3333333333 733 102 c 0
 735 112 736.166666667 118.666666667 736.5 122 c 128
 736.833333333 125.333333333 737 131 737 139 c 0
 737 162.333333333 732.333333333 181 723 195 c 0
 711 213 692.666666667 222 668 222 c 0
 638.666666667 222 616.666666667 211.666666667 602 191 c 1
 561 0 l 1
 485 0 l 1
 573 415 l 1
 431 415 l 2
 371 415 319.666666667 396.333333333 277 359 c 0
 242.333333333 328.333333333 220 293.666666667 210 255 c 1
 220.666666667 266.333333333 235.833333333 276 255.5 284 c 128
 275.166666667 292 295.333333333 296 316 296 c 0
 349.333333333 296 375.166666667 286.5 393.5 267.5 c 128
 411.833333333 248.5 421 222.666666667 421 190 c 0
 421 179 421 179 421 169 c 0
 419 161.666666667 417.666666667 156.666666667 417 154 c 0
 407 107.333333333 390.333333333 70.6666666667 367 44 c 0
 341 14.6666666667 309 0 271 0 c 0
 193.666666667 0 155 44 155 132 c 0
 155 154 158 179 164 207 c 0
 180 281.666666667 211.833333333 340.833333333 259.5 384.5 c 128
 307.166666667 428.166666667 364 450 430 450 c 2
 582 450 l 1
 572 460.666666667 563.5 473.833333333 556.5 489.5 c 128
 549.5 505.166666667 546 522.333333333 546 541 c 0
 546 549.666666667 547 558.666666667 549 568 c 0
 562.333333333 630.666666667 593.333333333 678.333333333 642 711 c 0
 682 737.666666667 725.333333333 751 772 751 c 0
 810 751 844.5 741.833333333 875.5 723.5 c 128
 906.5 705.166666667 922 680.333333333 922 649 c 0
 922 641 922 641 922 633 c 0
 920 627.666666667 918.666666667 624 918 622 c 0
 908.666666667 588.666666667 894.333333333 562 875 542 c 0
 852.333333333 518 824.666666667 506 792 506 c 0
 764 506 742.5 513.166666667 727.5 527.5 c 128
 712.5 541.833333333 705 560.333333333 705 583 c 0
 705 587 706.166666667 595.5 708.5 608.5 c 128
 710.833333333 621.5 717.833333333 636.5 729.5 653.5 c 128
 741.166666667 670.5 754 682.333333333 768 689 c 1
 732 692 l 1
 697.333333333 692 665.333333333 677.333333333 636 648 c 0
 609.333333333 621.333333333 592.333333333 590.666666667 585 556 c 0
 583 546 582 536.666666667 582 528 c 0
 582 512 584.5 497.5 589.5 484.5 c 128
 594.5 471.5 602 460 612 450 c 1
 757 450 l 1
EndSplineSet
EndChar

StartChar: u0B9E_u0BC1
Encoding: 84 -1 84
Width: 1076
Flags: HW
AnchorPoint: "V" 577 456 basechar 0
AnchorPoint: "N" 577 -199.967 basechar 0
LayerCount: 2
Fore
SplineSet
341 152 m 0
 342.333333333 156.666666667 343 163.666666667 343 173 c 0
 343 193 337.666666667 210.333333333 327 225 c 128
 316.333333333 239.666666667 302 247 284 247 c 0
 264.666666667 247 247.166666667 241.833333333 231.5 231.5 c 128
 215.833333333 221.166666667 204 207.666666667 196 191 c 1
 192 173 190 156.333333333 190 141 c 0
 190 116.333333333 195.166666667 96.6666666667 205.5 82 c 128
 215.833333333 67.3333333333 231.666666667 60 253 60 c 0
 275 60 294 69.1666666667 310 87.5 c 128
 326 105.833333333 336.333333333 127.333333333 341 152 c 0
641 -75 m 1
 53 -75 l 2
 37.6666666667 -75 30 -79.3333333333 30 -88 c 0
 30 -90.6666666667 30.6666666667 -93.3333333333 32 -96 c 0
 42 -121.333333333 68.6666666667 -145.333333333 112 -168 c 0
 172 -199.333333333 246.666666667 -215 336 -215 c 0
 398.666666667 -215 457 -201.666666667 511 -175 c 0
 559.666666667 -151 603 -117.666666667 641 -75 c 1
748 -40 m 1
 892 -40 l 1
 997 450 l 1
 1072 450 l 1
 960 -75 l 1
 724 -75 l 1
 682 -128.333333333 629.666666667 -170 567 -200 c 0
 497.666666667 -233.333333333 421 -250 337 -250 c 0
 225.666666667 -250 137.666666667 -228.666666667 73 -186 c 0
 27 -156 -1.33333333333 -121 -12 -81 c 0
 -14.6666666667 -72.3333333333 -13 -63.3333333333 -7 -54 c 128
 -1 -44.6666666667 9.33333333333 -40 24 -40 c 2
 668 -40 l 1
 700.666666667 5.33333333333 722.333333333 52.6666666667 733 102 c 0
 735 112 736.166666667 118.666666667 736.5 122 c 128
 736.833333333 125.333333333 737 131 737 139 c 0
 737 162.333333333 732.333333333 181 723 195 c 0
 711 213 692.666666667 222 668 222 c 0
 638.666666667 222 616.666666667 211.666666667 602 191 c 1
 561 0 l 1
 485 0 l 1
 573 415 l 1
 431 415 l 2
 371 415 319.666666667 396.333333333 277 359 c 0
 242.333333333 328.333333333 220 293.666666667 210 255 c 1
 220.666666667 266.333333333 235.833333333 276 255.5 284 c 128
 275.166666667 292 295.333333333 296 316 296 c 0
 349.333333333 296 375.166666667 286.5 393.5 267.5 c 128
 411.833333333 248.5 421 222.666666667 421 190 c 0
 421 179 421 179 421 169 c 0
 419 161.666666667 417.666666667 156.666666667 417 154 c 0
 407 107.333333333 390.333333333 70.6666666667 367 44 c 0
 341 14.6666666667 309 0 271 0 c 0
 193.666666667 0 155 44 155 132 c 0
 155 154 158 179 164 207 c 0
 180 281.666666667 211.833333333 340.833333333 259.5 384.5 c 128
 307.166666667 428.166666667 364 450 430 450 c 2
 757 450 l 1
 749 415 l 1
 649 415 l 1
 611 235 l 1
 619.666666667 245.666666667 631.666666667 254.166666667 647 260.5 c 128
 662.333333333 266.833333333 678 270 694 270 c 0
 734 270 764.333333333 257 785 231 c 0
 803 208.333333333 812 179.333333333 812 144 c 0
 812 128.666666667 810.666666667 115.333333333 808 104 c 0
 796.666666667 52.6666666667 776.666666667 4.66666666667 748 -40 c 1
EndSplineSet
EndChar

StartChar: u0B9E_u0BC2
Encoding: 85 -1 85
Width: 1326
Flags: HW
AnchorPoint: "V" 577 456 basechar 0
AnchorPoint: "N" 577 -199.967 basechar 0
LayerCount: 2
Fore
SplineSet
341 152 m 0
 342.333333333 156.666666667 343 163.666666667 343 173 c 0
 343 193 337.666666667 210.333333333 327 225 c 128
 316.333333333 239.666666667 302 247 284 247 c 0
 264.666666667 247 247.166666667 241.833333333 231.5 231.5 c 128
 215.833333333 221.166666667 204 207.666666667 196 191 c 1
 192 173 190 156.333333333 190 141 c 0
 190 116.333333333 195.166666667 96.6666666667 205.5 82 c 128
 215.833333333 67.3333333333 231.666666667 60 253 60 c 0
 275 60 294 69.1666666667 310 87.5 c 128
 326 105.833333333 336.333333333 127.333333333 341 152 c 0
641 -75 m 1
 48 -75 l 2
 32.6666666667 -75 25 -79.3333333333 25 -88 c 0
 25 -90.6666666667 25.6666666667 -93.3333333333 27 -96 c 0
 37 -121.333333333 64.3333333333 -145.333333333 109 -168 c 0
 170.333333333 -199.333333333 246 -215 336 -215 c 0
 399.333333333 -215 458 -201.666666667 512 -175 c 0
 560 -151.666666667 603 -118.333333333 641 -75 c 1
668 -40 m 1
 700.666666667 5.33333333333 722.333333333 52.6666666667 733 102 c 0
 735 112 736.166666667 118.666666667 736.5 122 c 128
 736.833333333 125.333333333 737 131 737 139 c 0
 737 162.333333333 732.333333333 181 723 195 c 0
 711 213 692.666666667 222 668 222 c 0
 638.666666667 222 616.666666667 211.666666667 602 191 c 1
 561 0 l 1
 485 0 l 1
 573 415 l 1
 431 415 l 2
 371 415 319.666666667 396.333333333 277 359 c 0
 242.333333333 328.333333333 220 293.666666667 210 255 c 1
 220.666666667 266.333333333 235.833333333 276 255.5 284 c 128
 275.166666667 292 295.333333333 296 316 296 c 0
 349.333333333 296 375.166666667 286.5 393.5 267.5 c 128
 411.833333333 248.5 421 222.666666667 421 190 c 0
 421 179 421 179 421 169 c 0
 419 161.666666667 417.666666667 156.666666667 417 154 c 0
 407 107.333333333 390.333333333 70.6666666667 367 44 c 0
 341 14.6666666667 309 0 271 0 c 0
 193.666666667 0 155 44 155 132 c 0
 155 154 158 179 164 207 c 0
 180 281.666666667 211.833333333 340.833333333 259.5 384.5 c 128
 307.166666667 428.166666667 364 450 430 450 c 2
 757 450 l 1
 749 415 l 1
 649 415 l 1
 611 235 l 1
 619.666666667 245.666666667 631.666666667 254.166666667 647 260.5 c 128
 662.333333333 266.833333333 678 270 694 270 c 0
 734 270 764.333333333 257 785 231 c 0
 803 208.333333333 812 179.333333333 812 144 c 0
 812 128.666666667 810.666666667 115.333333333 808 104 c 0
 796 50 776 2 748 -40 c 1
 892 -40 l 1
 997 450 l 1
 1322 450 l 1
 1314 415 l 1
 1214 415 l 1
 1110 -75 l 1
 1035 -75 l 1
 1139 415 l 1
 1024 415 l 1
 920 -75 l 1
 723 -75 l 1
 681 -128.333333333 629 -170 567 -200 c 0
 497.666666667 -233.333333333 421 -250 337 -250 c 0
 225.666666667 -250 137.666666667 -228.666666667 73 -186 c 0
 27 -156 -1.33333333333 -121 -12 -81 c 0
 -14.6666666667 -72.3333333333 -13 -63.3333333333 -7 -54 c 128
 -1 -44.6666666667 9.33333333333 -40 24 -40 c 2
 668 -40 l 1
EndSplineSet
EndChar

StartChar: u0B9E_u0BCD
Encoding: 86 -1 86
Width: 870
Flags: HW
AnchorPoint: "N" 577 -199.967 basechar 0
LayerCount: 2
Fore
SplineSet
807 104 m 0
 787.666666667 14 742.666666667 -57.3333333333 672 -110 c 0
 591.333333333 -170 483 -200 347 -200 c 0
 242.333333333 -200 162 -177.333333333 106 -132 c 128
 50 -86.6666666667 22 -22.6666666667 22 60 c 0
 22 89.3333333333 25.3333333333 119.333333333 32 150 c 0
 46 214.666666667 67.6666666667 273.5 97 326.5 c 128
 126.333333333 379.5 160.333333333 420.666666667 199 450 c 1
 216 430 l 1
 179.333333333 400 148.333333333 360.166666667 123 310.5 c 128
 97.6666666667 260.833333333 78.6666666667 206.333333333 66 147 c 0
 60.6666666667 120.333333333 58 96.3333333333 58 75 c 0
 58 1 83.8333333333 -57.5 135.5 -100.5 c 128
 187.166666667 -143.5 257.666666667 -165 347 -165 c 0
 458.333333333 -165 549 -137 619 -81 c 0
 678.333333333 -33.6666666667 716 27.3333333333 732 102 c 0
 734 112 735.166666667 118.666666667 735.5 122 c 128
 735.833333333 125.333333333 736 131 736 139 c 0
 736 162.333333333 731.333333333 181 722 195 c 0
 710 213 691.666666667 222 667 222 c 0
 637.666666667 222 615.666666667 211.666666667 601 191 c 1
 560 0 l 1
 485 0 l 1
 573 415 l 1
 431 415 l 2
 371 415 319.666666667 396.333333333 277 359 c 0
 242.333333333 328.333333333 220 293.666666667 210 255 c 1
 220.666666667 266.333333333 235.833333333 276 255.5 284 c 128
 275.166666667 292 295.333333333 296 316 296 c 0
 349.333333333 296 375.166666667 286.5 393.5 267.5 c 128
 411.833333333 248.5 421 222.666666667 421 190 c 0
 421 179 421 179 421 169 c 0
 419 161.666666667 417.666666667 156.666666667 417 154 c 0
 407 107.333333333 390.333333333 70.6666666667 367 44 c 0
 341 14.6666666667 309 0 271 0 c 0
 193.666666667 0 155 44 155 132 c 0
 155 154 158 179 164 207 c 0
 180 281.666666667 211.833333333 340.833333333 259.5 384.5 c 128
 307.166666667 428.166666667 364 450 430 450 c 2
 756 450 l 1
 748 415 l 1
 648 415 l 1
 610 235 l 1
 618.666666667 245.666666667 630.666666667 254.166666667 646 260.5 c 128
 661.333333333 266.833333333 677 270 693 270 c 0
 733 270 763.333333333 257 784 231 c 0
 802 208.333333333 811 179.333333333 811 144 c 0
 811 128.666666667 809.666666667 115.333333333 807 104 c 0
341 152 m 0
 342.333333333 156.666666667 343 163.666666667 343 173 c 0
 343 193 337.666666667 210.333333333 327 225 c 128
 316.333333333 239.666666667 302 247 284 247 c 0
 264.666666667 247 247.166666667 241.833333333 231.5 231.5 c 128
 215.833333333 221.166666667 204 207.666666667 196 191 c 1
 192 173 190 156.333333333 190 141 c 0
 190 116.333333333 195.166666667 96.6666666667 205.5 82 c 128
 215.833333333 67.3333333333 231.666666667 60 253 60 c 0
 275 60 294 69.1666666667 310 87.5 c 128
 326 105.833333333 336.333333333 127.333333333 341 152 c 0
589 639 m 0
 603 639 614.166666667 634.5 622.5 625.5 c 128
 630.833333333 616.5 635 605.333333333 635 592 c 0
 635 587.333333333 634.666666667 584 634 582 c 0
 630.666666667 566.666666667 622.333333333 553.333333333 609 542 c 128
 595.666666667 530.666666667 581 525 565 525 c 0
 551.666666667 525 540.666666667 529.333333333 532 538 c 128
 523.333333333 546.666666667 519 557.666666667 519 571 c 0
 519 575.666666667 519.833333333 582.5 521.5 591.5 c 128
 523.166666667 600.5 531 610.666666667 545 622 c 128
 559 633.333333333 573.666666667 639 589 639 c 0
EndSplineSet
EndChar

StartChar: u0B9F
Encoding: 87 2975 87
Width: 720
Flags: HW
AnchorPoint: "V" 442 456 basechar 0
AnchorPoint: "N" 442 0 basechar 0
LayerCount: 2
Fore
SplineSet
620 0 m 1
 0 0 l 1
 96 450 l 1
 166 450 l 1
 77 35 l 1
 627 35 l 1
 620 0 l 1
EndSplineSet
EndChar

StartChar: u0B9F_u0BBF
Encoding: 88 -1 88
Width: 640
Flags: HW
AnchorPoint: "V" 442 456 basechar 0
AnchorPoint: "N" 442 0 basechar 0
LayerCount: 2
Fore
SplineSet
540 0 m 1
 440 0 l 1
 394 -215 l 1
 324 -215 l 1
 370 0 l 1
 0 0 l 1
 96 450 l 1
 166 450 l 1
 76 30 l 1
 313 30 l 1
 299.666666667 42 287 57.6666666667 275 77 c 0
 260.333333333 101.666666667 249.333333333 128.333333333 242 157 c 0
 238 174.333333333 236 194.666666667 236 218 c 0
 236 253.333333333 241 285.333333333 251 314 c 0
 263.666666667 350 283.666666667 380 311 404 c 0
 327 418 345.166666667 429.166666667 365.5 437.5 c 128
 385.833333333 445.833333333 407.666666667 450 431 450 c 0
 459 450 480 442.333333333 494 427 c 128
 508 411.666666667 515 392 515 368 c 0
 515 358.666666667 514 349 512 339 c 2
 446 30 l 1
 546 30 l 1
 540 0 l 1
376 30 m 1
 443 344 l 2
 443.666666667 346.666666667 444 350.666666667 444 356 c 0
 444 368.666666667 440.333333333 378 433 384 c 128
 425.666666667 390 417 393 407 393 c 0
 377.666666667 393 352 381.333333333 330 358 c 0
 313.333333333 341.333333333 300 319.333333333 290 292 c 128
 280 264.666666667 275 236.666666667 275 208 c 0
 275 188 277.333333333 170.666666667 282 156 c 0
 300.666666667 94.6666666667 332 52.6666666667 376 30 c 1
EndSplineSet
EndChar

StartChar: u0B9F_u0BC0
Encoding: 89 -1 89
Width: 601
Flags: HW
AnchorPoint: "V" 442 456 basechar 0
AnchorPoint: "N" 442 0 basechar 0
LayerCount: 2
Fore
SplineSet
232 30 m 1
 507 30 l 1
 501 0 l 1
 0 0 l 1
 96 450 l 1
 166 450 l 1
 76 30 l 1
 204 30 l 1
 193.333333333 39.3333333333 183.666666667 52.8333333333 175 70.5 c 128
 166.333333333 88.1666666667 162 106.666666667 162 126 c 0
 162 134.666666667 163 143.666666667 165 153 c 0
 178.333333333 215.666666667 209 263.333333333 257 296 c 0
 296.333333333 322.666666667 339.333333333 336 386 336 c 0
 430 336 465.666666667 329.333333333 493 316 c 0
 529.666666667 298 548 269.333333333 548 230 c 0
 548 220.666666667 547 210.333333333 545 199 c 0
 539 168.333333333 523 142.666666667 497 122 c 128
 471 101.333333333 440.666666667 91 406 91 c 0
 378 91 356.666666667 98 342 112 c 128
 327.333333333 126 320 144 320 166 c 0
 320 176 321.166666667 186.333333333 323.5 197 c 128
 325.833333333 207.666666667 332.833333333 221.5 344.5 238.5 c 128
 356.166666667 255.5 369 267.333333333 383 274 c 1
 347 277 l 1
 312.333333333 277 281.166666667 262.833333333 253.5 234.5 c 128
 225.833333333 206.166666667 208.333333333 175 201 141 c 0
 199 131 198 121.333333333 198 112 c 0
 198 95.3333333333 201.166666667 79.6666666667 207.5 65 c 128
 213.833333333 50.3333333333 222 38.6666666667 232 30 c 1
483 188 m 0
 484.333333333 194.666666667 485 200 485 204 c 0
 485 219.333333333 479.833333333 232.166666667 469.5 242.5 c 128
 459.166666667 252.833333333 445.333333333 258 428 258 c 1
 409.333333333 254.666666667 393.333333333 246.5 380 233.5 c 128
 366.666666667 220.5 358.333333333 205 355 187 c 0
 354.333333333 183.666666667 354 179 354 173 c 0
 354 158.333333333 358.5 146.166666667 367.5 136.5 c 128
 376.5 126.833333333 388.333333333 122 403 122 c 0
 421 122 437.833333333 128.5 453.5 141.5 c 128
 469.166666667 154.5 479 170 483 188 c 0
EndSplineSet
EndChar

StartChar: u0B9F_u0BC1
Encoding: 90 -1 90
Width: 756
Flags: HW
AnchorPoint: "V" 442 660.508 basechar 0
AnchorPoint: "N" 442 0 basechar 0
LayerCount: 2
Fore
SplineSet
626 0 m 1
 596 0 l 1
 620 50.6666666667 640 109.666666667 656 177 c 128
 672 244.333333333 680 305.333333333 680 360 c 0
 680 380 678.333333333 399.333333333 675 418 c 0
 663.666666667 475.333333333 638.666666667 516.833333333 600 542.5 c 128
 561.333333333 568.166666667 508.333333333 581 441 581 c 0
 351.666666667 581 274.666666667 547.666666667 210 481 c 0
 148 417 105.333333333 330.666666667 82 222 c 0
 76.6666666667 195.333333333 72.3333333333 169.166666667 69 143.5 c 128
 65.6666666667 117.833333333 64 94.3333333333 64 73 c 0
 64 6.33333333333 77.3333333333 -45.3333333333 104 -82 c 0
 134 -122.666666667 179.333333333 -143 240 -143 c 0
 301.333333333 -143 355 -116.666666667 401 -64 c 0
 441 -18.6666666667 468 36.6666666667 482 102 c 0
 484 111.333333333 485 121.666666667 485 133 c 0
 485 157.666666667 480 177.666666667 470 193 c 0
 457.333333333 212.333333333 438 222 412 222 c 0
 379.333333333 222 355.666666667 211.666666667 341 191 c 1
 300 0 l 1
 225 0 l 1
 321 450 l 1
 396 450 l 1
 350 235 l 1
 358.666666667 245.666666667 371.333333333 254.166666667 388 260.5 c 128
 404.666666667 266.833333333 421.333333333 270 438 270 c 0
 479.333333333 270 511 256.666666667 533 230 c 0
 552.333333333 206.666666667 562 177 562 141 c 0
 562 131 562 131 562 122 c 0
 560 114 558.666666667 108 558 104 c 0
 538.666666667 12.6666666667 501.333333333 -57.1666666667 446 -105.5 c 128
 390.666666667 -153.833333333 322 -178 240 -178 c 0
 166.666666667 -178 112.333333333 -156 77 -112 c 0
 45 -72 29 -13.6666666667 29 63 c 0
 29 113.666666667 35.6666666667 169.666666667 49 231 c 0
 76.3333333333 359 123.333333333 460.666666667 190 536 c 0
 264 619.333333333 354.666666667 661 462 661 c 0
 537.333333333 661 597.333333333 644 642 610 c 128
 686.666666667 576 713.333333333 529.333333333 722 470 c 0
 724 456 725 440 725 422 c 0
 725 362 715 291 695 209 c 128
 675 127 652 57.3333333333 626 0 c 1
EndSplineSet
EndChar

StartChar: u0B9F_u0BC2
Encoding: 91 -1 91
Width: 751
Flags: HW
AnchorPoint: "V" 442 659.657 basechar 0
AnchorPoint: "N" 442 0 basechar 0
LayerCount: 2
Fore
SplineSet
752 379 m 0
 744.666666667 345.666666667 730.333333333 318.666666667 709 298 c 0
 684.333333333 274 653.333333333 262 616 262 c 0
 582 262 556.166666667 269.166666667 538.5 283.5 c 128
 520.833333333 297.833333333 512 317.333333333 512 342 c 0
 512 349.333333333 513 357.666666667 515 367 c 0
 521 395 534.333333333 418.666666667 555 438 c 0
 579.666666667 460.666666667 609.666666667 472 645 472 c 0
 656.333333333 472 665.333333333 471.333333333 672 470 c 1
 661.333333333 508 636.166666667 539.333333333 596.5 564 c 128
 556.833333333 588.666666667 508.333333333 601 451 601 c 0
 357 601 276.666666667 564.333333333 210 491 c 0
 148.666666667 423.666666667 106 334 82 222 c 0
 76.6666666667 195.333333333 72.3333333333 169.166666667 69 143.5 c 128
 65.6666666667 117.833333333 64 94.3333333333 64 73 c 0
 64 6.33333333333 77.3333333333 -45.3333333333 104 -82 c 0
 134 -122.666666667 179.333333333 -143 240 -143 c 0
 301.333333333 -143 355 -116.666666667 401 -64 c 0
 441 -18.6666666667 468 36.6666666667 482 102 c 0
 484 111.333333333 485 121.666666667 485 133 c 0
 485 157.666666667 480 177.666666667 470 193 c 0
 457.333333333 212.333333333 438 222 412 222 c 0
 379.333333333 222 355.666666667 211.666666667 341 191 c 1
 300 0 l 1
 225 0 l 1
 321 450 l 1
 396 450 l 1
 350 235 l 1
 358.666666667 245.666666667 371.333333333 254.166666667 388 260.5 c 128
 404.666666667 266.833333333 421.333333333 270 438 270 c 0
 479.333333333 270 511 256.666666667 533 230 c 0
 552.333333333 206.666666667 562 177 562 141 c 0
 562 131 562 131 562 122 c 0
 560 114 558.666666667 108 558 104 c 0
 538.666666667 12.6666666667 501.333333333 -57.1666666667 446 -105.5 c 128
 390.666666667 -153.833333333 322 -178 240 -178 c 0
 166.666666667 -178 112.333333333 -156 77 -112 c 0
 45 -72 29 -13.6666666667 29 63 c 0
 29 113.666666667 35.6666666667 169.666666667 49 231 c 0
 77.6666666667 364.333333333 127.333333333 468.333333333 198 543 c 0
 272.666666667 621.666666667 365.666666667 661 477 661 c 0
 565.666666667 661 635.333333333 638.333333333 686 593 c 0
 733.333333333 551 757 497 757 431 c 0
 757 422.333333333 756.666666667 413.666666667 756 405 c 128
 755.333333333 396.333333333 754 387.666666667 752 379 c 0
667 340 m 0
 677.666666667 356.666666667 683 373 683 389 c 256
 683 405 678 418 668 428 c 1
 656.666666667 432 646 434 636 434 c 0
 606.666666667 434 582.333333333 421 563 395 c 0
 553.666666667 381.666666667 549 368 549 354 c 0
 549 333.333333333 557.333333333 318.666666667 574 310 c 0
 580 306.666666667 588.333333333 305 599 305 c 0
 613 305 626.166666667 308.166666667 638.5 314.5 c 128
 650.833333333 320.833333333 660.333333333 329.333333333 667 340 c 0
EndSplineSet
EndChar

StartChar: u0B9F_u0BCD
Encoding: 92 -1 92
Width: 720
Flags: HW
AnchorPoint: "N" 442 0 basechar 0
LayerCount: 2
Fore
SplineSet
620 0 m 1
 0 0 l 1
 96 450 l 1
 166 450 l 1
 77 35 l 1
 627 35 l 1
 620 0 l 1
454 639 m 0
 468 639 479.166666667 634.5 487.5 625.5 c 128
 495.833333333 616.5 500 605.333333333 500 592 c 0
 500 587.333333333 499.666666667 584 499 582 c 0
 495.666666667 567.333333333 487.5 555.5 474.5 546.5 c 128
 461.5 537.5 447 533 431 533 c 0
 417.666666667 533 406.5 536.5 397.5 543.5 c 128
 388.5 550.5 384 560 384 572 c 0
 384 576 384.833333333 582.5 386.5 591.5 c 128
 388.166666667 600.5 396 610.666666667 410 622 c 128
 424 633.333333333 438.666666667 639 454 639 c 0
EndSplineSet
EndChar

StartChar: u0BA3
Encoding: 93 2979 93
Width: 1300
Flags: HW
AnchorPoint: "V" 747 456 basechar 0
AnchorPoint: "N" 747 0 basechar 0
LayerCount: 2
Fore
SplineSet
221 152 m 0
 222.333333333 156.666666667 223 163.666666667 223 173 c 0
 223 193 217.666666667 210.333333333 207 225 c 128
 196.333333333 239.666666667 182 247 164 247 c 0
 144.666666667 247 127.166666667 241.833333333 111.5 231.5 c 128
 95.8333333333 221.166666667 84 207.666666667 76 191 c 1
 72 173 70 156.333333333 70 141 c 0
 70 116.333333333 75.1666666667 96.6666666667 85.5 82 c 128
 95.8333333333 67.3333333333 111.666666667 60 133 60 c 0
 155 60 174 69.1666666667 190 87.5 c 128
 206 105.833333333 216.333333333 127.333333333 221 152 c 0
858 361 m 1
 827.333333333 340.333333333 802 315.5 782 286.5 c 128
 762 257.5 748.333333333 225.666666667 741 191 c 0
 738.333333333 180.333333333 736.333333333 168.5 735 155.5 c 128
 733.666666667 142.5 733 130.666666667 733 120 c 0
 733 63.3333333333 750 35 784 35 c 0
 812.666666667 35 835.666666667 48.6666666667 853 76 c 128
 870.333333333 103.333333333 885 145.333333333 897 202 c 0
 899 212.666666667 900.333333333 220.333333333 901 225 c 128
 901.666666667 229.666666667 902 237.333333333 902 248 c 0
 902 269.333333333 898.5 289.666666667 891.5 309 c 128
 884.5 328.333333333 873.333333333 345.666666667 858 361 c 1
528 361 m 1
 497.333333333 340.333333333 472 315.5 452 286.5 c 128
 432 257.5 418.333333333 225.666666667 411 191 c 0
 408.333333333 180.333333333 406.333333333 168.5 405 155.5 c 128
 403.666666667 142.5 403 130.666666667 403 120 c 0
 403 63.3333333333 420 35 454 35 c 0
 482.666666667 35 505.666666667 48.6666666667 523 76 c 128
 540.333333333 103.333333333 555 145.333333333 567 202 c 0
 569 212.666666667 570.333333333 220.333333333 571 225 c 128
 571.666666667 229.666666667 572 237.333333333 572 248 c 0
 572 269.333333333 568.5 289.666666667 561.5 309 c 128
 554.5 328.333333333 543.333333333 345.666666667 528 361 c 1
829 385 m 1
 796.333333333 405 753.666666667 415 701 415 c 0
 659.666666667 415 620.333333333 407 583 391 c 1
 605 373 621.166666667 352.5 631.5 329.5 c 128
 641.833333333 306.5 647 281 647 253 c 0
 647 236.333333333 645 219.333333333 641 202 c 0
 625.666666667 131.333333333 605.333333333 80.6666666667 580 50 c 0
 552 16.6666666667 514.333333333 0 467 0 c 0
 432.333333333 0 406.833333333 9.5 390.5 28.5 c 128
 374.166666667 47.5 366 75.3333333333 366 112 c 0
 366 132.666666667 369.333333333 159 376 191 c 0
 393.333333333 272.333333333 434.333333333 337 499 385 c 1
 466.333333333 405 423.666666667 415 371 415 c 0
 306.333333333 415 245 396.666666667 187 360 c 0
 134.333333333 326.666666667 102 291.666666667 90 255 c 1
 100.666666667 266.333333333 115.833333333 276 135.5 284 c 128
 155.166666667 292 175.333333333 296 196 296 c 0
 229.333333333 296 255.166666667 286.5 273.5 267.5 c 128
 291.833333333 248.5 301 222.666666667 301 190 c 0
 301 179 301 179 301 169 c 0
 299 161.666666667 297.666666667 156.666666667 297 154 c 0
 287 107.333333333 269.666666667 70.6666666667 245 44 c 0
 217.666666667 14.6666666667 183 0 141 0 c 0
 109 0 83.5 11.8333333333 64.5 35.5 c 128
 45.5 59.1666666667 36 92.6666666667 36 136 c 0
 36 153.333333333 36.5 165.833333333 37.5 173.5 c 128
 38.5 181.166666667 40.6666666667 192.333333333 44 207 c 0
 60 281.666666667 100.666666667 341.666666667 166 387 c 0
 226.666666667 429 295 450 371 450 c 0
 409 450 442.333333333 447 471 441 c 128
 499.666666667 435 525 426.333333333 547 415 c 1
 595.666666667 438.333333333 647 450 701 450 c 0
 773.666666667 450 832.333333333 438 877 414 c 1
 923.666666667 438 975 450 1031 450 c 2
 1296 450 l 1
 1288 415 l 1
 1188 415 l 1
 1100 0 l 1
 1025 0 l 1
 1113 415 l 1
 1031 415 l 2
 991 415 951.333333333 407 912 391 c 1
 934 373 950.166666667 352.333333333 960.5 329 c 128
 970.833333333 305.666666667 976 280 976 252 c 0
 976 232.666666667 974.333333333 216 971 202 c 0
 955.666666667 131.333333333 935.333333333 80.6666666667 910 50 c 0
 882 16.6666666667 844.333333333 0 797 0 c 0
 762.333333333 0 736.833333333 9.5 720.5 28.5 c 128
 704.166666667 47.5 696 75.3333333333 696 112 c 0
 696 132.666666667 699.333333333 159 706 191 c 0
 723.333333333 272.333333333 764.333333333 337 829 385 c 1
EndSplineSet
EndChar

StartChar: u0BA3_u0BBE.old
Encoding: 95 -1 95
Width: 1405
Flags: HW
AnchorPoint: "V" 747 456 basechar 0
AnchorPoint: "N" 747 0 basechar 0
LayerCount: 2
Fore
SplineSet
341 152 m 0
 342.333333333 156.666666667 343 163.666666667 343 173 c 0
 343 193 337.666666667 210.333333333 327 225 c 128
 316.333333333 239.666666667 302 247 284 247 c 0
 264.666666667 247 247.166666667 241.833333333 231.5 231.5 c 128
 215.833333333 221.166666667 204 207.666666667 196 191 c 1
 192 173 190 156.333333333 190 141 c 0
 190 116.333333333 195.166666667 96.6666666667 205.5 82 c 128
 215.833333333 67.3333333333 231.666666667 60 253 60 c 0
 275 60 294 69.1666666667 310 87.5 c 128
 326 105.833333333 336.333333333 127.333333333 341 152 c 0
978 362 m 1
 948.666666667 341.333333333 923.666666667 316.5 903 287.5 c 128
 882.333333333 258.5 868.333333333 226.333333333 861 191 c 0
 858.333333333 180.333333333 856.333333333 168.5 855 155.5 c 128
 853.666666667 142.5 853 130.666666667 853 120 c 0
 853 63.3333333333 870 35 904 35 c 0
 932.666666667 35 955.666666667 48.6666666667 973 76 c 128
 990.333333333 103.333333333 1005 145.333333333 1017 202 c 0
 1019 212.666666667 1020.33333333 220.333333333 1021 225 c 128
 1021.66666667 229.666666667 1022 237.333333333 1022 248 c 0
 1022 270 1018.5 290.666666667 1011.5 310 c 128
 1004.5 329.333333333 993.333333333 346.666666667 978 362 c 1
648 361 m 1
 617.333333333 340.333333333 592 315.5 572 286.5 c 128
 552 257.5 538.333333333 225.666666667 531 191 c 0
 528.333333333 180.333333333 526.333333333 168.5 525 155.5 c 128
 523.666666667 142.5 523 130.666666667 523 120 c 0
 523 63.3333333333 540 35 574 35 c 0
 602.666666667 35 625.666666667 48.6666666667 643 76 c 128
 660.333333333 103.333333333 675 145.333333333 687 202 c 0
 689 212.666666667 690.333333333 220.333333333 691 225 c 128
 691.666666667 229.666666667 692 237.333333333 692 248 c 0
 692 269.333333333 688.5 289.666666667 681.5 309 c 128
 674.5 328.333333333 663.333333333 345.666666667 648 361 c 1
949 385 m 1
 916.333333333 405 873.666666667 415 821 415 c 0
 779.666666667 415 740.333333333 407 703 391 c 1
 725 373 741.166666667 352.5 751.5 329.5 c 128
 761.833333333 306.5 767 281 767 253 c 0
 767 236.333333333 765 219.333333333 761 202 c 0
 745.666666667 131.333333333 725.333333333 80.6666666667 700 50 c 0
 672 16.6666666667 634.333333333 0 587 0 c 0
 552.333333333 0 526.833333333 9.5 510.5 28.5 c 128
 494.166666667 47.5 486 75.3333333333 486 112 c 0
 486 132.666666667 489.333333333 159 496 191 c 0
 513.333333333 272.333333333 554.333333333 337 619 385 c 1
 586.333333333 405 543.666666667 415 491 415 c 0
 426.333333333 415 365 396.666666667 307 360 c 0
 254.333333333 326.666666667 222 291.666666667 210 255 c 1
 220.666666667 266.333333333 235.833333333 276 255.5 284 c 128
 275.166666667 292 295.333333333 296 316 296 c 0
 349.333333333 296 375.166666667 286.5 393.5 267.5 c 128
 411.833333333 248.5 421 222.666666667 421 190 c 0
 421 179 421 179 421 169 c 0
 419 161.666666667 417.666666667 156.666666667 417 154 c 0
 407 107.333333333 389.666666667 70.6666666667 365 44 c 0
 337.666666667 14.6666666667 303 0 261 0 c 0
 229 0 203.5 11.8333333333 184.5 35.5 c 128
 165.5 59.1666666667 156 92.6666666667 156 136 c 0
 156 153.333333333 156.5 165.833333333 157.5 173.5 c 128
 158.5 181.166666667 160.666666667 192.333333333 164 207 c 0
 180 281.666666667 220.666666667 341.666666667 286 387 c 0
 346.666666667 429 415 450 491 450 c 0
 529 450 562.333333333 447 591 441 c 128
 619.666666667 435 645 426.333333333 667 415 c 1
 715.666666667 438.333333333 767 450 821 450 c 0
 857.666666667 450 890.333333333 447 919 441 c 128
 947.666666667 435 973.333333333 426.333333333 996 415 c 1
 1041.33333333 438.333333333 1089.66666667 450 1141 450 c 0
 1209.66666667 450 1262.66666667 431 1300 393 c 0
 1334.66666667 357.666666667 1352 310.666666667 1352 252 c 0
 1352 239.333333333 1351.66666667 229.333333333 1351 222 c 128
 1350.33333333 214.666666667 1348.33333333 203.666666667 1345 189 c 0
 1316.33333333 55 1239 -51 1113 -129 c 0
 982.333333333 -209.666666667 815 -250 611 -250 c 0
 507 -250 415 -240.666666667 335 -222 c 0
 241 -200 167.666666667 -166 115 -120 c 0
 55 -67.3333333333 25 -1 25 79 c 0
 25 103.666666667 28 130.666666667 34 160 c 0
 47.3333333333 224 68.3333333333 280.833333333 97 330.5 c 128
 125.666666667 380.166666667 159.666666667 420 199 450 c 1
 216 430 l 1
 179.333333333 399.333333333 148.666666667 360.666666667 124 314 c 128
 99.3333333333 267.333333333 80.6666666667 215 68 157 c 0
 63.3333333333 133.666666667 61 110.666666667 61 88 c 0
 61 13.3333333333 91 -48.3333333333 151 -97 c 0
 203 -139 274.333333333 -170 365 -190 c 0
 440.333333333 -206.666666667 523.333333333 -215 614 -215 c 0
 786.666666667 -215 933 -176.333333333 1053 -99 c 128
 1173 -21.6666666667 1246.33333333 78 1273 200 c 0
 1277 220 1279 239 1279 257 c 0
 1279 304.333333333 1266.33333333 342.5 1241 371.5 c 128
 1215.66666667 400.5 1180.66666667 415 1136 415 c 0
 1102.66666667 415 1067.66666667 407.333333333 1031 392 c 1
 1052.33333333 374 1068.5 352.833333333 1079.5 328.5 c 128
 1090.5 304.166666667 1096 278.333333333 1096 251 c 0
 1096 236.333333333 1094.33333333 220 1091 202 c 0
 1075.66666667 131.333333333 1055.33333333 80.6666666667 1030 50 c 0
 1002 16.6666666667 964.333333333 0 917 0 c 0
 882.333333333 0 856.833333333 9.5 840.5 28.5 c 128
 824.166666667 47.5 816 75.3333333333 816 112 c 0
 816 132.666666667 819.833333333 161.166666667 827.5 197.5 c 128
 835.166666667 233.833333333 849.5 268.333333333 870.5 301 c 128
 891.5 333.666666667 917.666666667 361.666666667 949 385 c 1
EndSplineSet
EndChar

StartChar: u0BA3_u0BBF
Encoding: 96 -1 96
Width: 1411
Flags: HW
AnchorPoint: "V" 747 456 basechar 0
AnchorPoint: "N" 747 0 basechar 0
LayerCount: 2
Fore
SplineSet
221 152 m 0
 222.333333333 156.666666667 223 163.666666667 223 173 c 0
 223 193 217.666666667 210.333333333 207 225 c 128
 196.333333333 239.666666667 182 247 164 247 c 0
 144.666666667 247 127.166666667 241.833333333 111.5 231.5 c 128
 95.8333333333 221.166666667 84 207.666666667 76 191 c 1
 72 173 70 156.333333333 70 141 c 0
 70 116.333333333 75.1666666667 96.6666666667 85.5 82 c 128
 95.8333333333 67.3333333333 111.666666667 60 133 60 c 0
 155 60 174 69.1666666667 190 87.5 c 128
 206 105.833333333 216.333333333 127.333333333 221 152 c 0
859 361 m 1
 828.333333333 340.333333333 803 315.5 783 286.5 c 128
 763 257.5 749.333333333 225.666666667 742 191 c 0
 739.333333333 180.333333333 737.333333333 168.5 736 155.5 c 128
 734.666666667 142.5 734 130.666666667 734 120 c 0
 734 63.3333333333 751 35 785 35 c 0
 813.666666667 35 836.666666667 48.6666666667 854 76 c 128
 871.333333333 103.333333333 886 145.333333333 898 202 c 0
 900 212.666666667 901.333333333 220.333333333 902 225 c 128
 902.666666667 229.666666667 903 237.333333333 903 248 c 0
 903 269.333333333 899.5 289.666666667 892.5 309 c 128
 885.5 328.333333333 874.333333333 345.666666667 859 361 c 1
528 361 m 1
 497.333333333 340.333333333 472 315.5 452 286.5 c 128
 432 257.5 418.333333333 225.666666667 411 191 c 0
 408.333333333 180.333333333 406.333333333 168.5 405 155.5 c 128
 403.666666667 142.5 403 130.666666667 403 120 c 0
 403 63.3333333333 420 35 454 35 c 0
 483.333333333 35 506.666666667 48.6666666667 524 76 c 128
 541.333333333 103.333333333 556 145.333333333 568 202 c 0
 570 212.666666667 571.333333333 220.333333333 572 225 c 128
 572.666666667 229.666666667 573 237.333333333 573 248 c 0
 573 270.666666667 569.5 291.166666667 562.5 309.5 c 128
 555.5 327.833333333 544 345 528 361 c 1
830 385 m 1
 797.333333333 405 754.666666667 415 702 415 c 0
 660.666666667 415 621.333333333 407 584 391 c 1
 606 373 622.166666667 352.5 632.5 329.5 c 128
 642.833333333 306.5 648 281 648 253 c 0
 648 236.333333333 646 219.333333333 642 202 c 0
 627.333333333 132.666666667 606.333333333 81.6666666667 579 49 c 128
 551.666666667 16.3333333333 514.333333333 0 467 0 c 0
 432.333333333 0 406.833333333 9.5 390.5 28.5 c 128
 374.166666667 47.5 366 75.3333333333 366 112 c 0
 366 132.666666667 369.333333333 159 376 191 c 0
 393.333333333 272.333333333 434.333333333 337 499 385 c 1
 466.333333333 405 423.666666667 415 371 415 c 0
 306.333333333 415 245 396.666666667 187 360 c 0
 134.333333333 326.666666667 102 291.666666667 90 255 c 1
 100.666666667 266.333333333 115.833333333 276 135.5 284 c 128
 155.166666667 292 175.333333333 296 196 296 c 0
 229.333333333 296 255.166666667 286.5 273.5 267.5 c 128
 291.833333333 248.5 301 222.666666667 301 190 c 0
 301 179 301 179 301 169 c 0
 299 161.666666667 297.666666667 156.666666667 297 154 c 0
 287 107.333333333 269.666666667 70.6666666667 245 44 c 0
 217.666666667 14.6666666667 183 0 141 0 c 0
 109 0 83.5 11.8333333333 64.5 35.5 c 128
 45.5 59.1666666667 36 92.6666666667 36 136 c 0
 36 153.333333333 36.5 165.833333333 37.5 173.5 c 128
 38.5 181.166666667 40.6666666667 192.333333333 44 207 c 0
 60 281.666666667 100.666666667 341.666666667 166 387 c 0
 226.666666667 429 295 450 371 450 c 0
 409 450 442.333333333 447 471 441 c 128
 499.666666667 435 525 426.333333333 547 415 c 1
 597 438.333333333 648.666666667 450 702 450 c 0
 774.666666667 450 833.333333333 438 878 414 c 1
 924.666666667 438 976 450 1032 450 c 2
 1156 450 l 1
 1150.66666667 467.333333333 1148 487 1148 509 c 0
 1148 520.333333333 1149 530.666666667 1151 540 c 0
 1162.33333333 594 1183 636 1213 666 c 128
 1243 696 1280.66666667 711 1326 711 c 0
 1364 711 1391.16666667 702 1407.5 684 c 128
 1423.83333333 666 1432 639 1432 603 c 0
 1432 579 1428.33333333 550.333333333 1421 517 c 2
 1311 0 l 1
 1281 0 l 1
 1389 506 l 2
 1393.66666667 526.666666667 1396 546.333333333 1396 565 c 0
 1396 590.333333333 1389.33333333 609.333333333 1376 622 c 128
 1362.66666667 634.666666667 1340.66666667 641 1310 641 c 0
 1280 641 1253.33333333 631.333333333 1230 612 c 128
 1206.66666667 592.666666667 1191.33333333 565.333333333 1184 530 c 0
 1182 518.666666667 1181 507.666666667 1181 497 c 0
 1181 475 1184.66666667 459.333333333 1192 450 c 1
 1297 450 l 1
 1289 415 l 1
 1189 415 l 1
 1101 0 l 1
 1026 0 l 1
 1114 415 l 1
 1032 415 l 2
 992 415 952.333333333 407 913 391 c 1
 935 373 951.166666667 352.333333333 961.5 329 c 128
 971.833333333 305.666666667 977 280 977 252 c 0
 977 232.666666667 975.333333333 216 972 202 c 0
 956.666666667 131.333333333 936.333333333 80.6666666667 911 50 c 0
 883 16.6666666667 845.333333333 0 798 0 c 0
 763.333333333 0 737.833333333 9.5 721.5 28.5 c 128
 705.166666667 47.5 697 75.3333333333 697 112 c 0
 697 132.666666667 700.333333333 159 707 191 c 0
 724.333333333 272.333333333 765.333333333 337 830 385 c 1
EndSplineSet
EndChar

